<?xml version="1.0" encoding="UTF-8"?>
<svg id="Layer_1" data-name="Layer 1" xmlns="http://www.w3.org/2000/svg" viewBox="0 0 135.97 56.23">
  <defs>
    <style>
      .cls-1 {
        opacity: .5;
      }

      .cls-2 {
        fill: #00f3a1;
      }
    </style>
  </defs>
  <g class="cls-1">
    <g>
      <path class="cls-2" d="M26.46,20.97c.65,0,1.26,0,1.87,0,3.43,.06,6.8,.55,10.07,1.62,1.39,.46,2.65,1.18,3.66,2.27,1.09,1.17,1.48,2.52,.93,4.06-.57,1.58-1.73,2.57-3.36,2.87-1.04,.2-2.02-.28-2.94-.77-.33-.17-.27-.45,.01-.63,.35-.23,.73-.4,1.1-.61,.33-.18,.69-.34,.98-.57,.62-.49,.62-1.07-.04-1.49-.52-.33-1.11-.61-1.7-.79-2.4-.75-4.89-1.01-7.39-1.15-1.12-.06-2.24-.01-3.46-.01,.08,4.06,.15,8.17,.23,12.35,1.06,.15,2.08,.32,3.09,.44,4.45,.52,8.8,.04,13.02-1.47,2.27-.81,4.38-1.94,5.93-3.85,2.31-2.84,2.47-6.02,1.21-9.33-1.03-2.72-2.84-4.9-4.92-6.87-4.27-4.04-9.28-6.92-14.64-9.22-5.51-2.36-11.26-3.83-17.25-4.22-3.13-.2-6.26-.12-9.31,.76-.31,.09-.6,.25-.9,.38,0,.05,.02,.11,.03,.16,.6,.17,1.2,.3,1.78,.51,.31,.12,.78,.36,.8,.57,.05,.5-.49,.55-.87,.64-1.09,.25-2.19,.31-3.27-.09C.03,6.17-.29,5.4,.28,4.4c.42-.72,.93-1.39,1.44-2.06,.4-.53,1.02-.69,1.65-.83,1.67-.38,3.32-.86,5.01-1.14,3.09-.52,6.2-.44,9.3-.09,6.42,.74,12.55,2.55,18.36,5.36,5.11,2.48,9.82,5.57,13.75,9.73,2.54,2.69,4.58,5.7,5.64,9.3,1.34,4.53-.33,10.62-5.07,14.01-2.88,2.06-6.12,3.23-9.56,3.91-4.62,.91-9.22,.72-13.8-.38-.14-.03-.29-.05-.47-.08-.06,.41-.1,.78-.16,1.16-.17,1.14-.65,1.58-1.94,1.8-.97,.17-1.93-.21-2.29-1.11-.38-.94-.63-1.96-.8-2.96-.1-.57-.29-.88-.82-1.14-4.5-2.17-8.39-5.11-11.43-9.12-1.06-1.41-1.03-3.06,.18-4.37,1.11-1.21,2.57-1.9,4.04-2.54,2.47-1.08,5.06-1.82,7.71-2.29,.39-.07,.51-.2,.56-.6,.27-2.46,.56-4.92,.88-7.37,.06-.48,.25-.96,.45-1.41,.34-.76,.78-.82,1.35-.23,1.02,1.05,1.59,2.31,1.73,3.77,.14,1.46,.26,2.92,.39,4.38,.02,.28,.03,.56,.05,.87Zm-5.37,15.81c.3-3.68,.45-7.28,.38-11.04-2.22,.32-4.34,.54-6.44,.94-1.43,.27-2.84,.73-4.22,1.22-1.04,.38-1.22,1.25-.48,2.03,2.98,3.18,6.62,5.34,10.76,6.84Z"/>
      <path class="cls-2" d="M120.97,32.22c.15-.22,.26-.39,.38-.55,1.89-2.8,3.89-5.53,6.44-7.78,.81-.71,1.72-1.35,2.68-1.83,2.22-1.1,4.16-.27,4.94,2.09,.92,2.77,.69,5.52-.53,8.13-1.13,2.42-2.86,4.41-5.07,5.94-1.83,1.26-3.83,1.84-6.07,1.47-.15-.03-.43,.13-.49,.27-1.82,4.38-3.14,8.9-3.85,13.6-.08,.51-.15,1.02-.22,1.53-.16,1.13-.8,1.46-1.75,.81-1.79-1.21-2.74-2.95-2.83-5.1-.11-2.71,.57-5.3,1.45-7.82,.72-2.05,1.58-4.04,2.4-6.05,.14-.34,.16-.6-.02-.95-1.23-2.36-1.15-4.82-.37-7.28,1.07-3.37,3.03-6.17,5.62-8.55,.04-.04,.08-.09,.13-.11,.31-.11,.62-.21,.93-.31,.09,.3,.29,.61,.24,.88-.15,.81-.28,1.67-.63,2.4-.67,1.41-1.5,2.74-2.24,4.12-.71,1.32-1.2,2.72-1.25,4.24,0,.21,0,.42,.02,.63,0,.05,.03,.1,.09,.23Zm4.5,2.44c.05,.05,.1,.1,.15,.15,.09,0,.19,.02,.28,0,2.23-.45,4.2-1.36,5.66-3.17,1.15-1.43,1.96-3,1.94-4.89,0-.49,.09-1.08-.47-1.3-.55-.21-.93,.26-1.25,.62-1.06,1.23-2.16,2.42-3.11,3.73-1.14,1.56-2.14,3.23-3.19,4.85Z"/>
      <path class="cls-2" d="M77.45,20.23c1.27,.17,2.97,.38,4.67,.63,.35,.05,.69,.21,1.02,.37,.57,.28,.68,.61,.46,1.22-.36,.97-1.02,1.51-2.08,1.6-2.64,.22-5.29,.44-7.92,.72-1.51,.16-3.02,.44-4.52,.68-.22,.03-.47,.07-.65,.19-.22,.14-.37,.37-.56,.57,.21,.13,.41,.35,.64,.37,2.46,.25,4.94,.42,7.4,.73,1.39,.18,2.78,.47,4.11,.9,1.78,.58,2.78,1.95,2.91,3.8,.08,1.16-.04,2.36-.2,3.52-.12,.9-.64,1.69-1.44,2.11-3.81,1.99-7.77,2.65-11.91,1.08-1.34-.51-2.48-1.35-3.46-2.38-1.8-1.9-1.11-4.67,1.38-5.51,1.46-.49,2.98-.48,4.48-.3,1.3,.16,2.59,.44,3.87,.76,.58,.14,1.13,.46,1.63,.79,.6,.4,.59,.82,.03,1.29-.72,.6-1.6,.78-2.5,.86-1.54,.14-2.98-.2-4.37-.89-.62-.31-1.32-.47-2.01-.59-.3-.05-.71,.07-.95,.26-.85,.67-.72,1.59,.31,2,.64,.26,1.36,.41,2.05,.46,2.6,.19,5.15-.06,7.59-1.01,.65-.25,1.27-.63,1.82-1.06,.96-.75,.86-1.78-.28-2.23-1.09-.42-2.25-.76-3.41-.9-2.44-.28-4.9-.38-7.35-.61-.98-.1-1.95-.33-2.91-.57-.79-.2-1.19-.81-1.21-1.62-.09-2.91,.68-4.19,2.87-5.26,2.15-1.05,4.46-1.54,6.82-1.8,1.08-.12,2.17-.12,3.7-.19Z"/>
      <path class="cls-2" d="M108.4,27.62c1.65,0,3.23-.01,4.81,0,.96,.01,1.15,.23,1.16,1.21,0,.21,0,.42,0,.63-.03,1.15-.25,1.39-1.42,1.46-1.83,.11-3.66,.22-5.49,.3-.37,.02-.53,.15-.62,.5-.22,.83-.48,1.65-.72,2.47-.2,.69-.13,.76,.6,.63,1.76-.32,3.52-.65,5.29-.96,.45-.08,.91-.14,1.36-.17,1.08-.07,2.11,.79,2.1,1.86,0,.4-.25,.89-.54,1.18-1.19,1.21-2.66,2.03-4.18,2.76-1.42,.67-2.88,1.22-4.47,1.33-2.33,.15-4.57-1.82-4.75-4.16-.13-1.69,.3-3.28,.85-4.86,.1-.29,.07-.65,.03-.97-.07-.49-.25-.96-.29-1.45-.07-.85,.15-1.17,1.01-1.29,.66-.09,.98-.4,1.22-.98,.29-.72,.67-1.4,1.03-2.16-.28-.04-.48-.06-.68-.09-1.12-.18-1.91-.81-2.45-1.79-.43-.78-.31-1.17,.55-1.39,.81-.21,1.63-.38,2.46-.52,3.05-.52,6.12-.86,9.22-.86,.97,0,1.77,.32,2.37,1.04,.44,.52,.83,1.09,1.16,1.69,.44,.81,.18,1.35-.73,1.47-1.72,.23-3.45,.41-5.17,.59-.85,.09-1.71,.13-2.57,.16-.32,.01-.47,.15-.55,.45-.17,.62-.37,1.24-.58,1.92Z"/>
      <path class="cls-2" d="M88.65,28.44c-.06,.51-.16,1.01-.18,1.52-.12,2.25-.22,4.49-.35,6.74-.03,.47-.12,.95-.24,1.41-.22,.88-.76,1.34-1.58,1.41-.74,.06-1.6-.44-1.86-1.18-.22-.62-.38-1.29-.42-1.94-.23-4.01,.22-7.96,1.36-11.81,.2-.69,.5-1.37,.88-1.97,.73-1.16,1.69-1.25,2.65-.27,1.68,1.71,2.98,3.71,4.25,5.73,.74,1.18,1.47,2.36,2.21,3.54,.13,.21,.27,.42,.45,.59,.11,.11,.31,.23,.42,.2,.11-.03,.23-.26,.23-.4-.03-.68,0-1.38-.16-2.04-.76-3.32-1.57-6.63-2.35-9.94-.12-.5-.21-1.01-.2-1.52,0-.89,.52-1.16,1.28-.7,1.21,.74,2.14,1.77,2.91,2.95,1.37,2.1,2.07,4.44,2.39,6.91,.34,2.64,.21,5.25-.52,7.82-.25,.88-.71,1.64-1.43,2.23-1.14,.94-2.58,.96-3.63-.08-.74-.73-1.42-1.56-1.96-2.44-1.09-1.79-2.06-3.65-3.09-5.47-.26-.45-.54-.89-.82-1.33-.08,.02-.15,.04-.23,.06Z"/>
      <path class="cls-2" d="M57.74,16.75c-.33,.45-.59,.87-.92,1.23-.52,.56-1.08,.58-1.57,0-.72-.83-1.25-1.74-.91-2.91,.04-.14-.03-.36-.13-.48-1.43-1.68-1.68-3.53-.63-5.51,1.75-3.3,4.58-5.16,8.17-5.97,1.5-.34,3.01-.49,4.53-.11,.83,.21,1.59,.54,2.03,1.35,.06,.12,.26,.19,.41,.23,.18,.05,.38,.03,.57,.07,2.29,.45,3.3,2.06,2.73,4.34-.41,1.64-1.32,3.02-2.54,4.14-1.12,1.02-2.31,2.02-3.62,2.75-2.54,1.43-5.25,2.02-8.11,.86Zm1.51-3.13c.68,.3,2.55,.35,3.8,.16,2.56-.39,4.61-1.55,5.88-3.87,.23-.42,.34-.94,.37-1.41,.04-.78-.46-1.33-1.23-1.23-.83,.1-1.7,.29-2.45,.65-2.11,1.03-3.79,2.61-5.31,4.36-.37,.43-.7,.89-1.05,1.34Zm-3.23-1.64c1.36-2.02,2.93-3.71,4.95-5.21-2.44,.33-4.07,1.47-4.97,3.58-.21,.5-.33,1.01,.02,1.62Z"/>
      <path class="cls-2" d="M62.35,32.34c0,1.28,0,3.53,0,5.78,0,.02,0,.04,0,.06-.11,1.42-.47,1.87-1.6,1.93-1.19,.07-2.51-.26-2.68-1.69-.1-.85-.26-1.7-.28-2.56-.08-4.16-.02-8.32,.44-12.46,.06-.58,.19-1.17,.4-1.72,.4-1.09,1.38-1.22,2.11-.31,.71,.89,1.12,1.87,1.17,3.03,.1,2.32,.26,4.65,.44,7.94Z"/>
    </g>
  </g>
</svg>