<?xml version="1.0" encoding="UTF-8"?>
<svg id="Layer_1" data-name="Layer 1" xmlns="http://www.w3.org/2000/svg" viewBox="0 0 145.93 42.8">
  <defs>
    <style>
      .cls-1 {
        opacity: .5;
      }

      .cls-2 {
        fill: #00f3a1;
      }
    </style>
  </defs>
  <g class="cls-1">
    <g>
      <path class="cls-2" d="M29.9,42.7c-.11,.17-.27,.08-.41,.08-9.68,0-19.35,0-29.03,.02C0,42.8,0,42.6,0,42.27,0,28.18,0,14.09,0,0H29.83c0,14.04,0,28.08,0,42.13,0,.19-.07,.4,.07,.57ZM4.31,21.4c0,5.52,0,11.04-.01,16.57,0,.45,.13,.54,.56,.54,6.73-.01,13.46-.01,20.2,0,.44,0,.56-.11,.56-.55-.01-11.04-.01-22.09,0-33.13,0-.43-.13-.52-.54-.52-6.75,.01-13.49,.01-20.24,0-.42,0-.53,.12-.53,.53,.01,5.52,0,11.04,0,16.57Z"/>
      <path class="cls-2" d="M145.93,24.58c-.27,.38-.42,.83-.6,1.26-.14,.33-.22,.41-.59,.23-1.63-.83-3.26-.91-4.8,.25-.92,.7-1.45,1.67-1.7,2.77-.44,1.88-.32,3.71,.71,5.4,1.24,2.03,3.64,2.69,5.76,1.59,.38-.2,.5-.14,.6,.25,.09,.35,.23,.69,.39,1.02,.14,.28,.06,.42-.2,.57-2.54,1.45-6,.98-8.01-1.16-2.06-2.19-2.57-4.84-1.95-7.7,.59-2.73,2.2-4.63,4.93-5.43,1.94-.57,3.79-.3,5.47,.87v.09Z"/>
      <path class="cls-2" d="M29.9,42.7c-.14-.18-.07-.38-.07-.57,0-14.04,0-28.08,0-42.13h.09c0,14.13,0,28.25,0,42.38,0,.11-.01,.21-.02,.32Z"/>
      <path class="cls-2" d="M99.6,14.86v-.57c0-3.17,0-6.34-.01-9.51,0-.42,.12-.52,.51-.49,.36,.03,.73,.04,1.09,0,.45-.05,.51,.14,.51,.53-.02,2.55,0,5.1,0,7.65,0,2.09,0,4.19,0,6.28,0,.34-.07,.42-.43,.47-1.06,.16-1.65-.29-2.23-1.15-2.1-3.1-4.28-6.15-6.27-9.32-.01-.02-.04-.03-.11-.1,0,.19-.02,.35-.02,.5,0,3.19,0,6.37,0,9.56,0,.4-.1,.53-.5,.5-.42-.04-.85-.02-1.28,0-.26,.01-.34-.07-.33-.33,.01-.86,0-1.73,0-2.59,0-3.84,0-7.68,0-11.52,0-.38,.11-.43,.47-.48,1.02-.14,1.62,.27,2.2,1.12,2.09,3.05,4.25,6.06,6.21,9.2,.03,.05,.07,.1,.2,.26Z"/>
      <path class="cls-2" d="M47.7,14.88c0-1.63,0-3.13,0-4.63,0-1.85,0-3.7,0-5.55,0-.31,.07-.43,.4-.41,.45,.03,.91,.02,1.37,0,.26-.01,.34,.08,.34,.33-.01,.86,0,1.73,0,2.59,0,3.84,0,7.68,0,11.52,0,.39-.13,.43-.48,.48-1.01,.15-1.59-.27-2.16-1.1-2.11-3.1-4.28-6.15-6.27-9.32-.03-.05-.07-.09-.12-.14-.13,.14-.07,.3-.07,.44,0,3.22-.01,6.43,0,9.65,0,.37-.08,.51-.47,.47-.41-.04-.82-.03-1.23,0-.34,.02-.4-.11-.4-.41,0-4.69,0-9.38,0-14.07,0-.33,.09-.4,.42-.44,1.05-.15,1.67,.26,2.28,1.14,2.07,3.03,4.21,6.01,6.16,9.12,.05,.08,.1,.15,.23,.33Z"/>
      <path class="cls-2" d="M76.34,11.49c.03-1.78,.45-3.49,1.55-5,2.52-3.44,7.38-3.33,9.74,.24,1.28,1.94,1.59,4.09,1.26,6.36-.2,1.4-.64,2.71-1.49,3.86-1.07,1.47-2.52,2.28-4.34,2.43-2.69,.22-4.92-1.25-5.99-3.93-.5-1.26-.71-2.57-.74-3.96Zm2.73,.51c.02,.97,.18,2.36,.89,3.63,.59,1.06,1.48,1.67,2.72,1.66,1.25,0,2.16-.62,2.69-1.71,1.17-2.43,1.23-4.94,.23-7.44-.32-.81-.9-1.44-1.74-1.77-1.72-.67-3.45,.11-4.2,1.89-.45,1.05-.59,2.15-.58,3.74Z"/>
      <path class="cls-2" d="M71.59,31.07c-.05,1.67-.44,3.46-1.52,5.07-2.14,3.19-7.15,3.63-9.62,.05-1.91-2.76-2.04-7.17-.26-9.97,2.57-4.03,7.93-3.89,10.31,.27,.72,1.26,1.1,2.79,1.09,4.59Zm-2.74,.35c.02-1.66-.13-2.76-.58-3.81-.6-1.41-1.69-2.18-3.06-2.16-1.51,.02-2.43,.87-2.99,2.19-.33,.77-.49,1.59-.53,2.43-.08,1.7,.03,3.37,.88,4.9,1.18,2.11,3.91,2.21,5.23,.19,.85-1.29,1.02-2.76,1.05-3.73Z"/>
      <path class="cls-2" d="M128.63,31c0,2.35,0,4.7,0,7.05,0,.34-.09,.44-.43,.43-.59-.03-1.19-.02-1.78,0-.31,.01-.37-.1-.37-.39,.01-2.12,0-4.25,.01-6.37,0-.33-.07-.43-.42-.43-1.49,.02-2.98,.02-4.47,0-.38,0-.44,.12-.44,.46,.02,2.09,0,4.19,.02,6.28,0,.36-.09,.47-.45,.45-.58-.03-1.15-.02-1.73,0-.3,.01-.38-.08-.38-.38,.02-1.67,0-3.34,0-5.01,0-3.03,0-6.07,0-9.1,0-.37,.1-.46,.45-.44,.58,.03,1.16,.03,1.73,0,.31-.01,.38,.09,.38,.38-.01,1.64,0,3.28-.02,4.91,0,.37,.1,.45,.46,.45,1.49-.02,2.98-.02,4.47,0,.32,0,.41-.08,.4-.4-.02-1.62,0-3.25-.02-4.87,0-.37,.11-.46,.46-.44,.58,.03,1.16,.03,1.73,0,.33-.02,.39,.11,.39,.41-.01,2.34,0,4.67,0,7.01Z"/>
      <path class="cls-2" d="M95.25,38.47c-.91,0-1.74-.01-2.58,0-.26,0-.33-.14-.42-.33-.69-1.63-1.39-3.26-2.08-4.89-.14-.33-.99-.59-1.27-.38-.13,.1-.07,.26-.07,.38,0,1.58-.01,3.16,0,4.73,0,.36-.07,.51-.46,.49-.58-.04-1.15-.02-1.73,0-.29,.01-.39-.07-.38-.38,.02-1.27,0-2.55,0-3.82,0-3.43,0-6.86,0-10.28,0-.33,.06-.44,.42-.43,1.32,.03,2.64,.01,3.97,.02,.49,0,.97,.08,1.44,.22,1.51,.45,2.44,1.43,2.7,2.99,.37,2.23-.32,4.04-2.21,5.33-.26,.17-.2,.3-.1,.51,.9,1.87,1.79,3.74,2.69,5.61,.02,.05,.04,.1,.09,.22Zm-6.44-10.22c0,.8,0,1.6,0,2.41,0,.13-.08,.33,.19,.32,.59-.04,1.19,0,1.74-.27,1.4-.67,1.75-1.89,1.49-3.45-.14-.79-.65-1.31-1.41-1.58-.55-.19-1.11-.05-1.67-.11-.3-.03-.34,.1-.34,.36,.02,.77,0,1.54,0,2.32Z"/>
      <path class="cls-2" d="M83.89,34.77c0,.9,0,1.79,0,2.69,0,.18,.03,.35-.21,.44-1.84,.68-3.71,1.08-5.67,.65-2.47-.54-4.14-2.06-4.97-4.41-.99-2.79-.8-5.5,.94-7.98,2.01-2.87,6.13-3.71,9.06-1.9,.24,.15,.31,.26,.16,.53-.21,.37-.38,.76-.54,1.15-.1,.24-.19,.26-.42,.14-.83-.44-1.73-.67-2.67-.62-1.58,.07-2.84,.78-3.55,2.18-1.2,2.36-1.16,4.75,.24,7.02,1.03,1.67,2.92,2.33,4.62,1.76,.34-.11,.47-.26,.46-.64-.03-1.24,0-2.49-.02-3.73,0-.29,.06-.4,.37-.39,.62,.03,1.25,.02,1.87,0,.26,0,.34,.08,.33,.34-.01,.93,0,1.85,0,2.78Z"/>
      <path class="cls-2" d="M46.86,26.23c-.83-.46-1.67-.74-2.59-.77-1.77-.04-3.17,.67-3.95,2.26-1.19,2.4-1.11,4.82,.38,7.09,1.04,1.58,2.92,2.18,4.55,1.6,.31-.11,.44-.26,.44-.61-.03-1.26,0-2.52-.02-3.78,0-.26,.04-.37,.34-.36,.62,.03,1.25,.02,1.87,0,.26,0,.37,.05,.37,.34-.01,1.84,0,3.67,0,5.51,0,.18,0,.31-.22,.39-1.82,.67-3.68,1.08-5.62,.67-2.51-.53-4.22-2.07-5.03-4.46-1.05-3.11-.77-6.06,1.5-8.6,2.12-2.37,5.85-2.87,8.5-1.24,.24,.15,.31,.25,.16,.52-.25,.45-.44,.93-.68,1.44Z"/>
      <path class="cls-2" d="M105.89,38.42c-.45,0-1.03,.17-1.32-.05-.29-.22-.31-.81-.44-1.25-.24-.81-.48-1.63-.71-2.44-.06-.21-.14-.29-.37-.29-1.31,.01-2.61,.01-3.92,0-.25,0-.33,.1-.4,.32-.35,1.14-.73,2.28-1.08,3.42-.07,.24-.17,.35-.44,.33-.53-.02-1.06-.02-1.59,0-.28,0-.29-.09-.21-.32,1.17-3.36,2.33-6.72,3.5-10.08,.48-1.39,.96-2.77,1.43-4.17,.08-.25,.2-.36,.48-.35,.48,.03,.97,.02,1.46,0,.23,0,.35,.06,.42,.29,1.34,4.21,2.68,8.43,4.03,12.64,.17,.55,.35,1.1,.53,1.64,.08,.24,.07,.36-.23,.34-.38-.02-.76,0-1.14,0,0-.01,0-.02,0-.04Zm-3.01-5.86c-.56-1.99-1.1-3.95-1.68-6.03-.48,2.11-1.12,4.05-1.7,6.03h3.38Z"/>
      <path class="cls-2" d="M50.48,19.2c.24-.71,.47-1.38,.7-2.05,1.44-4.16,2.89-8.33,4.33-12.49,.1-.28,.23-.38,.52-.36,.45,.02,.91,.03,1.37,0,.33-.03,.44,.12,.53,.4,.97,3.11,1.96,6.21,2.94,9.32,.51,1.6,1,3.21,1.53,4.8,.12,.35,.03,.4-.3,.39-.68-.02-1.37-.02-2.05,0-.29,0-.42-.07-.5-.37-.31-1.12-.65-2.24-.96-3.36-.08-.28-.2-.35-.47-.35-1.26,.01-2.52,.01-3.78,0-.25,0-.37,.07-.45,.32-.34,1.13-.72,2.25-1.07,3.38-.08,.27-.2,.39-.5,.38-.59-.03-1.18,0-1.84,0Zm4.19-5.9c.76,0,1.48,.01,2.19,0,.39,0,.91,.18,1.11-.08,.18-.23-.14-.7-.24-1.06-.43-1.58-.88-3.16-1.35-4.86-.49,2.09-1.12,4.03-1.71,6.01Z"/>
      <path class="cls-2" d="M102.44,19.21c.35-1.01,.67-1.97,1-2.92,1.3-3.76,2.61-7.52,3.91-11.29,.24-.68,.23-.68,.96-.68,.02,0,.03,0,.05,0,.45,.03,1.02-.18,1.32,.09,.29,.27,.33,.82,.47,1.25,1.4,4.37,2.79,8.74,4.2,13.11,.11,.33,.12,.48-.31,.46-.7-.03-1.4-.02-2.1,0-.23,0-.34-.06-.41-.3-.31-1.14-.67-2.27-.98-3.41-.08-.3-.22-.37-.5-.36-1.25,.02-2.49,.01-3.74,0-.27,0-.39,.07-.48,.34-.34,1.15-.72,2.28-1.09,3.42-.05,.16-.07,.31-.31,.31-.65-.01-1.3,0-2,0Zm7.56-5.92c-.56-2-1.1-3.94-1.68-6.02-.48,2.12-1.12,4.05-1.7,6.02h3.38Z"/>
      <path class="cls-2" d="M108.18,31.01c0-2.34,0-4.67,0-7.01,0-.35,.08-.46,.45-.45,1.25,.03,2.49,0,3.74,.02,1.05,.01,2.05,.22,2.92,.86,.62,.45,1.04,1.06,1.27,1.79,1.14,3.71-1.51,6.66-4.67,6.64-.36,0-.83-.16-1.06,.06-.24,.24-.07,.72-.08,1.09-.01,1.36-.01,2.73,0,4.09,0,.28-.07,.37-.35,.36-.61-.02-1.22-.03-1.82,0-.32,.01-.4-.09-.4-.41,.01-2.35,0-4.7,0-7.05Zm2.57-2.74c0,.79,0,1.58,0,2.36,0,.13-.08,.35,.18,.33,.6-.04,1.22,.02,1.79-.25,1.39-.67,1.75-1.92,1.48-3.46-.14-.79-.66-1.31-1.42-1.58-.55-.19-1.12-.05-1.67-.11-.33-.03-.37,.11-.37,.39,.02,.77,0,1.55,0,2.32Z"/>
      <path class="cls-2" d="M50.55,31.01c0-2.34,0-4.67,0-7.01,0-.36,.09-.45,.45-.45,1.99,.02,3.98,.02,5.97,0,.36,0,.44,.1,.42,.43-.03,.42-.02,.85,0,1.27,.01,.26-.07,.33-.33,.33-1.17-.01-2.34,0-3.51-.01-.32,0-.45,.05-.44,.41,.03,1.09,.02,2.18,0,3.28,0,.32,.08,.41,.4,.41,1.14-.02,2.28,0,3.42-.02,.31,0,.38,.09,.37,.38-.02,.44-.02,.88,0,1.32,.01,.27-.08,.33-.34,.32-1.15-.01-2.31,0-3.47-.01-.29,0-.39,.06-.39,.37,.02,1.35,.02,2.7,0,4.05,0,.33,.11,.4,.42,.4,1.41-.01,2.83,0,4.24-.01,.28,0,.41,.05,.39,.37-.03,.45-.02,.91,0,1.37,0,.22-.07,.29-.29,.29-2.34,0-4.68,0-7.02,0-.36,0-.28-.23-.28-.43,0-2.35,0-4.7,0-7.06Z"/>
      <path class="cls-2" d="M64.93,12.71c0-2,0-4.01,0-6.01,0-.32-.09-.41-.41-.4-1.05,.02-2.1,0-3.15,.01-.3,0-.39-.08-.38-.38,.02-.44,.02-.88,0-1.32-.01-.25,.08-.31,.31-.31,3.25,0,6.5,0,9.76,0,.23,0,.33,.06,.32,.31-.02,.45-.02,.91,0,1.37,.01,.26-.08,.34-.34,.33-1.05-.01-2.1,0-3.15-.01-.35,0-.46,.08-.46,.45,.01,3.99,0,7.98,.02,11.97,0,.41-.11,.52-.51,.49-.53-.04-1.06-.03-1.59,0-.35,.02-.46-.07-.46-.44,.02-2.02,0-4.04,0-6.05Z"/>
      <path class="cls-2" d="M115.21,11.71c0-2.29,.02-4.58-.01-6.87,0-.49,.14-.59,.58-.55,.48,.04,.97,.03,1.46,0,.4-.03,.53,.07,.53,.51-.02,3.96,0,7.91-.02,11.87,0,.45,.13,.54,.55,.54,1.38-.03,2.76,0,4.15-.02,.27,0,.38,.05,.36,.34-.03,.47-.01,.94,0,1.41,0,.19-.06,.26-.26,.26-2.35,0-4.71,0-7.06,0-.33,0-.26-.21-.26-.4,0-2.37,0-4.73,0-7.1Z"/>
      <path class="cls-2" d="M74.8,11.75c0,2.34,0,4.67,0,7.01,0,.36-.09,.47-.45,.45-.59-.03-1.18-.02-1.78,0-.27,0-.33-.09-.33-.34,0-4.75,0-9.49,0-14.24,0-.26,.07-.34,.33-.34,.61,.02,1.22,.02,1.82,0,.33-.01,.4,.1,.4,.41-.01,2.35,0,4.7,0,7.05Z"/>
      <path class="cls-2" d="M131.07,31c0-2.32,.01-4.64-.01-6.96,0-.42,.12-.51,.51-.49,.56,.03,1.12,.02,1.69,0,.26,0,.37,.04,.37,.34-.01,4.75,0,9.5,0,14.24,0,.27-.08,.33-.33,.32-.61-.02-1.22-.02-1.82,0-.33,.01-.4-.1-.4-.41,.01-2.35,0-4.7,0-7.05Z"/>
    </g>
  </g>
</svg>