<?xml version="1.0" encoding="UTF-8"?>
<svg id="Layer_1" data-name="Layer 1" xmlns="http://www.w3.org/2000/svg" viewBox="0 0 158.98 48.83">
  <defs>
    <style>
      .cls-1 {
        opacity: .5;
      }

      .cls-2 {
        fill: #00f3a1;
      }
    </style>
  </defs>
  <g class="cls-1">
    <g>
      <path class="cls-2" d="M92.34,47.09c-.14,.05-.28,.03-.42,.03-3.38,0-6.76,0-10.14,0-.46,0-.46,.06-.46-.45,0-.71,0-1.43,0-2.14,0-.14,0-.27,0-.43-.23,.02-.27,.2-.36,.31-1.24,1.68-2.81,2.91-4.75,3.68-1.57,.62-3.19,.82-4.87,.71-3.07-.21-5.81-1.26-8.21-3.19-2.68-2.15-4.47-4.91-5.5-8.18-.28-.88-.49-1.78-.61-2.7-.01-.1-.04-.19-.05-.29-.01-.13-.09-.16-.2-.16-.1,0-.2,0-.29,0-6.94,0-13.88,0-20.82,0-.49,0-.52-.11-.47,.5,.2,2.88,2.49,5.4,5.36,5.84,1.16,.17,2.32,.1,3.46-.22,.8-.23,1.46-.7,2.01-1.32,.24-.27,.47-.56,.68-.85,.11-.15,.23-.23,.42-.21,.11,.01,.22,0,.34,0,3.21,0,6.42,0,9.63,0,.14,0,.28-.03,.41,.03,.04,.08,0,.14-.03,.2-1,2.39-2.36,4.55-4.28,6.32-2.05,1.89-4.47,3.06-7.18,3.65-1.99,.44-4,.57-6.02,.41-4.39-.34-8.2-1.97-11.25-5.2-2.19-2.31-3.52-5.07-4.08-8.19-.47-2.57-.38-5.13,.21-7.67,.02-.07,.05-.13,.01-.22-.1-.08-.23-.04-.35-.04-3.87,0-7.74,0-11.61,0-.5,0-.44,0-.44,.47,0,6.25,0,12.5,0,18.75q0,.59-.61,.59c-3.77,0-7.54,0-11.31,0-.11,0-.22,0-.34,0-.16,0-.23-.05-.23-.22,0-.1,0-.2,0-.29,0-15.33,0-30.66,0-45.99q0-.6,.59-.6c8.89,0,17.78,0,26.66,0,.6,0,.52-.05,.52,.51,0,3.17,0,6.33,0,9.5,0,.04,0,.08,0,.13q0,.36-.38,.36c-.14,0-.28,0-.42,0-4.63,0-9.25,0-13.88,0-.08,0-.17,0-.25,0-.36,0-.37,0-.37,.37,0,1.98,0,3.95,0,5.93,0,.41-.04,.4,.42,.4,4.33,0,8.66,0,13,0q.61,0,.61,.59c0,1.71,0,3.42,0,5.13,0,.09-.04,.19,.04,.27,.09-.03,.12-.12,.16-.18,2.23-3.64,5.47-5.9,9.55-6.99,2.14-.58,4.33-.74,6.54-.61,2.23,.14,4.38,.6,6.42,1.54,3.29,1.51,5.67,3.95,7.26,7.18,.38,.78,.7,1.59,.98,2.41,.03,.09,.05,.19,.14,.28,.16-.43,.3-.86,.46-1.28,1.24-3.16,3.2-5.77,6.05-7.65,1.98-1.31,4.15-2.07,6.51-2.3,1.74-.17,3.47-.09,5.18,.34,1.94,.49,3.6,1.46,4.98,2.9,.14,.14,.27,.28,.41,.42,0,0,.03,0,.05,.01,.12-.05,.08-.16,.08-.24,0-.45,0-.9,0-1.35,0-5.72,0-11.43,0-17.15,0-.55-.06-.5,.49-.5,3.36,0,6.73,0,10.09,0,.14,0,.28,.02,.42,.02,0,.11,0,.22,0,.34,0,15.42,0,30.83,0,46.25,0,.15,.01,.31,.02,.46Zm-24.28-15.07c0,1.73,.35,3.27,1.19,4.67,1.16,1.94,2.81,3.13,5.13,3.23,2.05,.09,3.77-.6,5.03-2.26,.5-.66,.86-1.41,1.1-2.2,.5-1.62,.58-3.27,.38-4.94-.15-1.22-.47-2.38-1.04-3.48-1.79-3.44-5.49-3.6-7.71-2.61-1.28,.57-2.2,1.53-2.87,2.73-.86,1.54-1.19,3.22-1.22,4.86Zm-20.69-4.59c-.22-1.15-.64-2.18-1.42-3.02-1.67-1.8-3.77-2.27-6.07-1.69-2.39,.6-3.72,2.3-4.33,4.63,0,.02,.02,.05,.03,.08h11.78Z"/>
      <path class="cls-2" d="M92.34,47.09c0-.15-.02-.31-.02-.46,0-15.42,0-30.83,0-46.25,0-.11,0-.22,0-.34,.15-.06,.3-.04,.46-.04,8.37,0,16.74,0,25.11,0,.61,0,.55-.04,.55,.54,0,3.15,0,6.31,0,9.46,0,.54,.04,.5-.5,.5-4.63,0-9.25,0-13.88,0-.07,0-.14,0-.21,0-.46,0-.46,0-.46,.46,0,1.92,0,3.84,0,5.76,0,.1,0,.2,0,.29,0,.15,.07,.2,.21,.19,.11,0,.22,0,.34,0,4.63,0,9.25,0,13.88,0,4.71,0,9.42,0,14.13,0,.34,0,.6,.08,.8,.34,.4,.5,.85,.96,1.28,1.44,.37,.41,.76,.82,1.12,1.24,.41,.47,.88,.89,1.25,1.4,.15,.2,.35,.35,.52,.54,.53,.59,1.04,1.2,1.6,1.76,.05,.05,.11,.1,.14,.16,.27,.44,.26,.5,.7,0,.95-1.08,1.9-2.16,2.83-3.25,.83-.97,1.71-1.91,2.52-2.92,.17-.21,.39-.36,.52-.6,.04-.08,.12-.11,.21-.1,.07,0,.14,0,.21,0,4.28,0,8.55,0,12.83,0,.09,0,.19-.03,.31,.04-.16,.2-.32,.41-.48,.6-.6,.68-1.21,1.35-1.81,2.02-1.92,2.17-3.84,4.34-5.76,6.5-1.59,1.79-3.18,3.58-4.77,5.38-.05,.05-.09,.11-.14,.16-.15,.13-.13,.25,0,.39,.33,.36,.65,.73,.98,1.1,2.99,3.34,5.97,6.69,8.96,10.03,.98,1.1,1.96,2.19,2.94,3.29,.09,.1,.18,.21,.26,.31-.07,.14-.18,.09-.27,.09-4.46,0-8.92,0-13.37,0-.27,0-.44-.11-.6-.3-1.95-2.2-3.91-4.4-5.87-6.59-.05-.05-.09-.1-.14-.16q-.25-.28-.49-.01c-.78,.88-1.55,1.77-2.33,2.64-.5,.56-1.01,1.11-1.51,1.67-.67,.76-1.33,1.53-1.98,2.3-.25,.29-.5,.45-.92,.45-4.33-.02-8.66-.02-12.99-.02-8.49,0-16.99,0-25.48,0-.22,0-.45,.02-.67-.03Zm26.14-.07c.24-.26,.46-.49,.67-.72,.77-.87,1.52-1.75,2.29-2.61,.81-.91,1.63-1.81,2.44-2.71,.25-.28,.5-.56,.75-.85,.51-.59,1.02-1.18,1.54-1.76,.56-.63,1.12-1.24,1.68-1.87,.55-.62,1.07-1.25,1.63-1.86,.7-.76,1.36-1.55,2.06-2.31,.13-.14,.1-.21,0-.35-.33-.43-.73-.81-1.08-1.23-.32-.37-.65-.73-.98-1.09-.55-.63-1.1-1.26-1.66-1.89-.54-.6-1.09-1.2-1.62-1.81-.64-.72-1.27-1.45-1.91-2.17-.69-.77-1.38-1.53-2.07-2.3-.64-.72-1.27-1.45-1.9-2.17-.32-.37-.64-.73-.97-1.1-.27-.31-.55-.61-.83-.91-.02,.01-.05,.02-.07,.03,0,.15,0,.3,0,.45,0,2.98,0,5.97,0,8.95,0,.61,.07,.55-.53,.55-4.64,0-9.28,0-13.92,0-.1,0-.2,0-.29,0-.29,.01-.3,.01-.3,.31,0,2.87,0,5.74,0,8.62,0,.33,0,.33,.32,.34,.07,0,.14,0,.21,0,4.26,0,8.52,0,12.78,0,.46,0,.93,0,1.39,0,.33,0,.33,0,.34,.32,0,.1,0,.2,0,.29,0,3.07,0,6.14,0,9.2,0,.19-.02,.38,.04,.63Z"/>
    </g>
  </g>
</svg>