<?xml version="1.0" encoding="UTF-8"?>
<svg id="Layer_1" data-name="Layer 1" xmlns="http://www.w3.org/2000/svg" viewBox="0 0 209.64 41.52">
  <defs>
    <style>
      .cls-1 {
        opacity: .5;
      }

      .cls-2 {
        fill: #00f3a1;
      }
    </style>
  </defs>
  <g class="cls-1">
    <g>
      <path class="cls-2" d="M0,33.23c.27-.03,.41-.25,.59-.4,3.08-2.51,6.15-5.02,9.22-7.53,.09-.07,.16-.19,.34-.18,0,1.28,.02,2.56,0,3.83,0,.36,.09,.45,.45,.45,4.07,.01,8.14,.05,12.21,.07,.29,0,.57,0,.85-.08,1.1-.3,1.46-1.51,.68-2.35-.42-.46-.97-.75-1.52-1.02-2.31-1.16-4.69-2.19-6.98-3.41-1.42-.77-2.78-1.62-3.93-2.77-1.94-1.95-2.6-4.36-2.44-7.03,.26-4.41,3.39-7.24,7.45-8.21,1.92-.46,3.87-.42,5.82-.41,3.14,0,6.28,.09,9.42,.16,.32,0,.37,.11,.37,.4-.01,2.39-.01,4.77,0,7.16,0,.33-.09,.4-.41,.4-3.82-.07-7.64-.12-11.47-.17-.24,0-.49,0-.73,.06-.53,.16-.88,.48-1,1.03-.12,.55,.05,1,.47,1.35,.6,.51,1.31,.83,2.01,1.17,2.05,.99,4.14,1.89,6.16,2.94,1.14,.59,2.25,1.23,3.27,2.01,1.96,1.48,3.14,3.4,3.36,5.88,.19,2.05,0,4.03-.96,5.88-1.26,2.44-3.38,3.77-5.97,4.46-1.12,.3-2.26,.38-3.41,.4-4.42,.06-8.85-.04-13.27-.07-.36,0-.46,.08-.45,.44,.02,1.28,0,2.55,0,3.84-.19,0-.27-.12-.37-.2-3.16-2.58-6.32-5.16-9.48-7.74-.09-.07-.15-.2-.3-.18v-.16Z"/>
      <path class="cls-2" d="M135.63,16.62c0,3.63,0,7.25,0,10.88,0,2.81-.86,5.28-2.88,7.27-1.55,1.53-3.46,2.4-5.57,2.82-2.89,.57-5.75,.52-8.55-.51-1.03-.38-1.98-.9-2.85-1.57-.16-.12-.26-.17-.45-.03-2.4,1.85-5.14,2.54-8.13,2.45-2.27-.07-4.48-.43-6.52-1.5-3.01-1.58-4.66-4.09-5.08-7.43-.07-.53-.08-1.06-.08-1.59,0-7.56,0-15.13,0-22.69,0-.34,.05-.46,.43-.45,2.95,.02,5.9,.02,8.85,0,.34,0,.43,.08,.43,.42-.01,7.48,.01,14.96-.02,22.45,0,1.88,1.15,2.46,2.46,2.51,.6,.02,1.2,0,1.77-.24,.78-.32,1.22-.88,1.28-1.73,.01-.2,.01-.41,.01-.61,0-7.44,0-14.88,0-22.32,0-.37,.09-.47,.47-.47,2.91,.02,5.82,.02,8.73,0,.41,0,.54,.07,.54,.52-.02,7.47,0,14.94-.03,22.41,0,1.81,1.17,2.4,2.38,2.45,.45,.02,.9,.01,1.34-.08,1.18-.25,1.79-.98,1.79-2.18,0-5.91,0-11.83,0-17.74,0-1.65,0-3.3,0-4.95,0-.3,.04-.42,.39-.41,2.98,.02,5.95,.02,8.93,0,.34,0,.39,.11,.39,.41,0,3.98,0,7.96,0,11.94Z"/>
      <path class="cls-2" d="M88.73,19.89c.55,.33,1.07,.65,1.54,1.04,1.7,1.38,2.69,3.16,2.9,5.34,.23,2.26-.08,4.44-1.21,6.44-1.4,2.49-3.64,3.83-6.36,4.45-1.11,.25-2.23,.34-3.37,.34-5.27,0-10.54,0-15.81,0-.34,0-.46-.06-.46-.44,.01-10.79,.01-21.58,0-32.38,0-.3,.04-.42,.39-.42,5.24,.01,10.48,0,15.73,.02,1.64,0,3.23,.26,4.76,.86,3.57,1.4,5.58,4.43,5.52,8.3-.04,2.61-1.22,4.61-3.26,6.15-.12,.09-.23,.18-.38,.29Zm-13.04,7.05c0,.95,0,1.91,0,2.86,0,.18,0,.31,.25,.31,1.64-.01,3.27,.03,4.91-.03,1.29-.05,2.06-.71,2.37-1.87,.19-.73,.21-1.48,.06-2.22-.3-1.45-1.16-2.15-2.64-2.16-1.53,0-3.05,0-4.58-.01-.32,0-.39,.09-.38,.39,.02,.91,0,1.82,0,2.74Zm2.51-9.49c.68,0,1.36,0,2.04,0,.04,0,.08,0,.12,0,1.13-.04,1.9-.64,2.22-1.71,.21-.7,.22-1.42,.09-2.14-.23-1.3-.93-2-2.25-2.06-1.5-.06-3-.02-4.5-.03-.25,0-.25,.13-.25,.31,0,1.78,0,3.57,0,5.35,0,.24,.08,.29,.31,.29,.74-.01,1.47,0,2.21,0Z"/>
      <path class="cls-2" d="M138.62,25.03c0-3.82-.05-7.63,.01-11.45,.07-3.96,2.06-6.76,5.51-8.57,2.49-1.31,5.19-1.71,7.96-1.7,2.7,.01,5.33,.44,7.75,1.71,2.9,1.52,4.78,3.82,5.36,7.09,.1,.59,.13,1.19,.13,1.79,0,7.73,0,15.45,0,23.18,0,.34-.09,.42-.42,.42-2.95-.01-5.9-.02-8.85,0-.38,0-.43-.12-.43-.46,.01-2.93,0-5.86,.02-8.79,0-.37-.09-.45-.45-.44-2.17,.02-4.34,.01-6.51,0-.31,0-.41,.06-.41,.4,.01,2.92,0,5.83,.02,8.75,0,.39-.12,.46-.47,.45-2.94-.01-5.87-.01-8.81,0-.33,0-.43-.07-.43-.42,.01-3.99,0-7.99,0-11.98h0Zm13.36-4.79c1.12,0,2.24,0,3.36,0,.2,0,.33,0,.32-.27-.01-1.91,0-3.81-.02-5.72-.01-1.1-.57-1.89-1.6-2.29-1.29-.49-2.62-.49-3.93-.09-1.21,.37-1.8,1.21-1.81,2.46,0,1.85,0,3.7,0,5.56,0,.3,.1,.35,.37,.35,1.1-.01,2.21,0,3.31,0Z"/>
      <path class="cls-2" d="M199.61,16.4c0-1.22-.02-2.42,.01-3.63,0-.39-.08-.5-.48-.49-1.21,.03-2.43,0-3.65,.01-.74,0-.95,.21-.95,.95,0,1.69,.01,3.38,0,5.07-.04,3.43-1.6,6.01-4.46,7.83-1.06,.68-2.21,1.18-3.43,1.51-.41,.11-.5,.29-.5,.7,.02,2.86,0,5.72,.02,8.59,0,.35-.06,.48-.45,.47-3-.02-6.01-.02-9.01,0-.33,0-.43-.07-.43-.42,.01-2.93,0-5.86,.02-8.79,0-.3-.08-.42-.38-.5-2.06-.62-3.95-1.56-5.49-3.11-1.71-1.71-2.59-3.79-2.61-6.2-.02-4.59,0-9.19-.02-13.78,0-.3,.09-.35,.37-.35,2.94,0,5.87,.01,8.81,0,.35,0,.45,.07,.45,.44-.02,4.06,.03,8.12-.03,12.18-.03,1.99,1.14,2.8,2.49,3.06,1.08,.2,2.15,.17,3.19-.21,1.19-.44,1.77-1.29,1.77-2.56,0-1.8-.01-3.6,0-5.4,.01-1.33,.24-2.63,.82-3.84,1.02-2.13,2.79-3.24,5.05-3.66,.77-.14,1.54-.18,2.32-.18,2.05,0,4.1,0,6.14,0,.35,0,.43-.1,.42-.43-.02-1.22,0-2.45,0-3.67,.15-.05,.21,.07,.29,.13,3.18,2.6,6.35,5.2,9.54,7.79,.29,.24,.25,.33-.01,.55-3.15,2.56-6.3,5.14-9.45,7.71-.1,.08-.18,.2-.37,.22Z"/>
      <path class="cls-2" d="M36,16.75c0-4.01,0-8.01,0-12.02,0-.34,.06-.46,.44-.46,3,.02,6.01,.02,9.01,0,.36,0,.45,.08,.45,.44-.01,7.33,0,14.66,0,22,0,1.94,.84,2.91,2.78,3.15,.9,.11,1.8,.09,2.67-.23,1.27-.46,1.9-1.34,1.9-2.7,0-7.39,0-14.77,0-22.16,0-.42,.1-.51,.51-.51,2.91,.02,5.82,.02,8.73,0,.36,0,.47,.07,.47,.46-.01,7.56-.04,15.13,0,22.69,.02,3.91-1.74,6.74-5.01,8.72-1.98,1.2-4.19,1.76-6.48,1.97-2.63,.24-5.24,.07-7.77-.73-2.59-.81-4.77-2.19-6.27-4.52-1-1.56-1.42-3.28-1.42-5.12,0-3.67,0-7.33,0-11Z"/>
    </g>
  </g>
</svg>