<?xml version="1.0" encoding="UTF-8"?>
<svg id="Layer_1" data-name="Layer 1" xmlns="http://www.w3.org/2000/svg" viewBox="0 0 158.92 49.51">
  <defs>
    <style>
      .cls-1 {
        opacity: .5;
      }

      .cls-2 {
        fill: #00f3a1;
      }
    </style>
  </defs>
  <g class="cls-1">
    <g>
      <path class="cls-2" d="M0,37.92c.17,.02,.18-.1,.19-.22,.14-1.62,.77-3.1,1.43-4.56,3.48-7.7,7.2-15.29,11.05-22.82,1.09-2.13,2.06-4.33,3.39-6.33C17.48,1.83,19.44,.42,22.04,.08c3.2-.42,5.75,.8,7.71,3.31,1.13,1.44,1.86,3.11,2.7,4.72,1.98,3.81,3.92,7.64,5.8,11.5,1.76,3.61,3.48,7.23,5.17,10.87,.81,1.74,1.66,3.45,2.27,5.27,1.52,4.53-.79,10.89-6.31,12.99-.98,.37-1.98,.65-3.03,.68-.08,0-.17,0-.22,.08h-1.29c-.05-.09-.13-.09-.21-.09-2.14-.17-4.08-.9-5.9-2.02-2.02-1.24-3.74-2.82-5.35-4.54-.23-.25-.36-.28-.6,0-.84,.92-1.72,1.78-2.67,2.59-2.05,1.74-4.29,3.14-6.96,3.73-.64,.14-1.29,.23-1.93,.34h-1.29c-.05-.09-.13-.08-.21-.09-4.8-.48-8.42-3.75-9.43-8.51-.04-.18-.06-.36-.28-.42v-2.58Zm14.68-11.31c-.01-1.61,.32-3.13,1.2-4.48,1.98-2.99,4.84-4.18,8.36-3.83,4.21,.43,7.29,3.84,7.31,8.06,.01,2.87-.96,5.47-2.28,7.96-1.07,2-2.37,3.85-3.79,5.62-.12,.15-.32,.26-.08,.52,1.57,1.69,3.22,3.28,5.22,4.46,1.96,1.16,4.06,1.79,6.35,1.35,4.53-.87,7.14-5.47,5.63-9.9-.65-1.93-1.59-3.74-2.44-5.58-2.77-5.97-5.65-11.9-8.63-17.77-1.19-2.34-2.3-4.72-3.65-6.98-1.55-2.59-4.32-3.47-6.92-2.25-1.36,.63-2.2,1.77-2.86,3.05-1.91,3.7-3.82,7.39-5.69,11.1-2.67,5.31-5.21,10.68-7.7,16.08-.61,1.32-1.2,2.64-1.38,4.11-.44,3.41,1.53,6.69,4.75,7.84,2.32,.83,4.56,.51,6.72-.56,2.37-1.17,4.25-2.95,6.02-4.86,.26-.28,.08-.42-.07-.62-1.76-2.24-3.36-4.58-4.53-7.19-.88-1.96-1.51-3.98-1.54-6.15Zm8.44-5.35c-2.53,0-4.64,1.61-5.1,3.93-.3,1.5-.08,2.96,.39,4.39,.96,2.93,2.63,5.46,4.49,7.87,.24,.31,.36,.14,.51-.06,.78-1.03,1.53-2.07,2.2-3.17,1.32-2.18,2.49-4.43,2.73-7.04,.32-3.42-1.83-5.91-5.22-5.92Z"/>
      <path class="cls-2" d="M158.92,28.7c-.15,.63-.27,1.28-.45,1.9-1.28,4.47-5.88,7.39-10.47,6.63-1.18-.2-2.23-.7-3.13-1.5-.09-.08-.15-.22-.38-.24,0,.21,.01,.42,0,.62-.04,.46-.3,.73-.77,.74-1.21,.01-2.41,0-3.62,0-.26,0-.36-.09-.33-.35,0-.08,0-.16,0-.25,0-8.8,0-17.6-.01-26.4,0-.46,.08-.62,.58-.61,1.21,.04,2.41,.04,3.62,0,.5-.02,.59,.15,.59,.61-.02,3.04-.01,6.08-.01,9.11v.55c.07,0,.13,.02,.16,0,1.94-1.84,4.28-2.12,6.75-1.57,4.14,.93,6.9,4.09,7.39,8.34,0,.08,.05,.15,.08,.22v2.18Zm-14.39-1.22c0,.84,.06,1.69-.02,2.52-.07,.76,.27,1.25,.82,1.68,1.89,1.47,3.95,1.49,6.02,.52,2.03-.95,2.82-2.72,2.8-4.89-.03-2.24-1.26-4.01-3.3-4.77-2.22-.83-4.6-.31-6.06,1.31-.19,.21-.27,.43-.26,.71,.01,.97,0,1.95,0,2.92Z"/>
      <path class="cls-2" d="M103.85,35.4q-.12,1.45-1.5,1.45c-.93,0-1.85-.02-2.78,0-.38,.01-.51-.09-.5-.49,.02-1.98,0-3.96,0-5.95,0-6.87,0-13.74,0-20.61,0-.43,.09-.57,.54-.55,1.24,.03,2.48,.03,3.72,0,.41,0,.52,.1,.52,.52-.02,3.14,0,6.28,0,9.41v.36c.08-.01,.14,0,.16-.02,1.96-1.85,4.31-2.09,6.81-1.56,4.84,1.04,7.95,5.49,7.35,10.74-.38,3.33-1.97,5.9-4.94,7.5-2.19,1.18-4.53,1.52-6.95,.75-.91-.29-1.69-.81-2.42-1.55Zm0-7.96c0,.91,.03,1.82-.01,2.72-.02,.51,.14,.89,.5,1.22,.41,.38,.86,.72,1.37,.96,3.79,1.75,7.86-.92,7.76-5.11-.05-2.21-1.29-3.98-3.3-4.72-2.23-.82-4.61-.29-6.06,1.33-.19,.21-.27,.43-.26,.71,.01,.96,0,1.91,0,2.87Z"/>
      <path class="cls-2" d="M70.45,19.62q.14-1.4,1.48-1.41c.96,0,1.92,0,2.88,0,.31,0,.44,.06,.43,.4-.01,5.94,0,11.89,0,17.83,0,.33-.1,.42-.42,.42-1.09-.02-2.18,0-3.27,0-.85,0-1.04-.18-1.05-1.05,0-.1,0-.2-.01-.31-.06,.01-.12,0-.14,.03-1.64,1.63-3.66,2.02-5.86,1.75-6.09-.73-9.54-6.46-8.09-12.36,1.33-5.39,6.5-7.88,10.91-7.01,1.19,.24,2.22,.81,3.15,1.72Zm.04,7.95c0-.86-.06-1.72,.02-2.57,.06-.75-.27-1.21-.81-1.63-1.86-1.43-3.87-1.52-5.93-.59-1.93,.87-2.78,2.49-2.9,4.54-.14,2.55,1.38,4.7,3.77,5.32,2.08,.54,3.97,.25,5.52-1.37,.23-.24,.34-.5,.33-.84-.02-.96,0-1.91,0-2.87Z"/>
      <path class="cls-2" d="M124.71,19.66c1.05-1,2.2-1.59,3.52-1.8,2.63-.41,5.03,.07,7.05,1.93,1.21,1.11,1.72,2.54,1.91,4.13,.16,1.3,.1,2.6,.1,3.91,.01,2.86,0,5.71,.01,8.57,0,.41-.11,.53-.52,.52-1.24-.03-2.48-.03-3.72,0-.43,.01-.56-.1-.56-.54,.02-3.42,.01-6.84,0-10.25,0-.73-.08-1.45-.31-2.14-.39-1.17-1.26-1.73-2.44-1.89-1.67-.22-3.14,.25-4.39,1.37-.28,.25-.4,.51-.4,.9,.02,3.96,0,7.93,.02,11.89,0,.47-.11,.62-.59,.61-1.26-.04-2.51-.02-3.77,0-.33,0-.42-.09-.42-.42,0-5.94,0-11.89,0-17.83,0-.35,.13-.41,.44-.4,1.01,.01,2.02,0,3.03,0,.79,0,1,.21,1.01,.99,0,.11,.01,.22,.03,.46Z"/>
      <path class="cls-2" d="M90.66,19.65c1.12-1.04,2.33-1.67,3.75-1.88,.81-.12,1.61-.01,2.42,.12,.27,.04,.34,.19,.33,.45,0,1.22-.01,2.44,0,3.66,0,.33-.09,.37-.4,.3-1.77-.4-3.48-.31-5.06,.7-.68,.43-1.03,.94-1.02,1.85,.07,3.85,.02,7.69,.04,11.54,0,.44-.11,.56-.55,.55-1.27-.03-2.55-.02-3.82,0-.33,0-.42-.1-.42-.42,0-5.96,0-11.92,0-17.88,0-.34,.11-.42,.43-.41,1.07,.02,2.15,0,3.22,0,.86,0,1.04,.18,1.06,1.04,0,.09,.01,.19,.02,.4Z"/>
      <path class="cls-2" d="M82.97,27.56c0,2.92,0,5.85,0,8.77,0,.41-.1,.54-.52,.53-1.27-.03-2.55-.02-3.82,0-.34,0-.45-.09-.45-.44,.01-5.93,0-11.86,0-17.79,0-.32,.08-.43,.41-.43,1.29,.02,2.58,.02,3.87,0,.39,0,.5,.09,.5,.49-.02,2.96,0,5.91,0,8.87Z"/>
      <path class="cls-2" d="M83.79,12.42c0,1.8-1.4,3.22-3.19,3.22-1.82,0-3.27-1.44-3.26-3.22,.02-1.78,1.47-3.24,3.22-3.22,1.78,.02,3.22,1.46,3.23,3.22Z"/>
    </g>
  </g>
</svg>