<?xml version="1.0" encoding="UTF-8"?>
<svg id="Layer_1" data-name="Layer 1" xmlns="http://www.w3.org/2000/svg" viewBox="0 0 268.83 326.7">
  <defs>
    <style>
      .cls-1 {
        opacity: .1;
      }

      .cls-1, .cls-2 {
        fill: #00f3a1;
      }
    </style>
  </defs>
  <path class="cls-2" d="M268.8,178.2c0,36.81-.05,73.62,.03,110.42,.03,14.32-5.97,25.22-17.94,32.88-5.23,3.35-11.13,4.72-17.27,5.13-.87,.06-1.74,.05-2.6,.05-64.41,0-128.82,.05-193.23-.03-15.98-.02-27.7-7.29-34.62-21.84C1.09,300.47,.01,295.81,.01,290.97,0,215.62-.01,140.27,.02,64.92,.03,47.59,14.31,31.61,31.39,29.75c9.86-1.07,19.77-.34,29.65-.38,2.63-.01,3.63-.69,4.35-3.31C69.44,11.17,83.63,.21,99.1,.1c21.87-.15,43.75-.13,65.62-.02,15.74,.08,29.93,10.88,34.25,26.01,.73,2.58,1.78,3.32,4.42,3.27,9.02-.19,18.05-.08,27.08-.07,18.69,.02,32.71,10.87,37.41,28.94,.79,3.05,.93,6.15,.93,9.28-.02,36.89-.01,73.79-.01,110.68ZM185.51,36.53c0-1.56,.08-3.12-.34-4.65-2.85-10.57-11.07-17.16-21.99-17.21-20.83-.1-41.65-.08-62.48,0-6.01,.02-11.34,2.03-15.78,6.29-8.38,8.05-9.02,21.99-1.25,29.74,3.55,4.71,8.4,7.55,14.16,7.62,22.22,.25,44.44,.12,66.66,.17,11.12,.02,21.74-10.28,21.01-21.97Zm-104.66,32.06c-8.3-5.46-14.05-12.79-16.45-22.54-.35-1.41-1.09-1.68-2.39-1.67-8.24,.05-16.49-.05-24.73,.06-3.47,.05-6.9,.61-10.08,2.19-8.82,4.38-12.59,11.76-12.6,21.32-.01,73.68,0,147.37,0,221.05,0,.78,0,1.56,.03,2.34,.49,9.73,6.82,17.71,16.22,20.3,3.88,1.07,7.9,.92,11.88,.91,15.27-.04,30.54-.08,45.81-.11,.26,.04,.51,.1,.77,.1,47.4,0,94.8,.09,142.2-.04,13.5-.04,22.69-9.61,22.69-22.97,.02-73.97,.02-147.94,0-221.91,0-13.64-9.36-23.08-23.05-23.21-9.98-.09-19.97,.01-29.95-.05-1.67-.01-2.37,.48-2.82,2.19-2.17,8.35-6.79,15.1-13.73,20.27-6.99,5.21-14.97,7.05-23.49,7.06-18.58,.02-37.16-.1-55.74,.05-8.65,.07-16.95-1-24.59-5.34Z"/>
  <path class="cls-1" d="M80.84,68.59c7.64,4.35,15.93,5.41,24.59,5.34,18.58-.15,37.16-.03,55.74-.05,8.53,0,16.51-1.85,23.49-7.06,6.94-5.17,11.56-11.92,13.73-20.27,.44-1.71,1.15-2.2,2.82-2.19,9.98,.06,19.97-.04,29.95,.05,13.69,.13,23.05,9.57,23.05,23.21,.02,73.97,.02,147.94,0,221.91,0,13.36-9.19,22.93-22.69,22.97-47.4,.13-94.8,.05-142.2,.04-.26,0-.51-.07-.77-.1-.18-1.07-.83-1.86-1.5-2.67-3.98-4.82-6.33-10.25-6.3-16.62,.04-9.8,0-19.61,0-29.41,7.63-.03,15.25-.06,22.88-.08,5.6-.02,7.79-1.8,8.93-7.3,3.12,0,6.24-.06,9.36,.03,1.6,.04,2.1-.59,2.09-2.14-.04-14.91-.04-29.83,0-44.74,0-1.55-.49-2.18-2.1-2.14-3.12,.09-6.24,.03-9.36,.03-1.2-5.15-3.76-7.22-8.91-7.24-7.63-.03-15.26-.06-22.89-.09,0-14.07,0-28.15,0-42.22,8.92-8.98,17.83-17.96,26.74-26.95,1.04-1.05,2.13-2.06,3.03-3.22,1.82-2.35,1.93-4.94,.68-7.59-1.24-2.62-3.41-3.77-6.25-3.92-2.68-.14-4.6,1.2-6.38,2.97-5.9,5.88-11.81,11.74-17.71,17.6-.04-4.16-.11-8.32-.1-12.48,.02-18.56,.06-37.12,.09-55.67Zm92.35,77.83c11.62,0,23.24,0,34.85,0,3.88,0,6.95-2.91,7.15-6.76,.24-4.72-3.13-7.85-8.58-7.85-22.02-.02-44.05-.01-66.07,0-1.11,0-2.26,.14-3.33,.42-3.71,.96-5.92,4.33-5.37,8.06,.5,3.42,3.71,6.12,7.28,6.12,11.36,0,22.72,0,34.07,0Zm.3,92.8c5.03,0,10.06,0,15.09,0,6.24,0,12.49,.06,18.73-.03,3.98-.06,6.97-2.77,7.35-6.37,.4-3.87-1.72-6.74-5.67-7.82-1.29-.35-2.56-.37-3.86-.37-18.73,0-37.47,0-56.2,0-2.86,0-5.73-.06-8.59,.02-4.48,.12-7.8,2.91-8,6.59-.25,4.69,2.89,7.96,7.85,7.98,11.1,.04,22.2,.01,33.3,.02Z"/>
  <path class="cls-1" d="M171.46,36.51c4.68,0,9.36,.01,14.05,.02,.73,11.68-9.89,21.99-21.01,21.97-22.22-.04-44.44,.08-66.66-.17-5.76-.06-10.61-2.91-14.16-7.62,2.81-4.1,6.72-7.14,10.15-10.64,1.83,2.76,4.32,3.87,7.69,3.85,20.29-.1,40.58-.05,60.88-.05,6.03,0,7.79-1.43,9.06-7.36Z"/>
  <path class="cls-2" d="M80.74,263.74c-7.81-.03-15.62-.06-23.42-.09-5.48-.02-8.4-2.87-8.4-8.29-.02-15.62-.02-31.24,0-46.86,0-5.32,3.03-8.3,8.41-8.33,7.81-.04,15.62-.07,23.42-.1,7.63,.03,15.26,.06,22.89,.09,5.16,.02,7.71,2.09,8.91,7.24,0,16.32,0,32.64,0,48.96-1.14,5.5-3.33,7.28-8.93,7.3-7.63,.02-15.25,.06-22.88,.08Zm-17.24-31.97h.06c0,5.03,.06,10.07-.03,15.1-.03,1.66,.41,2.25,2.16,2.24,9.89-.08,19.79-.07,29.68,0,1.67,.01,2.25-.46,2.24-2.2-.07-9.98-.07-19.96,0-29.94,.01-1.72-.54-2.24-2.23-2.23-9.89,.06-19.79,.06-29.68,0-1.67-.01-2.27,.46-2.24,2.2,.11,4.94,.04,9.89,.04,14.84Z"/>
  <path class="cls-2" d="M173.19,146.42c-11.36,0-22.72,0-34.07,0-3.57,0-6.78-2.7-7.28-6.12-.55-3.73,1.66-7.1,5.37-8.06,1.08-.28,2.22-.42,3.33-.42,22.02-.02,44.05-.03,66.07,0,5.46,0,8.83,3.13,8.58,7.85-.2,3.84-3.27,6.76-7.15,6.76-11.62,0-23.24,0-34.85,0Z"/>
  <path class="cls-2" d="M173.49,239.22c-11.1,0-22.2,.03-33.3-.01-4.95-.02-8.1-3.29-7.85-7.98,.2-3.68,3.52-6.47,8-6.59,2.86-.08,5.72-.02,8.59-.02,18.73,0,37.47,0,56.2,0,1.3,0,2.58,.02,3.86,.37,3.95,1.08,6.08,3.95,5.67,7.82-.38,3.61-3.36,6.31-7.35,6.37-6.24,.09-12.49,.03-18.73,.03-5.03,0-10.06,0-15.09,0Z"/>
  <path class="cls-2" d="M80.74,157.85c-.7,.64-1.44,1.25-2.1,1.92-3.61,3.64-7.83,3.76-11.56,.12-5.1-4.97-10.13-10.01-15.1-15.1-3.05-3.13-3.04-7.62-.16-10.5,2.79-2.8,7.41-2.67,10.5,.36,2.97,2.92,5.93,5.86,8.8,8.88,1.09,1.15,1.81,1.5,3.03,.12,2.13-2.39,4.46-4.61,6.71-6.9,5.9-5.87,11.81-11.73,17.71-17.6,1.77-1.77,3.7-3.11,6.38-2.97,2.83,.15,5.01,1.29,6.25,3.92,1.25,2.65,1.14,5.24-.68,7.59-.9,1.16-1.99,2.17-3.03,3.22-8.91,8.99-17.83,17.97-26.74,26.95Z"/>
  <path class="cls-2" d="M171.46,36.51c-1.27,5.93-3.03,7.36-9.06,7.36-20.29,0-40.58-.05-60.88,.05-3.38,.02-5.87-1.09-7.69-3.85-1.9-6.6,1.22-10.78,8.05-10.78,20.14,0,40.28,0,60.42,0,5.45,0,7.87,1.93,9.17,7.22Z"/>
</svg>