<?xml version="1.0" encoding="UTF-8"?>
<svg id="Layer_1" data-name="Layer 1" xmlns="http://www.w3.org/2000/svg" viewBox="0 0 350.59 314.28">
  <defs>
    <style>
      .cls-1 {
        opacity: .1;
      }

      .cls-1, .cls-2 {
        fill: #00f3a1;
      }
    </style>
  </defs>
  <path class="cls-2" d="M76.57,184.23c-5.52,6.97-10.6,13.36-15.66,19.77-5.59,7.09-11.14,14.22-16.74,21.3-4.57,5.78-10.72,7.3-16.21,3.88-4.11-2.56-5.49-6.6-5.49-11.23,0-13.98-.03-27.95,.03-41.93,0-1.68-.32-2.64-2.1-3.32C7.8,167.95,.17,156.99,.04,143.51c-.09-9.13-.02-18.26-.02-27.39,0-28.23-.02-56.46,0-84.69C.05,16.13,9.76,3.97,24.63,.74,27.25,.17,29.99,.04,32.68,.03,91.38,0,150.07-.01,208.77,.02c15.37,0,27.18,8.17,31.24,21.46,1.04,3.4,1.53,6.9,1.54,10.45,.02,5.78,.13,11.56-.06,17.33-.08,2.43,.54,3.1,3.04,3.09,24.04-.1,48.08-.12,72.11-.04,14.83,.05,27.27,8.96,32.18,22.9,1.18,3.34,1.74,6.85,1.74,10.41,0,43.32,.06,86.65-.02,129.97-.03,15.3-8.85,27.34-23.36,32.3-1.8,.62-2.38,1.4-2.37,3.31,.09,16.96,.1,33.91,.03,50.87-.04,8.88-8.21,14.49-16.22,11.3-2.53-1.01-4.25-2.98-5.86-5.03-12.74-16.15-25.47-32.31-38.2-48.47-1.84-2.34-3.88-4.56-5.48-7.05-1.68-2.6-3.82-3.24-6.8-3.24-46.96,.08-93.92,.06-140.87,.06-12.94,0-23.04-5.32-29.93-16.32-3.16-5.05-4.88-10.65-4.89-16.67-.03-10.53,0-21.06,0-32.43Zm-3.63-21.09c3.04-1.33,3.72-3.62,3.7-6.89-.16-23.1-.13-46.21-.07-69.31,.03-12.78,5.22-22.87,16.2-29.68,5.67-3.51,11.9-5.02,18.61-5,36.98,.07,73.97,.01,110.95,.09,2.36,0,3.25-.43,3.15-3.02-.22-5.58-.06-11.18-.07-16.77-.01-10.71-5.87-16.54-16.61-16.54-47.14,0-94.28,0-141.42,0-1.77,0-3.54,.05-5.3,.07-10.06-.03-20.12-.08-30.18-.07-9.55,.02-15.68,6.17-15.73,15.75-.04,8.01,0,16.02,0,24.03,0,29.06-.02,58.12,.01,87.18,0,8.74,5.63,14.95,13.9,15.56,5.63,.42,8.51,3.52,8.52,9.25,.01,11.74,0,23.47,0,35.21,0,.87,0,1.75,0,3.32,11.78-14.82,23.06-29.01,34.33-43.21Zm241.89,71.53c13.51-.04,20.85-9.33,20.77-21.65-.29-41.44-.33-82.88,.02-124.32,.11-13.08-9.02-21.48-21.21-21.4-54.66,.36-109.33,.16-164,.16-1.86,0-3.72,.05-5.58,.07-10.99-.03-21.98-.07-32.98-.07-12.31,0-20.12,7.76-20.12,20.04-.01,42.3-.01,84.59,0,126.89,0,11.86,7.45,19.83,19.28,20.09,11.64,.25,23.28-.01,34.92-.05,.83,.05,1.67,.13,2.5,.13,17.22,0,34.43,0,51.65,0,17.87,0,35.73,.12,53.6-.07,7.02-.07,12.38,2.55,16.57,8.04,2.93,3.85,5.97,7.62,8.98,11.4,8.28,10.4,16.58,20.79,24.87,31.19,1.51,2.41,3.36,4.55,5.61,7.14v-3.2c0-15.03,.09-30.07-.05-45.1-.04-4.26,1.31-7.38,5.19-9.28Z"/>
  <path class="cls-1" d="M144.82,67.54c1.86-.03,3.72-.07,5.58-.07,54.67,0,109.34,.2,164-.16,12.18-.08,21.31,8.32,21.21,21.4-.34,41.44-.31,82.88-.02,124.32,.09,12.32-7.26,21.61-20.77,21.65-.21-.17-.43-.51-.63-.5-5.01,.27-9.98,2.23-10.01,9.09-.06,13.95-.07,27.9-.1,41.85-8.29-10.4-16.59-20.79-24.87-31.19-3.01-3.78-6.05-7.55-8.98-11.4-4.18-5.49-9.55-8.11-16.57-8.04-17.86,.19-35.73,.07-53.6,.07-17.22,0-34.43,0-51.65,0-.83,0-1.67-.09-2.5-.13-.12-.87-.83-.79-1.44-.99-8.73-2.81-14.18-10.32-14.18-19.48,0-19.17,0-38.35-.01-57.52,1.21-.03,2.42-.09,3.63-.09,55.03,0,110.06,0,165.1,0,.93,0,1.87,.04,2.79-.02,3.18-.22,5.44-1.84,6.67-4.74,1.25-2.95,.56-5.6-1.51-8.01-1.93-2.24-4.45-2.4-7.12-2.4-55.31,.02-110.62,.01-165.93,0-1.21,0-2.41-.09-3.62-.14,0-17.66,.07-35.32-.02-52.98-.04-7.2,3.25-12.44,8.6-16.9,1.86-1.55,4.61-1.41,5.95-3.63Zm70.18,130.26c21.43,0,42.85,0,64.28,0,1.68,0,3.36,.08,5.03-.05,4.53-.36,7.42-3.86,7.03-8.38-.36-4.13-3.59-6.73-8.45-6.73-44.99,0-89.99,0-134.98,0-.56,0-1.12-.02-1.68,.03-4.63,.45-7.77,5.01-6.53,9.48,1.05,3.79,3.69,5.64,8.23,5.65,22.36,.01,44.72,0,67.07,0Zm17.61-82.88c13.78,0,27.57,0,41.35,0,5.27,0,8.79-3.04,8.88-7.61,.09-4.41-3.57-7.8-8.73-7.8-27.47-.04-54.95-.02-82.42,0-1.97,0-3.9,.31-5.57,1.5-2.73,1.94-3.9,5.29-2.94,8.37,1.08,3.49,3.88,5.54,7.8,5.55,13.88,.02,27.75,0,41.63,.01Z"/>
  <path class="cls-1" d="M62.07,16.1c1.77-.03,3.54-.07,5.3-.07,47.14,0,94.28,0,141.42,0,10.74,0,16.6,5.84,16.61,16.54,0,5.59-.15,11.19,.07,16.77,.1,2.59-.79,3.02-3.15,3.02-36.98-.07-73.97-.02-110.95-.09-6.71-.01-12.94,1.49-18.61,5-10.98,6.81-16.17,16.89-16.2,29.68-.06,23.1-.09,46.21,.07,69.31,.02,3.27-.66,5.56-3.7,6.89-2.62-3.36-6.25-4.68-10.32-5.13-.63-.07-1.24-.36-1.83-.63-6.77-3.11-8.72-9.02-8.73-15.76-.07-36.24-.07-72.49,0-108.73,.01-6.94,2.33-12.76,9.24-15.75,.5-.22,.71-.54,.78-1.03Z"/>
  <path class="cls-2" d="M130.28,156.45c-7.06-.56-10.58-6.23-7.32-11.77,1.65-2.79,4.34-3.5,7.31-3.63,1.21,.05,2.41,.14,3.62,.14,55.31,0,110.62,.01,165.93,0,2.67,0,5.19,.16,7.12,2.4,2.07,2.41,2.76,5.06,1.51,8.01-1.23,2.9-3.49,4.52-6.67,4.74-.93,.06-1.86,.02-2.79,.02-55.03,0-110.06,0-165.1,0-1.21,0-2.42,.06-3.63,.09Z"/>
  <path class="cls-2" d="M215,197.8c-22.36,0-44.72,0-67.07,0-4.54,0-7.18-1.85-8.23-5.65-1.24-4.47,1.89-9.03,6.53-9.48,.55-.05,1.12-.03,1.68-.03,44.99,0,89.99,0,134.98,0,4.86,0,8.1,2.6,8.45,6.73,.39,4.52-2.5,8.01-7.03,8.38-1.67,.13-3.35,.05-5.03,.05-21.43,0-42.85,0-64.28,0Z"/>
  <path class="cls-2" d="M232.61,114.92c-13.88,0-27.75,.01-41.63-.01-3.91,0-6.72-2.06-7.8-5.55-.95-3.08,.21-6.43,2.94-8.37,1.66-1.18,3.59-1.5,5.57-1.5,27.47-.01,54.95-.03,82.42,0,5.16,0,8.81,3.39,8.73,7.8-.09,4.57-3.61,7.61-8.88,7.61-13.78,0-27.57,0-41.35,0Z"/>
</svg>