<?xml version="1.0" encoding="UTF-8"?>
<svg id="Layer_1" data-name="Layer 1" xmlns="http://www.w3.org/2000/svg" viewBox="0 0 376.99 305.48">
  <defs>
    <style>
      .cls-1 {
        opacity: .1;
      }

      .cls-1, .cls-2 {
        fill: #00f3a1;
      }

      .cls-3 {
        fill: #f0eefa;
      }
    </style>
  </defs>
  <path class="cls-2" d="M92.05,240.71c0-18.53-.03-37.07,.04-55.6,0-2.26-.56-3.86-2.3-5.45C61.1,153.29,32.49,126.85,3.84,100.44c-2.55-2.35-4.61-4.84-3.56-8.6,1.05-3.77,3.93-5.19,7.49-6.03,62-14.71,123.99-29.48,185.98-44.23,50.1-11.92,100.19-23.82,150.29-35.73,7.68-1.83,15.36-3.69,23.04-5.52,3.29-.79,6.17-.18,8.34,2.6,2.04,2.61,2.09,5.67,.19,8.97-52.21,90.79-104.42,181.58-156.64,272.36-3.54,6.16-8.28,6.99-13.44,2.25-13.07-11.98-26.1-24-39.06-36.11-1.73-1.61-2.66-1.52-4.34,.04-18.55,17.26-37.17,34.44-55.78,51.63-1.54,1.42-3.06,2.93-5.27,3.29-4.9,.79-8.68-2.25-9-7.25-.06-.9-.02-1.8-.02-2.7,0-18.23,0-36.47,0-54.7ZM42.64,93.13c-6.53,1.14-12.91,2.85-19.68,4.56,11.88,10.98,23.42,21.65,34.97,32.3,15.32,14.12,30.68,28.19,45.93,42.38,1.74,1.62,2.8,1.36,4.54,.19,26.22-17.54,52.49-35,78.72-52.52,11.48-7.67,22.92-15.41,34.38-23.12,.36-.17,.75-.29,1.07-.51,34.58-23.05,69.15-46.1,103.72-69.16,.7-.47,1.71-.69,1.8-1.83-.92-.42-1.75-.01-2.61,.19-54.84,13.04-109.69,26.09-164.54,39.12-28.39,6.75-56.79,13.45-85.18,20.23-11.06,2.64-22.09,5.43-33.13,8.15Zm172.07,167.88c1.04-1.69,2.13-3.36,3.12-5.08,40.02-69.47,80.03-138.95,120.03-208.42,2.82-4.89,5.6-9.81,8.52-14.94-1.65-.07-2.39,.84-3.26,1.41-26.44,17.57-52.88,35.14-79.29,52.75-10.41,6.94-20.77,13.96-31.15,20.94-.27,.13-.56,.22-.81,.38-37.66,25.08-75.31,50.17-113,75.2-1.85,1.23-1.34,1.8-.04,3,25.54,23.54,51.05,47.13,76.56,70.7,4.69,4.33,9.39,8.64,14.36,13.21,1.74-3.21,3.35-6.18,4.96-9.15Zm-107.6,19.65c1.19-.98,1.89-1.5,2.53-2.09,13.91-12.84,27.78-25.73,41.75-38.5,1.7-1.56,1.4-2.27-.09-3.64-13.95-12.8-27.83-25.68-41.75-38.51-.67-.62-1.2-1.62-2.44-1.48v84.22ZM329.17,24.85c-.09,.06-.16,.11-.23,.17,.06,.06,.12,.17,.19,.17,.07,0,.14-.09,.21-.14-.06-.07-.12-.13-.18-.19Z"/>
  <path class="cls-2" d="M67.87,212.84c0,3.94-2.03,5.94-4.53,7.61-7.41,4.94-14.84,9.85-22.26,14.77-5.42,3.6-10.83,7.22-16.27,10.77-4.07,2.65-8.42,2.01-10.86-1.51-2.44-3.52-1.56-8,2.47-10.72,13.02-8.79,26.11-17.48,39.22-26.14,2.52-1.66,5.29-2.41,8.18-.72,2.52,1.47,3.86,3.66,4.05,5.93Z"/>
  <path class="cls-2" d="M42.79,267.26c-.09-2.15,1.24-4.12,3.29-5.56,3.43-2.41,6.89-4.81,10.49-6.97,3.8-2.28,8-1.2,10.21,2.31,2.24,3.56,1.34,7.61-2.37,10.2-3.27,2.29-6.5,4.69-9.94,6.71-5.39,3.17-11.56-.19-11.68-6.69Z"/>
  <path class="cls-1" d="M214.7,261.02c-1.35-1.69-.11-3.49,.06-5.09,.91-8.39,2.3-16.72,3.37-25.09,1.13-8.77,2.03-17.57,3.14-26.34,1.08-8.57,2.32-17.12,3.43-25.69,.9-7,1.69-14.01,2.57-21.01,1.1-8.77,2.26-17.53,3.38-26.3,.89-7,1.78-13.99,2.59-21,.11-.93,.36-2.03-.57-2.81,10.38-6.98,20.74-14,31.15-20.94,26.42-17.61,52.85-35.18,79.29-52.75,.86-.57,1.61-1.48,3.26-1.41-2.92,5.13-5.7,10.05-8.52,14.94-40,69.48-80.01,138.95-120.03,208.42-.99,1.72-2.08,3.39-3.12,5.08Z"/>
  <path class="cls-1" d="M221.5,96.94c-10.38-.23-20.76-.65-31.14-.64-20.79,.02-41.58-.53-62.36-.85-12.98-.2-25.99,.29-38.94-.49-13.49-.82-26.97-.18-40.45-.53-2.04-.05-4.12-.22-5.97-1.29,11.04-2.72,22.07-5.51,33.13-8.15,28.38-6.78,56.78-13.48,85.18-20.23,54.85-13.03,109.69-26.08,164.54-39.12,.85-.2,1.69-.62,2.61-.19-.09,1.13-1.1,1.36-1.8,1.83-34.57,23.06-69.14,46.12-103.72,69.16-.33,.22-.71,.34-1.07,.51Z"/>
  <path class="cls-3" d="M329.17,24.85c.06,.06,.12,.13,.18,.19-.07,.05-.15,.15-.21,.14-.07,0-.13-.11-.19-.17,.07-.05,.14-.1,.23-.17Z"/>
</svg>