<?xml version="1.0" encoding="UTF-8"?>
<svg id="Layer_1" data-name="Layer 1" xmlns="http://www.w3.org/2000/svg" xmlns:xlink="http://www.w3.org/1999/xlink" viewBox="0 0 162.72 162.76">
  <defs>
    <style>
      .cls-1 {
        fill: url(#linear-gradient-2);
      }

      .cls-2 {
        fill: #fff;
      }

      .cls-3 {
        fill: url(#linear-gradient);
      }
    </style>
    <linearGradient id="linear-gradient" x1="13.59" y1="81.39" x2="149.12" y2="81.39" gradientUnits="userSpaceOnUse">
      <stop offset="0" stop-color="#12e4ea"/>
      <stop offset=".12" stop-color="#10e1e1"/>
      <stop offset=".3" stop-color="#0bdbc9"/>
      <stop offset=".53" stop-color="#04d1a3"/>
      <stop offset=".65" stop-color="#00cc8e"/>
    </linearGradient>
    <linearGradient id="linear-gradient-2" x1="77.96" y1="81.39" x2="84.75" y2="81.39" xlink:href="#linear-gradient"/>
  </defs>
  <path class="cls-2" d="M0,76.31c.4-2.93,.71-5.87,1.22-8.78C6.92,35.28,30.55,10.09,62.42,2.28c37.5-9.19,77.09,10.12,92.95,45.33,15.23,33.81,6.28,72.86-22.24,96.52-12.28,10.19-26.44,16.17-42.31,18.05-1.46,.17-2.92,.39-4.37,.58h-10.17c-.35-.09-.7-.24-1.05-.26-6.9-.49-13.65-1.76-20.13-4.16C25.55,147.39,7.62,126.42,1.29,95.57,.67,92.58,.42,89.51,0,86.48c0-3.39,0-6.78,0-10.17Zm6.76,5.1c.12,41.3,33.6,74.7,74.77,74.59,41.05-.11,74.58-33.72,74.43-74.62-.15-41.4-33.62-74.72-74.93-74.59C40.11,6.92,6.64,40.55,6.76,81.41Z"/>
  <path class="cls-3" d="M13.59,81.35c.06-37.45,30.31-67.74,67.65-67.72,37.68,.01,67.96,30.33,67.88,67.97-.08,37.64-30.48,67.65-68.44,67.56-36.95-.1-67.15-30.62-67.09-67.8Zm7.03-3.37c2.01,0,3.9-.06,5.79,.03,.87,.04,1.83,.2,2.56,.63,1.31,.77,1.77,2.08,1.41,3.57-.37,1.55-1.61,2.52-3.4,2.58-2.1,.07-4.2,.02-6.3,.02,.99,31.16,27.86,56.67,57.25,57.42,0-.63,0-1.25,0-1.87,.01-1.64-.07-3.29,.06-4.92,.15-1.9,1.58-3.16,3.35-3.17,1.77,0,3.15,1.26,3.37,3.16,.09,.78,.05,1.59,.05,2.38,0,1.51,0,3.03,0,4.55,33.55-1.66,57.01-30.22,57.38-57.53-1.95,0-3.9,.02-5.85,0-2.56-.03-4.1-1.34-4.08-3.45,.02-2.09,1.57-3.35,4.15-3.38,.95-.01,1.91,0,2.86,0,1.03,0,2.06,0,3.1,0-1.93-33.58-30.02-56.61-57.55-57.23,0,1.84,.05,3.67-.02,5.51-.04,.88-.17,1.81-.54,2.59-.62,1.33-2.25,1.95-3.64,1.6-1.55-.39-2.55-1.6-2.61-3.39-.07-2.1-.02-4.2-.02-6.3-28.13,.69-55.78,24.63-57.32,57.22Z"/>
  <path class="cls-2" d="M52.71,113.73c-2.56-.06-4.14-2.22-3.51-4.34,.12-.4,.31-.79,.5-1.16,6.03-12.12,12.1-24.23,18.07-36.38,.87-1.77,2.06-2.94,3.79-3.8,8.3-4.1,16.56-8.27,24.84-12.42,3.93-1.97,7.85-3.93,11.78-5.89,1.89-.94,3.37-.81,4.52,.37,1.11,1.14,1.24,2.59,.34,4.39-6.22,12.5-12.42,25.02-18.74,37.46-.58,1.14-1.92,2.09-3.12,2.7-9.09,4.64-18.23,9.18-27.36,13.75-3.12,1.56-6.24,3.13-9.37,4.67-.65,.32-1.37,.51-1.74,.65Zm7.34-11.35c.4-.14,.59-.18,.76-.26,8.84-4.42,17.68-8.82,26.49-13.29,.59-.3,1.09-.97,1.41-1.59,4.27-8.44,8.49-16.91,12.72-25.37,.2-.41,.38-.83,.68-1.5-.43,.18-.61,.24-.77,.32-8.84,4.42-17.68,8.83-26.49,13.29-.59,.3-1.09,.97-1.4,1.59-4.27,8.44-8.49,16.9-12.72,25.36-.2,.4-.38,.82-.66,1.44Z"/>
  <path class="cls-1" d="M81.39,78c1.79,.02,3.34,1.56,3.36,3.34,.02,1.86-1.57,3.46-3.42,3.44-1.79-.01-3.33-1.55-3.36-3.34-.03-1.84,1.58-3.46,3.42-3.44Z"/>
</svg>