<?xml version="1.0" encoding="UTF-8"?>
<svg id="Layer_1" data-name="Layer 1" xmlns="http://www.w3.org/2000/svg" xmlns:xlink="http://www.w3.org/1999/xlink" viewBox="0 0 110.79 130.11">
  <defs>
    <style>
      .cls-1 {
        fill: #f9f9f9;
      }

      .cls-2 {
        fill: url(#linear-gradient);
      }
    </style>
    <linearGradient id="linear-gradient" x1="22.9" y1="73.91" x2="83.49" y2="73.91" gradientUnits="userSpaceOnUse">
      <stop offset="0" stop-color="#12e4ea"/>
      <stop offset=".12" stop-color="#10e1e1"/>
      <stop offset=".3" stop-color="#0bdbc9"/>
      <stop offset=".53" stop-color="#04d1a3"/>
      <stop offset=".65" stop-color="#00cc8e"/>
    </linearGradient>
  </defs>
  <path class="cls-1" d="M110.79,36.19l-.11,.37V113.2c-.01,9.34-7.58,16.9-16.92,16.91H16.92c-9.34-.01-16.9-7.57-16.92-16.91V16.91C.01,7.58,7.58,.02,16.92,0h55.67c.6-.03,1.2,.08,1.75,.33l.46,.22c.46,.22,.88,.52,1.25,.87l33.23,31.35c.3,.33,.57,.69,.81,1.06l.34,.34,.37,2.01Zm-33.08-4.96h14.52l-14.52-13.67v13.67Zm16.26,88.49c3.47-.04,6.24-2.89,6.2-6.36V41.73h-27.84c-2.88-.02-5.22-2.35-5.26-5.23V10.62H16.91c-3.53,.03-6.38,2.89-6.39,6.43V113.31c.03,3.53,2.88,6.38,6.41,6.41H93.91s.04,0,.06,0Z"/>
  <path class="cls-2" d="M28.04,66.4c-2.77-.06-5.02-2.26-5.14-5.03-.13-2.9,2.12-5.35,5.02-5.48h44.2c2.88,.02,5.23,2.33,5.28,5.21,.04,2.87-2.17,5.27-5.03,5.46l-44.33-.16h0Zm50.45,15.03c2.7,.13,4.86,2.29,5,5,.14,2.9-2.09,5.37-5,5.51H28.05c-2.71-.1-4.9-2.24-5.06-4.95-.17-2.9,2.04-5.39,4.94-5.56h50.56Z"/>
</svg>