<?xml version="1.0" encoding="UTF-8"?>
<svg id="Layer_1" data-name="Layer 1" xmlns="http://www.w3.org/2000/svg" xmlns:xlink="http://www.w3.org/1999/xlink" viewBox="0 0 125.6 125.57">
  <defs>
    <style>
      .cls-1 {
        fill: url(#linear-gradient-2);
      }

      .cls-2 {
        fill: url(#linear-gradient);
      }

      .cls-3 {
        fill: #f2f3f4;
      }
    </style>
    <linearGradient id="linear-gradient" x1="8.36" y1="106.74" x2="29.28" y2="106.74" gradientUnits="userSpaceOnUse">
      <stop offset="0" stop-color="#12e4ea"/>
      <stop offset=".12" stop-color="#10e1e1"/>
      <stop offset=".3" stop-color="#0bdbc9"/>
      <stop offset=".53" stop-color="#04d1a3"/>
      <stop offset=".65" stop-color="#00cc8e"/>
    </linearGradient>
    <linearGradient id="linear-gradient-2" x1="96.31" y1="106.74" x2="117.23" y2="106.74" xlink:href="#linear-gradient"/>
  </defs>
  <path class="cls-3" d="M0,33.58c3.63-7.2,7.24-14.41,10.88-21.61,1.38-2.73,2.83-5.43,4.22-8.16C16.32,1.41,18.21,.01,20.92,0c2.72-.01,4.59,1.41,5.82,3.79,4.63,8.95,9.28,17.9,13.93,26.85,.83,1.6,1.22,3.27,1.22,5.06-.01,6.58,0,13.16,0,19.74,0,.44,0,.87,0,1.63,.55-.52,.89-.84,1.22-1.17,10.35-10.35,20.7-20.69,31.04-31.04,2.54-2.54,4.71-2.54,7.27,.03,7.45,7.46,14.91,14.92,22.36,22.38,2.51,2.51,2.51,4.67,0,7.18-10.66,10.67-21.33,21.33-32,31.99-.37,.37-.82,.68-1.23,1.02,.05,.14,.09,.28,.14,.42h1.35c11.44,0,22.89-.02,34.33,0,8.95,.02,16.26,5.54,18.56,13.92,2.97,10.83-4.21,21.84-15.34,23.54-.23,.04-.45,.15-.68,.22H16.68c-.22-.08-.44-.18-.67-.23-7.94-1.5-13.06-6.14-15.39-13.86C.36,110.63,.2,109.75,0,108.89,0,83.78,0,58.68,0,33.58Zm62.81,58.49c-14.31,0-28.61,0-42.92,0-.86,0-1.72,.03-2.57,.1-8.57,.71-14.81,9.41-12.76,17.78,1.7,6.93,7.42,11.43,14.63,11.43,29.06,0,58.13,0,87.19,0,.33,0,.65,0,.98-.01,9.15-.32,15.82-9.17,13.62-18.06-1.69-6.85-7.42-11.24-14.76-11.25-14.47-.02-28.94,0-43.41,0Zm-30.89-18.78c.8,.75,1.68,1.53,2.52,2.36,1.17,1.16,1.29,2.41,.37,3.32-.93,.93-2.13,.8-3.33-.38-.86-.84-1.71-1.7-2.44-2.43-1.07,1.04-1.99,1.95-2.92,2.87,1.76,2.24,1.97,3.02,1.02,4.03-.92,.97-1.76,.78-3.9-.77-1.95,1.94-3.86,3.84-5.61,5.58h2.41c14.39,0,28.78,0,43.16,.02,.89,0,1.51-.26,2.14-.89,11.69-11.72,23.4-23.43,35.11-35.13,.31-.31,.75-.5,1-.66-8.1-8.1-15.95-15.95-23.69-23.69-1.35,1.35-2.79,2.78-4.32,4.31,1.84,1.82,3.78,3.68,5.66,5.6,.94,.96,.91,2.23,.06,3.06-.84,.81-2.01,.79-2.97-.09-.75-.69-1.46-1.43-2.17-2.16-1.19-1.22-2.38-2.45-3.41-3.51-1.13,1.07-2.1,1.98-3.16,2.99,.81,.77,1.66,1.55,2.47,2.36,1.17,1.16,1.31,2.4,.42,3.32-.96,.99-2.15,.86-3.4-.41-.8-.81-1.54-1.68-2.34-2.54-1.12,1.13-2.05,2.08-3.03,3.06,.27,.28,.54,.58,.83,.87,1.53,1.53,3.07,3.06,4.6,4.6,1.15,1.16,1.3,2.41,.41,3.33-.92,.95-2.14,.84-3.32-.32-.73-.72-1.46-1.43-2.17-2.17-1.1-1.13-2.19-2.28-3.15-3.28-1.15,1.08-2.12,1.99-3.23,3.03,.5,.43,.98,.81,1.42,1.23,.48,.45,.94,.91,1.39,1.39,.99,1.05,1.05,2.29,.17,3.15-.88,.86-2.11,.8-3.15-.23-.9-.89-1.73-1.84-2.62-2.79-1.07,1.11-2,2.06-2.99,3.08,.23,.25,.5,.55,.79,.83,1.62,1.62,3.26,3.22,4.85,4.87,1.21,1.26,.84,3.09-.69,3.57-.97,.3-1.74-.07-2.42-.76-1.83-1.86-3.69-3.7-5.57-5.58-.98,1-1.92,1.95-3.07,3.12,.92,.82,1.86,1.61,2.72,2.46,1.09,1.07,1.14,2.35,.21,3.23-.89,.85-2.11,.77-3.14-.28-.87-.89-1.66-1.86-2.44-2.74-1.22,1.18-2.15,2.09-3.14,3.04,.29,.31,.56,.62,.84,.9,1.62,1.62,3.26,3.22,4.85,4.87,1.11,1.15,.92,2.77-.36,3.42-1,.51-1.89,.25-2.66-.54-1.86-1.88-3.74-3.75-5.55-5.57-1.02,1.02-1.96,1.96-3.05,3.06ZM4.29,37.94v56.9c1.94-1.98,3.72-3.73,5.4-5.57,.44-.48,.75-1.26,.77-1.9,.07-3.88,.03-7.77,.04-11.65,0-1.59,.77-2.46,2.09-2.45,1.29,.01,2.06,.91,2.09,2.5,.02,1.43,0,2.86,0,4.29,0,1.32,0,2.64,0,4.05,.26-.13,.35-.15,.4-.2,3.91-3.9,7.82-7.79,11.7-11.71,.27-.27,.43-.78,.43-1.18,.02-9.2,.02-18.39,0-27.59,0-.34-.04-.78-.24-1.01-1.89-2.08-3.82-4.12-5.81-6.25-2.1,2.11-3.85,3.94-5.69,5.68-.59,.56-.81,1.1-.81,1.89,.03,7.4,.02,14.8,.01,22.19,0,.45,.02,.91-.06,1.34-.21,1.12-1.11,1.82-2.17,1.76-1.07-.07-1.84-.86-1.93-2.01-.03-.41-.02-.82-.02-1.23,0-7.32,0-14.63-.01-21.95,0-.42,0-1.02-.26-1.23-1.91-1.58-3.88-3.08-5.93-4.68ZM29.57,18.34c-5.82,3.4-11.51,3.4-17.27,0-2.44,4.71-4.87,9.37-7.26,14.06-.11,.21,.04,.73,.24,.9,2.34,1.92,4.71,3.79,7.16,5.75,1.4-1.42,2.86-2.75,4.14-4.22,2.97-3.41,5.68-3.48,8.68-.02,1.3,1.5,2.75,2.86,4.13,4.29,2.69-2.16,5.18-4.15,7.73-6.19-2.52-4.86-5.01-9.67-7.54-14.56Zm8.13,19.48c-1.99,1.59-3.72,3.01-5.5,4.35-.57,.43-.82,.85-.82,1.6,.03,7.55,.02,15.1,.02,22.65,0,.3,.05,.6,.09,1.11,1.9-1.91,3.7-3.63,5.38-5.44,.44-.48,.78-1.25,.79-1.89,.06-6.08,.03-12.16,.03-18.24,0-1.26,0-2.52,0-4.14ZM14.33,14.42c3.69,3.03,10.02,2.99,13.19-.04-1.56-3.01-3.1-6.07-4.73-9.08-.85-1.56-2.82-1.58-3.67-.03-1.64,3-3.18,6.06-4.79,9.15Z"/>
  <path class="cls-2" d="M29.28,106.74c-.01,5.77-4.68,10.45-10.43,10.46-5.77,0-10.53-4.77-10.49-10.55,.04-5.75,4.75-10.4,10.51-10.37,5.78,.02,10.42,4.68,10.4,10.46Zm-10.4-6.27c-3.5-.02-6.35,2.8-6.33,6.27,.02,3.41,2.84,6.24,6.25,6.27,3.47,.03,6.3-2.81,6.29-6.31,0-3.47-2.74-6.22-6.21-6.23Z"/>
  <path class="cls-1" d="M96.31,106.7c.01-5.78,4.66-10.42,10.44-10.42,5.77,0,10.45,4.66,10.47,10.42,.02,5.77-4.76,10.53-10.53,10.5-5.75-.03-10.4-4.74-10.38-10.5Zm10.51-6.22c-3.48-.04-6.26,2.67-6.32,6.13-.06,3.51,2.7,6.37,6.18,6.42,3.44,.04,6.35-2.83,6.36-6.28,0-3.43-2.77-6.22-6.22-6.26Z"/>
</svg>