<?xml version="1.0" encoding="UTF-8"?>
<svg id="Layer_1" data-name="Layer 1" xmlns="http://www.w3.org/2000/svg" xmlns:xlink="http://www.w3.org/1999/xlink" viewBox="0 0 146.32 125.89">
  <defs>
    <style>
      .cls-1 {
        fill: url(#linear-gradient-2);
      }

      .cls-2 {
        fill: #f9f9f9;
      }

      .cls-3 {
        fill: url(#linear-gradient-5);
      }

      .cls-4 {
        fill: url(#linear-gradient-3);
      }

      .cls-5 {
        fill: url(#linear-gradient);
      }

      .cls-6 {
        fill: url(#linear-gradient-4);
      }
    </style>
    <linearGradient id="linear-gradient" x1="6.28" y1="111.99" x2="155.47" y2="30.7" gradientUnits="userSpaceOnUse">
      <stop offset="0" stop-color="#12e4ea"/>
      <stop offset=".12" stop-color="#10e1e1"/>
      <stop offset=".3" stop-color="#0bdbc9"/>
      <stop offset=".53" stop-color="#04d1a3"/>
      <stop offset=".65" stop-color="#00cc8e"/>
    </linearGradient>
    <linearGradient id="linear-gradient-2" x1=".25" y1="100.92" x2="149.44" y2="19.63" xlink:href="#linear-gradient"/>
    <linearGradient id="linear-gradient-3" x1="12.34" y1="123.12" x2="161.53" y2="41.83" xlink:href="#linear-gradient"/>
    <linearGradient id="linear-gradient-4" x1="19.05" y1="15.99" x2="45.86" y2="11.59" xlink:href="#linear-gradient"/>
    <linearGradient id="linear-gradient-5" x1="19.4" y1="18.14" x2="46.21" y2="13.74" xlink:href="#linear-gradient"/>
  </defs>
  <path class="cls-2" d="M0,91.4c0,8.05,0,16.38,0,24.57,0,4.93,2.64,8.43,7.23,9.59,.98,.25,2.1,.28,3.06,.28,13.67,0,27.34,0,41.01,0,4.81,0,9.65,0,14.5,0,23.19,0,46.85,0,70.19,.05h.02c5.26,0,9.43-3.25,10.16-7.9,.03-.19,.08-.37,.14-.53V8.07c-.79-2.77-1.72-4.43-3.18-5.69C141.26,.76,139.06,0,136.21,0h-.06c-5.72,.02-11.53,.02-17.15,.01-2.3,0-4.6,0-6.91,0h-23.78c-25.52,0-51.91,0-77.87-.02h-.02C6.65,0,3.96,1.17,1.98,3.69,.63,5.4,0,7.51,0,10.34c0,18.07,0,36.13,0,54.2v16.76c0,3.37,0,6.73,0,10.1Zm141.06,23.7c0,4.1-1.36,5.48-5.41,5.48H10.66c-3.99,0-5.41-1.4-5.41-5.33V30.53s135.81,0,135.81,0V115.1ZM5.27,9.65c0-1.64,.68-2.64,1.24-3.19,.56-.55,1.59-1.21,3.25-1.16,.2,0,.4,0,.6,0h.38s124.82,0,124.82,0c.08,0,.16-.01,.24-.02,.56-.05,1.5-.13,2.41,.4,.8,.46,2.69,1.55,2.74,3.46,.09,3.47,.08,7,.08,10.41,0,1.03,0,2.07,0,3.1v2.4H5.26v-6.1c0-3.2,0-6.22,0-9.31Z"/>
  <path class="cls-5" d="M87.27,47.91c-.86,.1-1.6,.69-2.2,1.76-3.8,6.71-7.73,13.5-11.53,20.06-1.58,2.72-3.16,5.44-4.73,8.17-1.16,2.02-2.33,4.03-3.5,6.05-2.82,4.87-5.73,9.9-8.56,14.87-.62,1.08-.69,2.19-.21,3.04,.45,.78,1.31,1.22,2.42,1.22h.01c.91,.01,1.56-.3,2.57-2.05,6.2-10.77,12.42-21.53,18.64-32.3,3.09-5.35,6.18-10.7,9.27-16.06,.25-.44,.54-.93,.7-1.36,.38-.99,.22-1.69-.56-2.52-.53-.56-1.31-.9-2.05-.9-.09,0-.19,0-.28,.02Z"/>
  <path class="cls-1" d="M34.64,72.35l1.96-1.95c4.05-4.03,8.23-8.19,12.31-12.32,.82-.83,1.18-1.77,1.01-2.64-.16-.82-.78-1.51-1.75-1.93-.31-.13-.61-.24-.94-.24-.57,0-1.24,.3-2.23,1.29-6.09,6.07-12.17,12.16-18.24,18.25-1.93,1.94-1.92,3.06,.04,5.03,5.97,5.98,11.95,11.96,17.93,17.93,.37,.37,.72,.72,1.06,.98,1.07,.82,2.36,.69,3.35-.34,1-1.03,1.09-2.31,.25-3.36-.29-.35-.64-.71-1.02-1.09l-.13-.13c-3.66-3.66-7.32-7.31-11.12-11.1l-5.47-5.46"/>
  <path class="cls-4" d="M112.74,78.26l-2.77,2.76c-3.88,3.86-7.89,7.86-11.78,11.83-1.08,1.11-1.08,2.38,0,3.5,.58,.6,1.28,.93,1.96,.94,.61,0,1.14-.23,1.62-.71,6.32-6.22,12.91-12.8,19.58-19.57,.98-.99,.98-2.44,0-3.43-7.18-7.28-13.58-13.69-19.57-19.57-.5-.49-1.07-.75-1.67-.75-.05,0-.11,0-.16,0-.74,.06-1.45,.5-1.99,1.24-.6,.81-1.08,1.96,.58,3.63,3.61,3.63,7.19,7.19,10.98,10.97,1.54,1.53,3.09,3.08,4.68,4.66l1.51,1.51"/>
  <circle class="cls-6" cx="24.17" cy="15.15" r="3.8"/>
  <circle class="cls-3" cx="37.64" cy="15.15" r="3.8"/>
</svg>