<?xml version="1.0" encoding="UTF-8"?>
<svg id="Layer_1" data-name="Layer 1" xmlns="http://www.w3.org/2000/svg" xmlns:xlink="http://www.w3.org/1999/xlink" viewBox="0 0 147.47 128.72">
  <defs>
    <style>
      .cls-1 {
        fill: url(#linear-gradient-2);
      }

      .cls-2 {
        fill: #fff;
      }

      .cls-3 {
        fill: url(#linear-gradient-6);
      }

      .cls-4 {
        fill: url(#linear-gradient-5);
      }

      .cls-5 {
        fill: url(#linear-gradient-7);
      }

      .cls-6 {
        fill: url(#linear-gradient-9);
      }

      .cls-7 {
        fill: url(#linear-gradient-3);
      }

      .cls-8 {
        fill: url(#linear-gradient);
      }

      .cls-9 {
        fill: url(#linear-gradient-4);
      }

      .cls-10 {
        fill: url(#linear-gradient-8);
      }
    </style>
    <linearGradient id="linear-gradient" x1="22.99" y1="44.72" x2="43.43" y2="44.72" gradientUnits="userSpaceOnUse">
      <stop offset="0" stop-color="#12e4ea"/>
      <stop offset=".12" stop-color="#10e1e1"/>
      <stop offset=".3" stop-color="#0bdbc9"/>
      <stop offset=".53" stop-color="#04d1a3"/>
      <stop offset=".65" stop-color="#00cc8e"/>
    </linearGradient>
    <linearGradient id="linear-gradient-2" x1="22.98" y1="95.48" x2="43.44" y2="95.48" xlink:href="#linear-gradient"/>
    <linearGradient id="linear-gradient-3" x1="22.99" y1="70.09" x2="43.43" y2="70.09" xlink:href="#linear-gradient"/>
    <linearGradient id="linear-gradient-4" x1="48.47" y1="38.94" x2="82.56" y2="38.94" xlink:href="#linear-gradient"/>
    <linearGradient id="linear-gradient-5" x1="48.36" y1="75.88" x2="82.57" y2="75.88" xlink:href="#linear-gradient"/>
    <linearGradient id="linear-gradient-6" x1="48.38" y1="50.49" x2="82.54" y2="50.49" xlink:href="#linear-gradient"/>
    <linearGradient id="linear-gradient-7" x1="48.36" y1="64.35" x2="82.54" y2="64.35" xlink:href="#linear-gradient"/>
    <linearGradient id="linear-gradient-8" x1="48.35" y1="89.7" x2="73.34" y2="89.7" xlink:href="#linear-gradient"/>
    <linearGradient id="linear-gradient-9" x1="48.35" y1="101.22" x2="68.73" y2="101.22" xlink:href="#linear-gradient"/>
  </defs>
  <path class="cls-2" d="M0,18.91c.09-.27,.21-.53,.27-.81,1.35-5.44,5.71-8.92,11.35-8.94,9.14-.03,18.29-.04,27.43,.02,1.68,.01,2.59-.61,3.26-2.16C44.28,2.52,47.82,.03,52.73,0c4.97-.03,8.56,2.45,10.55,7.02,.66,1.52,1.57,2.18,3.26,2.17,8.95-.06,17.9-.03,26.85-.03,7.42,0,12.23,4.8,12.24,12.21,.01,10.16,0,20.31,0,30.47,0,.57-.03,1.16-.2,1.69-.35,1.05-1.17,1.48-2.25,1.36-1.03-.12-1.65-.73-1.8-1.75-.08-.52-.05-1.05-.05-1.58,0-10.01,0-20.03,0-30.04,0-5.25-2.83-8.05-8.09-8.06-6.03,0-12.06,0-18.09,0h-1.67v4.9c.58,0,1.09,0,1.61,0,6.13,0,12.25,0,18.38,0,2.22,0,2.95,.72,2.95,2.91,0,13.56,0,27.12,0,40.68,0,.47-.03,.97-.16,1.42-.31,1.05-1.09,1.58-2.17,1.5-1.06-.09-1.77-.71-1.92-1.8-.07-.52-.05-1.05-.05-1.58,0-12.31,0-24.63,0-36.94,0-.56,0-1.13,0-1.77-.51-.04-.88-.1-1.25-.1-5.55,0-11.11,.01-16.66-.02-.81,0-1.24,.22-1.64,.98-1.27,2.39-3.32,3.63-6.06,3.63-9.14,0-18.29,0-27.43,0-2.73,0-4.72-1.28-6.09-3.62-.23-.39-.69-.92-1.05-.93-6.07-.06-12.14-.04-18.33-.04V115.09H92.12c0-.51,0-1.02,0-1.53,0-3.69,0-7.38,0-11.07,0-1.71,.79-2.69,2.1-2.7,1.31-.02,2.19,1,2.19,2.65,.02,4.79,.02,9.58,0,14.37,0,1.93-.8,2.69-2.74,2.69-27.24,0-54.47,0-81.71,0-2.01,0-2.76-.76-2.76-2.79,0-31.86,0-63.72,0-95.58,0-2,.77-2.75,2.81-2.75,6.65,0,13.3,0,20.07,0v-4.84c-.44-.02-.9-.06-1.36-.06-6.22,0-12.45,0-18.67,0-4.86,0-7.75,2.91-7.75,7.79,0,31.77,0,63.53,0,95.3,0,4.98,2.86,7.84,7.84,7.84,27.09,0,54.19,0,81.28,0,5.03,0,7.9-2.88,7.9-7.95,0-7.19-.03-14.37,.05-21.56,0-.8,.41-1.81,.98-2.34,.96-.9,2.55-.32,3.07,.93,.11,.26,.2,.55,.2,.83,0,8,.23,16.01-.14,24-.28,6.15-5.29,10.4-11.44,10.4-27.48,.02-54.95,.02-82.43,0-5.62,0-9.96-3.48-11.34-8.95-.07-.27-.18-.54-.27-.8,0-33.35,0-66.69,0-100.04Zm36.53-5.44c0,2.51-.06,4.81,.02,7.1,.05,1.49,1.03,2.34,2.52,2.4,.81,.03,1.63,0,2.44,0,8.18,0,16.37,0,24.55,0,1.75,0,2.81-.59,2.88-1.93,.14-2.47,.04-4.94,.04-7.57-.95,0-1.8-.02-2.65,0-3.38,.11-5.6-1.48-6.9-4.56-1.56-3.68-5.02-5.42-8.6-4.35-2.3,.69-3.81,2.25-4.72,4.47-1.21,2.98-3.43,4.5-6.68,4.43-.9-.02-1.8,0-2.89,0Z"/>
  <path class="cls-2" d="M147.47,37.79c-.8,1.25-1.35,2.55-2.27,3.48-7.9,8-15.87,15.94-23.82,23.9-9.37,9.38-18.75,18.74-28.1,28.15-2.12,2.13-4.48,3.86-7.17,5.17-2.92,1.42-5.82,2.88-8.72,4.35-1.05,.53-2.08,.82-3.04-.11-.96-.93-.73-1.98-.19-3.03,1.63-3.25,3.12-6.57,4.92-9.72,1.2-2.09,2.62-4.15,4.32-5.85,17.37-17.49,34.81-34.91,52.23-52.34,2.51-2.51,4.92-2.49,7.45,.03,.88,.88,1.87,1.68,2.61,2.67,.69,.92,1.11,2.03,1.78,3.32Zm-55.51,50.33c14.71-14.73,29.38-29.41,44.05-44.1-.99-1.01-2.09-2.12-3.1-3.15-14.71,14.72-29.39,29.41-43.92,43.96,.99,1.09,2.04,2.25,2.97,3.28Zm-2.95,3.67c-1.3-1.39-2.36-2.51-3.71-3.95-1.58,2.79-3.07,5.44-4.56,8.08,.13,.12,.26,.24,.38,.36,2.65-1.51,5.3-3.02,7.89-4.49Zm50.56-57.31c-1.19,1.12-2.33,2.21-3.23,3.06,1.05,1.09,2.12,2.2,2.92,3.03,1.09-.94,2.26-1.96,3.34-2.89-1.11-1.17-2.16-2.27-3.04-3.2Z"/>
  <path class="cls-8" d="M43.42,44.84c0,1.82,.02,3.64,0,5.45-.04,2.79-1.79,4.61-4.55,4.64-3.77,.04-7.55,.05-11.33,0-2.66-.03-4.49-1.88-4.53-4.54-.05-3.73-.04-7.46,0-11.19,.03-2.73,1.87-4.63,4.58-4.67,3.77-.05,7.55-.06,11.32,0,2.66,.04,4.45,1.91,4.5,4.57,.03,1.91,0,3.83,0,5.74Zm-4.41,5.72v-11.61h-11.6v11.61h11.6Z"/>
  <path class="cls-1" d="M33.3,85.26c1.91,0,3.82-.04,5.73,0,2.53,.07,4.34,1.84,4.37,4.36,.05,3.87,.05,7.75,0,11.62-.03,2.48-1.83,4.35-4.36,4.41-3.87,.09-7.74,.09-11.61,0-2.56-.06-4.38-1.97-4.42-4.54-.05-3.78-.05-7.56,0-11.34,.03-2.66,1.89-4.47,4.54-4.53,1.91-.04,3.82,0,5.73,0,0,0,0,0,0,0Zm5.73,16.05v-11.65h-11.6v11.65h11.6Z"/>
  <path class="cls-7" d="M39.12,64.25h-11.71v11.64h11.58c.1-.25,.21-.56,.35-.86,.49-1.07,1.36-1.47,2.47-1.21,1.07,.24,1.57,1,1.6,2.09,.06,2.16-1.63,4.15-3.95,4.34-1.95,.17-3.92,.08-5.88,.09-1.91,0-3.83,.03-5.74,0-3-.06-4.81-1.9-4.83-4.88-.02-3.59-.02-7.18,0-10.78,.02-2.85,1.78-4.72,4.62-4.78,3.73-.07,7.47-.07,11.2,0,2.88,.06,4.55,1.87,4.6,4.77,.01,.67,.02,1.34-.01,2.01-.06,1.23-.73,1.95-1.95,2.08-1.16,.12-2.1-.67-2.29-1.9-.07-.42-.04-.86-.04-1.29,0-.38,0-.76,0-1.3Z"/>
  <path class="cls-9" d="M65.39,41.12c-4.78,0-9.56,.03-14.34-.04-.74-.01-1.68-.3-2.14-.81-.41-.45-.58-1.55-.3-2.06,.35-.63,1.23-1.22,1.96-1.34,1.3-.22,2.67-.07,4-.07,8.17,0,16.35,0,24.52,0,.43,0,.86-.02,1.29,.02,1.35,.12,2.2,1,2.18,2.2-.02,1.22-.87,2.04-2.26,2.08-1.77,.05-3.54,.02-5.3,.02-3.2,0-6.4,0-9.61,0Z"/>
  <path class="cls-4" d="M65.52,73.73c4.83,0,9.65,0,14.48,0,1.03,0,1.91,.24,2.37,1.25,.54,1.16-.05,2.53-1.28,2.89-.58,.17-1.23,.18-1.84,.18-9.18,.01-18.35,0-27.53,0-.29,0-.57,.01-.86,0-1.55-.08-2.51-.93-2.51-2.19,0-1.27,.96-2.1,2.54-2.11,4.87-.02,9.75,0,14.62,0Z"/>
  <path class="cls-3" d="M65.48,52.64c-4.64,0-9.27,0-13.91,0-.48,0-.96,.01-1.43-.06-1.11-.16-1.7-.9-1.77-1.95-.07-1.06,.46-1.85,1.53-2.14,.45-.12,.94-.15,1.42-.15,9.41,0,18.83,0,28.24,0,.38,0,.77,0,1.14,.07,1.2,.22,1.88,.97,1.83,2.19-.05,1.22-.77,1.93-2,2.02-.62,.05-1.24,.03-1.86,.03-4.4,0-8.79,0-13.19,0Z"/>
  <path class="cls-5" d="M65.5,62.2c4.64,0,9.27,0,13.91,0,.48,0,.96-.01,1.43,.07,1.09,.19,1.67,.92,1.7,2,.03,1.07-.49,1.85-1.57,2.1-.55,.13-1.14,.13-1.71,.13-9.18,0-18.35,0-27.53,0-2.3,0-3.38-.7-3.38-2.18,0-1.47,1.05-2.13,3.39-2.14,4.59,0,9.18,0,13.76,0Z"/>
  <path class="cls-10" d="M61.03,87.55c3.21,0,6.41-.01,9.62,0,1.75,0,2.66,.73,2.68,2.09,.03,1.39-.95,2.21-2.74,2.21-6.51,.01-13.02,.01-19.53,0-1.68,0-2.68-.82-2.71-2.13-.03-1.36,.98-2.17,2.77-2.18,3.3-.01,6.6,0,9.91,0Z"/>
  <path class="cls-6" d="M58.64,99.07c2.54,0,5.07-.02,7.61,0,1.61,.02,2.49,.81,2.49,2.14,0,1.31-.92,2.15-2.5,2.16-5.12,.02-10.24,.02-15.36,0-1.54,0-2.52-.9-2.52-2.17,0-1.28,.96-2.11,2.53-2.13,2.58-.02,5.17,0,7.75,0Z"/>
  <path class="cls-2" d="M52.95,9.18c1.2,.08,2.08,1.14,1.97,2.36-.1,1.16-1.07,2-2.24,1.92-1.21-.08-2.11-1.14-1.99-2.34,.12-1.14,1.14-2.02,2.26-1.94Z"/>
</svg>