<?xml version="1.0" encoding="UTF-8"?>
<svg id="Layer_1" data-name="Layer 1" xmlns="http://www.w3.org/2000/svg" xmlns:xlink="http://www.w3.org/1999/xlink" viewBox="0 0 149.96 146.44">
  <defs>
    <style>
      .cls-1 {
        fill: url(#linear-gradient-2);
      }

      .cls-2 {
        fill: #f9f9f9;
      }

      .cls-3 {
        fill: url(#linear-gradient-3);
      }

      .cls-4 {
        fill: url(#linear-gradient);
      }
    </style>
    <linearGradient id="linear-gradient" x1="69.7" y1="66.06" x2="80.3" y2="66.06" gradientUnits="userSpaceOnUse">
      <stop offset="0" stop-color="#12e4ea"/>
      <stop offset=".12" stop-color="#10e1e1"/>
      <stop offset=".3" stop-color="#0bdbc9"/>
      <stop offset=".53" stop-color="#04d1a3"/>
      <stop offset=".65" stop-color="#00cc8e"/>
    </linearGradient>
    <linearGradient id="linear-gradient-2" x1="52.31" y1="66.06" x2="62.85" y2="66.06" xlink:href="#linear-gradient"/>
    <linearGradient id="linear-gradient-3" x1="87.15" y1="66.06" x2="97.69" y2="66.06" xlink:href="#linear-gradient"/>
  </defs>
  <path class="cls-2" d="M133.55,110.34c-4.57-.84-7.65-3.24-8.79-7.75-.26-1.04-.26-2.17-.26-3.26-.02-8.71-.01-17.42-.01-26.13,0-6.09,2.53-9.36,8.43-10.95,.14-.04,.27-.11,.4-.16-.92-26.5-23.02-53.28-55.42-54.81-34.03-1.61-59.75,25.08-61.29,54.81,.25,.08,.52,.17,.79,.24,5.24,1.29,8.1,4.88,8.11,10.3,.02,9.06,.03,18.12,0,27.17-.03,7.09-5.52,11.59-12.52,10.32-6.89-1.25-12.18-6.41-12.68-13.55-.49-7.03-.35-14.13,.06-21.17,.29-5.15,3.38-8.93,7.88-11.42,.81-.45,1.08-.94,1.13-1.83C10.89,35.69,27.98,12.82,52.92,3.85c36.93-13.28,77.66,9.06,86.18,47.34,.81,3.62,1.09,7.37,1.53,11.07,.1,.83,.33,1.29,1.09,1.71,5.36,3,8.1,7.64,8.19,13.77,.08,5.67,.09,11.35,0,17.02-.09,6.06-2.82,10.67-8.1,13.67-.81,.46-1.08,.95-1.08,1.85-.04,3.53,.19,7.11-.32,10.57-1.57,10.53-10.47,18.11-21.13,18.31-3.28,.06-6.57,.04-9.85,0-.87-.01-1.27,.28-1.67,1.06-2.03,3.98-5.3,6.11-9.79,6.17-3.68,.05-7.36,.05-11.05,0-6.06-.08-10.7-4.67-10.83-10.65-.13-5.78,4.25-10.62,10.19-10.92,4.12-.21,8.26-.17,12.38,0,4.24,.17,7.25,2.4,9.18,6.17,.21,.41,.68,.99,1.03,.99,4.13,0,8.28,.19,12.37-.25,6.81-.72,12.11-6.79,12.31-13.65,.07-2.53,.01-5.07,.01-7.74Zm-1.9-24.14c0,4.48,0,8.96,0,13.43,0,.1,0,.2,0,.3,.06,2.33,1.15,3.33,3.48,3.2,4.03-.23,7.48-3.63,7.57-7.84,.14-6.02,.12-12.04,0-18.06-.08-4.08-3.34-7.49-7.21-7.89-2.63-.27-3.84,.78-3.84,3.42-.02,4.48,0,8.96,0,13.43Zm-113.29,.06c0-4.53,0-9.06,0-13.58,0-.1,0-.2,0-.3-.08-2.07-1.14-3.1-3.19-3.06-4.13,.07-7.77,3.55-7.86,7.86-.13,6.02-.12,12.04,0,18.06,.07,4.08,3.35,7.5,7.22,7.87,2.67,.26,3.83-.75,3.84-3.41,.02-4.48,0-8.96,0-13.43Zm74.06,52.99c1.84,0,3.68,.03,5.52,0,2.2-.05,3.71-1.56,3.72-3.64,0-2.03-1.42-3.59-3.55-3.63-3.73-.08-7.46-.07-11.2,0-2.22,.04-3.7,1.63-3.65,3.69,.05,2.08,1.56,3.54,3.78,3.59,1.79,.04,3.58,0,5.37,0Z"/>
  <path class="cls-2" d="M52.06,96.19c-3.01-.13-5.75-.76-8.19-2.33-4.83-3.1-7.22-7.56-7.24-13.26-.04-10.1-.1-20.21,.01-30.31,.1-9.09,6.6-15.44,15.66-15.46,15.13-.04,30.25-.04,45.38,0,9.07,.02,15.57,6.34,15.69,15.43,.13,10.15,.14,20.31,0,30.46-.13,9.14-6.69,15.4-15.86,15.44-6.02,.02-12.04,.02-18.06-.02-.98,0-1.66,.29-2.34,.98-4.14,4.17-8.29,8.32-12.5,12.41-2.11,2.05-4.67,2.6-7.45,1.65-2.77-.94-4.45-2.94-4.92-5.84-.17-1.07-.15-2.18-.16-3.27-.02-1.93,0-3.86,0-5.88Zm7.17,7.98c.12,.07,.24,.13,.36,.2,.39-.36,.79-.71,1.16-1.08,4.2-4.17,8.43-8.32,12.57-12.54,1.25-1.27,2.59-1.8,4.37-1.78,6.47,.07,12.93,.03,19.4,.03,5.93,0,9.14-3.2,9.14-9.11,0-9.6,0-19.2,0-28.81,0-5.93-3.18-9.08-9.15-9.08-14.72,0-29.45,0-44.17,0-5.97,0-9.13,3.15-9.13,9.09,0,9.6,0,19.2,0,28.81,0,.65,.02,1.29,.09,1.94,.4,3.59,2.98,6.4,6.54,6.96,1.41,.22,2.87,.18,4.31,.2,3.32,.03,4.5,1.19,4.51,4.48,0,3.57,0,7.14,0,10.7Z"/>
  <path class="cls-4" d="M75.01,60.76c2.89,.01,5.32,2.48,5.28,5.35-.04,2.89-2.53,5.31-5.39,5.24-2.84-.07-5.19-2.45-5.21-5.28-.02-2.88,2.43-5.33,5.32-5.32Z"/>
  <path class="cls-1" d="M62.85,66.06c0,2.93-2.4,5.33-5.3,5.3-2.9-.03-5.28-2.47-5.24-5.38,.04-2.84,2.4-5.19,5.24-5.22,2.9-.03,5.3,2.37,5.3,5.3Z"/>
  <path class="cls-3" d="M97.69,66.08c-.01,2.9-2.46,5.32-5.34,5.28-2.91-.04-5.25-2.46-5.2-5.39,.05-2.87,2.39-5.19,5.24-5.2,2.89-.01,5.31,2.41,5.3,5.32Z"/>
</svg>