<?xml version="1.0" encoding="UTF-8"?>
<svg id="Layer_1" data-name="Layer 1" xmlns="http://www.w3.org/2000/svg" viewBox="0 0 110.28 161.85">
  <defs>
    <style>
      .cls-1 {
        fill: #f9f9f9;
      }
    </style>
  </defs>
  <path class="cls-1" d="M21.19,161.85c-1.24-.77-1.61-1.89-1.6-3.34,.06-6.48,.1-12.96-.02-19.44-.04-2.33,.58-3.56,2.9-4.64,5.77-2.7,10.37-6.97,13.99-12.23,.94-1.37,1.75-2.83,2.66-4.32-6.16-2.23-9.73-6.33-9.88-12.74-.13-5.34,2.38-9.46,7.15-11.93,5.75-2.97,10.9-1.41,15.68,2.68,4.47-4.22,6.69-9.44,7.28-15.57H6.27c-.34,2.35-.77,4.76-1.03,7.19-.99,9.25-.59,18.4,2.34,27.32,1.41,4.29,3.47,8.23,6.2,11.83,.47,.63,1,1.59,.83,2.23-.2,.77-.99,1.58-1.74,1.96-1.01,.52-1.89-.12-2.57-.98-3.16-4.01-5.5-8.46-7.13-13.29C-.02,107.08-.56,97.31,.48,87.42c.31-2.92,.82-5.83,1.38-8.72,.57-2.96,.87-3.13,3.85-3.2,.21,0,.42-.03,.88-.06-.41-1.24-.68-2.45-1.19-3.55-2.21-4.72-2.42-9.45-1-14.52,1.48-5.31,2.35-10.79,3.5-16.19,.57-2.7,2.34-3.37,4.43-1.62,5.7,4.76,11.4,9.53,17.04,14.36,.71,.61,1.29,1.54,1.6,2.44,2.06,5.85,4.07,11.72,6,17.62,.4,1.24,.97,1.61,2.23,1.57,2.67-.1,5.35-.03,8.24-.03,0-.9,0-1.67,0-2.44,0-3.74,0-7.48,0-11.22,0-2.11,.72-3.04,2.32-3.06,1.67-.02,2.41,.94,2.41,3.14,0,3.95,0,7.9,0,11.85,0,.51,0,1.03,0,1.63h4.1c0-.58,0-1.14,0-1.69,0-4.06,0-8.11,0-12.17,0-1.84,.77-2.73,2.29-2.76,1.58-.03,2.43,.92,2.43,2.8,.02,4,0,8.01,0,12.01,0,.57,0,1.14,0,1.89,2.23,0,4.33,.07,6.41-.06,.42-.03,.93-.73,1.18-1.23,5.11-10.38,10.21-20.77,15.27-31.18,1.28-2.64,3.19-4.58,6.14-4.85,1.64-.15,3.48,.18,5.01,.82,3.3,1.37,6.46,3.07,9.67,4.64,4.73,2.32,6.24,6.62,3.95,11.33-3.06,6.29-6.15,12.57-9.23,18.85-.23,.47-.44,.95-.6,1.31,.79,.48,1.72,.78,2.16,1.41,.43,.62,.48,1.58,.5,2.39,.24,8.84,2.85,16.97,7.33,24.53,1.17,1.98,1.88,4.01,1.22,6.31-.78,2.75-2.51,4.67-5.34,5.24-1.25,.25-1.45,.83-1.56,1.88-1.55,15.29-12.58,27.83-27.6,31.2-2.7,.61-5.53,.67-8.3,.87-1.78,.12-3.57,.02-5.62,.02,0,1.66,0,3.21,0,4.76,0,1.58-.06,3.16,.02,4.74,.08,1.44-.35,2.56-1.55,3.38H21.19Zm42.99-81.58c-.11,.82-.2,1.5-.3,2.17-1.06,7.14-4.09,13.22-9.72,17.87-2.18,1.8-2.96,1.68-4.89-.41-2.17-2.35-4.77-3.88-8.1-3.37-4.3,.66-7.41,4.46-7.24,8.64,.19,4.43,3.57,7.92,8.04,8.27,2.79,.22,3.58,1.54,2.46,4.12-3.94,9.06-10.28,15.95-18.92,20.7-.95,.52-1.18,1.1-1.17,2.09,.04,5.06,.02,10.11,.02,15.17,0,.51,.04,1.01,.07,1.49H56.87c0-3.3,0-6.5,0-9.71,0-2.27,.77-3.03,3.03-3.05,3.05-.03,6.11,.04,9.16-.07,7.15-.27,13.46-2.81,18.83-7.52,6.95-6.09,10.47-13.82,10.73-23.05,.06-2.27,.82-3.02,3.04-3.06,.58,0,1.17,.02,1.73-.09,1.66-.32,2.51-1.9,1.9-3.48-.17-.44-.42-.85-.66-1.26-3.47-5.91-5.94-12.19-7.11-18.95-.37-2.15-.58-4.33-.87-6.51h-32.49Zm38.6-24.13c.58-1.17,1.07-2.15,1.54-3.14,1.17-2.46,.67-3.95-1.76-5.15-3.02-1.49-6.05-2.96-9.08-4.43-2.73-1.32-4.12-.85-5.46,1.88-4.68,9.54-9.35,19.08-14.02,28.63-.22,.45-.39,.93-.64,1.55,6.5,0,12.81,.01,19.12-.03,.38,0,.9-.3,1.1-.62,.52-.83,.9-1.75,1.41-2.79-2.23-1.09-4.35-2.1-6.45-3.17-1.6-.81-2.03-2.16-1.15-3.5,.8-1.2,1.89-1.4,3.17-.77,2.15,1.05,4.3,2.09,6.52,3.17,1.25-2.56,2.4-4.9,3.6-7.37-1.28-.63-2.46-1.2-3.62-1.78-1.69-.85-2.2-2.02-1.51-3.4,.68-1.36,1.91-1.64,3.65-.82,1.13,.54,2.26,1.09,3.57,1.73ZM8.29,62.31c2.01,.12,3.88,0,5.65,.39,2.85,.62,4.9-.29,6.73-2.43,1.24-1.44,2.76-2.64,4.21-4.01-2.29-1.93-4.38-3.68-6.47-5.44-2.95-2.49-2.96-2.52-6.58-1.1-.47,.18-1,.76-1.11,1.25-.85,3.68-1.6,7.38-2.43,11.34Zm24.23,13.18c-1.75-5.15-3.4-10.01-5.12-15.07-1.97,1.84-3.83,3.54-5.62,5.31-.24,.24-.27,.89-.15,1.27,.8,2.56,1.63,5.11,2.54,7.63,.13,.37,.69,.81,1.07,.82,2.31,.08,4.63,.04,7.28,.04Zm-23.7-8.4c.92,2.73,1.74,5.22,2.63,7.68,.11,.3,.56,.68,.87,.69,2.29,.06,4.59,.03,7.11,.03-.85-2.59-1.6-4.98-2.44-7.34-.1-.27-.64-.51-.99-.54-2.3-.2-4.6-.34-7.17-.52Z"/>
  <path class="cls-1" d="M55.02,0c8.52,6.72,13.66,15.18,13.53,26.34-.03,2.58-.09,5.16-.01,7.74,.02,.55,.41,1.28,.86,1.6,2.26,1.57,3.4,3.65,3.38,6.4-.04,4.63-.06,9.27-.04,13.9,0,1.29-.36,2.32-1.64,2.75-1.27,.42-2.21-.15-2.99-1.18-1.35-1.81-2.75-3.58-4.19-5.44-6.49,4.97-12.99,5.13-19.65,.09-.22,.24-.52,.5-.76,.81-1.2,1.53-2.4,3.07-3.59,4.61-.76,.99-1.65,1.65-2.97,1.23-1.43-.46-1.63-1.6-1.62-2.9,.04-4.63,.05-9.27,.07-13.9,.01-2.69,1.16-4.8,3.42-6.2,.8-.5,1-1.03,1.01-1.89,.07-4.16,.01-8.33,.35-12.46,.35-4.21,2.04-8.03,4.29-11.58,.79-1.25,2.08-1.52,3.26-.79,1.13,.7,1.42,1.85,.81,3.15-1.18,2.49-2.37,4.97-3.67,7.73h18.44c-.64-1.75-1.11-3.35-1.79-4.84-1.83-3.99-4.55-7.31-7.84-10.19-2.25-1.97-2.3-2.83-.25-4.97h1.58Zm5.99,48.07c-.75-1.31-1.47-2.52-2.15-3.77-1.05-1.93-1.03-3.98,.18-5.7,.95-1.36,2.46-2.32,3.72-3.46,.32-.29,.94-.56,.95-.85,.07-3.13,.04-6.26,.04-9.4h-19.2c0,2.96,.05,5.79-.02,8.62-.02,.99,.27,1.44,1.2,1.85,3.93,1.73,5.29,5.8,3.28,9.55-.59,1.1-1.27,2.16-1.89,3.21,3.81,4.05,9.94,4.04,13.89-.05Zm6.6,1.15c.14-.06,.28-.13,.42-.19,0-2.41,.13-4.84-.07-7.24-.07-.8-.86-1.79-1.59-2.21-1.02-.58-2.14-.16-2.94,.8-.74,.89-.49,1.74,.07,2.59,1.38,2.08,2.75,4.16,4.12,6.24Zm-27.44-.11c.11,.05,.22,.09,.33,.14,1.41-2.11,2.9-4.17,4.17-6.36,.37-.63,.46-1.93,.06-2.36-.56-.61-1.78-1.09-2.55-.92-.77,.17-1.85,1.17-1.92,1.89-.24,2.52-.09,5.07-.09,7.61Z"/>
  <path class="cls-1" d="M81.26,0c2.13,.92,1.64,2.9,1.77,4.65,1.86,.43,4.7-.58,4.6,2.66-.09,3.02-2.77,1.95-4.49,2.31-.5,1.77,.67,4.59-2.52,4.58-3.16,0-2.04-2.79-2.51-4.56-1.79-.39-4.42,.67-4.55-2.51-.06-1.65,.72-2.04,4.6-2.48,.22-1.66-.37-3.76,1.83-4.66h1.26Z"/>
  <path class="cls-1" d="M99.46,27.31c-.35,1.84,.69,4.46-2.48,4.61-1.68,.08-2.07-.71-2.47-4.64-1.76-.31-4.61,.7-4.53-2.51,.08-2.94,2.69-2.12,4.57-2.37,.3-1.84-.58-4.57,2.46-4.59,3.1-.02,2.1,2.76,2.47,4.55,1.84,.38,4.44-.63,4.59,2.52,.08,1.71-.7,2.1-4.61,2.43Z"/>
  <path class="cls-1" d="M21.49,21.34c-.39,1.8,.61,4.46-2.4,4.55-3.3,.09-2.09-2.84-2.57-4.55-3.98-.48-4.7-.85-4.57-2.55,.24-3.02,2.73-2.07,4.63-2.42,.31-1.8-.65-4.65,2.54-4.55,2.91,.1,2.06,2.73,2.33,4.54,1.86,.36,4.44-.59,4.61,2.52,.09,1.64-.68,2.02-4.57,2.45Z"/>
  <path class="cls-1" d="M88.86,95.66c.05,1.73-.65,2.64-2.11,2.76-1.48,.11-2.37-.68-2.61-2.31-.36-2.44-1.7-3.79-3.83-3.82-2.19-.04-3.65,1.34-4.04,3.81-.27,1.7-1.08,2.43-2.56,2.33-1.39-.1-2.2-1.07-2.16-2.58,.11-4.54,4.03-8.29,8.67-8.3,4.61,0,8.5,3.66,8.64,8.13Z"/>
  <path class="cls-1" d="M41.78,107.16c-1.28-.02-2.24-1.02-2.24-2.34,0-1.38,1.06-2.43,2.39-2.36,1.29,.06,2.17,1.07,2.13,2.43-.04,1.37-.96,2.29-2.28,2.27Z"/>
</svg>