<?xml version="1.0" encoding="UTF-8"?>
<svg id="Layer_1" data-name="Layer 1" xmlns="http://www.w3.org/2000/svg" viewBox="0 0 168.75 168.71">
  <defs>
    <style>
      .cls-1 {
        fill: #f2f3f4;
      }
    </style>
  </defs>
  <path class="cls-1" d="M0,45.12c4.87-9.68,9.73-19.37,14.62-29.04,1.86-3.67,3.81-7.29,5.67-10.96C21.93,1.9,24.46,.01,28.1,0c3.65-.01,6.17,1.89,7.82,5.09,6.23,12.03,12.46,24.06,18.72,36.07,1.12,2.15,1.64,4.39,1.64,6.8-.02,8.84,0,17.68,0,26.53,0,.59,0,1.17,0,2.19,.73-.7,1.19-1.13,1.63-1.57,13.9-13.9,27.81-27.8,41.71-41.7,3.42-3.42,6.32-3.41,9.77,.04,10.02,10.02,20.03,20.04,30.04,30.07,3.37,3.37,3.37,6.28,0,9.64-14.33,14.33-28.66,28.66-43,42.98-.5,.5-1.1,.91-1.66,1.36,.06,.19,.13,.37,.19,.56h1.81c15.38,0,30.75-.03,46.13,0,12.03,.03,21.85,7.44,24.93,18.71,3.99,14.55-5.65,29.34-20.6,31.63-.31,.05-.61,.2-.91,.3H22.41c-.3-.1-.6-.24-.91-.3-10.67-2.02-17.54-8.25-20.67-18.63C.49,148.64,.27,147.46,0,146.3,0,112.57,0,78.84,0,45.12ZM84.4,123.7c-19.22,0-38.45,0-57.67,0-1.15,0-2.31,.05-3.45,.14-11.52,.96-19.9,12.64-17.15,23.89,2.28,9.31,9.98,15.35,19.65,15.35,39.05,.01,78.1,0,117.15,0,.44,0,.88,0,1.32-.02,12.29-.43,21.26-12.32,18.31-24.26-2.28-9.21-9.97-15.1-19.83-15.11-19.44-.02-38.89,0-58.33,0Zm-41.5-25.24c1.08,1,2.26,2.06,3.39,3.17,1.57,1.56,1.73,3.23,.49,4.47-1.25,1.25-2.86,1.07-4.47-.5-1.16-1.13-2.29-2.28-3.28-3.26-1.43,1.4-2.68,2.63-3.93,3.85,2.37,3.01,2.64,4.06,1.37,5.41-1.24,1.31-2.36,1.05-5.24-1.03-2.62,2.61-5.19,5.16-7.54,7.5h3.24c19.33,0,38.66-.01,58,.02,1.2,0,2.03-.35,2.88-1.2,15.7-15.75,31.43-31.48,47.17-47.19,.42-.42,1.01-.67,1.35-.89-10.88-10.88-21.43-21.43-31.83-31.83-1.82,1.82-3.75,3.74-5.8,5.79,2.47,2.44,5.08,4.95,7.61,7.53,1.26,1.28,1.23,3,.07,4.11-1.13,1.09-2.7,1.07-3.99-.12-1.01-.93-1.96-1.92-2.92-2.9-1.6-1.64-3.2-3.29-4.58-4.71-1.52,1.43-2.82,2.66-4.24,4.01,1.09,1.04,2.22,2.08,3.31,3.16,1.57,1.56,1.76,3.22,.56,4.46-1.28,1.33-2.89,1.16-4.57-.55-1.07-1.09-2.07-2.25-3.14-3.42-1.5,1.52-2.76,2.79-4.07,4.12,.36,.38,.73,.78,1.11,1.16,2.06,2.06,4.12,4.11,6.17,6.18,1.55,1.56,1.75,3.24,.55,4.48-1.24,1.28-2.87,1.12-4.46-.44-.98-.96-1.96-1.93-2.91-2.91-1.48-1.52-2.94-3.06-4.23-4.41-1.55,1.45-2.85,2.67-4.34,4.07,.67,.57,1.31,1.09,1.91,1.65,.64,.6,1.26,1.22,1.86,1.86,1.33,1.41,1.41,3.07,.22,4.23-1.18,1.16-2.84,1.08-4.23-.31-1.2-1.2-2.33-2.47-3.52-3.75-1.44,1.49-2.69,2.77-4.02,4.13,.31,.33,.68,.73,1.06,1.12,2.17,2.18,4.38,4.32,6.51,6.54,1.63,1.69,1.13,4.15-.92,4.79-1.3,.41-2.33-.09-3.26-1.03-2.46-2.5-4.95-4.97-7.49-7.5-1.32,1.35-2.58,2.62-4.13,4.2,1.23,1.11,2.49,2.16,3.66,3.31,1.47,1.44,1.54,3.15,.28,4.34-1.2,1.14-2.84,1.04-4.22-.38-1.17-1.2-2.23-2.5-3.28-3.69-1.64,1.59-2.89,2.8-4.21,4.09,.39,.42,.75,.83,1.13,1.21,2.17,2.18,4.38,4.32,6.51,6.54,1.49,1.55,1.24,3.72-.48,4.59-1.34,.68-2.53,.34-3.58-.72-2.5-2.53-5.02-5.04-7.46-7.48-1.37,1.37-2.63,2.63-4.1,4.11ZM5.76,50.98V127.43c2.61-2.66,5-5.01,7.25-7.48,.59-.64,1.01-1.69,1.03-2.56,.09-5.22,.03-10.43,.05-15.65,0-2.14,1.04-3.31,2.81-3.29,1.74,.02,2.77,1.23,2.8,3.35,.03,1.92,0,3.84,0,5.77,0,1.77,0,3.54,0,5.44,.36-.17,.47-.2,.54-.26,5.25-5.24,10.5-10.46,15.72-15.73,.36-.37,.58-1.05,.58-1.59,.03-12.36,.03-24.71,.01-37.07,0-.46-.05-1.05-.32-1.36-2.54-2.79-5.13-5.54-7.81-8.4-2.82,2.84-5.17,5.29-7.64,7.63-.8,.75-1.09,1.48-1.09,2.55,.03,9.94,.02,19.88,.02,29.82,0,.6,.02,1.22-.08,1.81-.28,1.5-1.49,2.45-2.92,2.36-1.43-.09-2.48-1.16-2.59-2.69-.04-.55-.02-1.1-.02-1.65,0-9.83,0-19.66-.02-29.49,0-.56,0-1.37-.35-1.65-2.56-2.12-5.21-4.13-7.97-6.28ZM39.73,24.65c-7.82,4.57-15.46,4.57-23.2,0-3.28,6.32-6.54,12.59-9.76,18.89-.15,.29,.05,.99,.32,1.21,3.14,2.57,6.33,5.09,9.62,7.73,1.89-1.91,3.84-3.69,5.56-5.67,3.99-4.58,7.63-4.67,11.66-.02,1.75,2.01,3.69,3.85,5.55,5.76,3.62-2.9,6.96-5.57,10.38-8.32-3.38-6.53-6.73-13-10.14-19.56Zm10.92,26.17c-2.68,2.13-4.99,4.04-7.38,5.85-.77,.58-1.11,1.15-1.1,2.14,.04,10.14,.02,20.29,.03,30.43,0,.4,.06,.81,.12,1.5,2.56-2.56,4.96-4.87,7.23-7.31,.59-.64,1.05-1.68,1.06-2.54,.08-8.17,.05-16.34,.05-24.51,0-1.69,0-3.38,0-5.56ZM19.25,19.38c4.95,4.07,13.46,4.02,17.72-.06-2.1-4.05-4.16-8.16-6.36-12.19-1.14-2.1-3.79-2.12-4.93-.05-2.21,4.03-4.27,8.14-6.43,12.3Z"/>
  <path class="cls-1" d="M39.34,143.42c-.01,7.76-6.28,14.04-14.01,14.05-7.76,0-14.15-6.41-14.09-14.17,.05-7.73,6.38-13.97,14.12-13.94,7.77,.03,13.99,6.29,13.98,14.05Zm-13.98-8.42c-4.71-.02-8.53,3.76-8.5,8.43,.02,4.58,3.81,8.38,8.39,8.43,4.66,.04,8.47-3.77,8.46-8.48,0-4.67-3.68-8.35-8.35-8.38Z"/>
  <path class="cls-1" d="M129.41,143.36c.02-7.77,6.26-14,14.03-13.99,7.75,0,14.04,6.27,14.07,14,.03,7.75-6.39,14.15-14.15,14.11-7.72-.04-13.97-6.36-13.95-14.11Zm14.13-8.36c-4.67-.05-8.42,3.58-8.49,8.23-.08,4.72,3.62,8.56,8.31,8.62,4.62,.06,8.53-3.81,8.54-8.44,.01-4.6-3.72-8.36-8.36-8.41Z"/>
</svg>