<?xml version="1.0" encoding="UTF-8"?>
<svg id="Layer_1" data-name="Layer 1" xmlns="http://www.w3.org/2000/svg" viewBox="0 0 182.38 156.92">
  <defs>
    <style>
      .cls-1 {
        fill: #f9f9f9;
      }
    </style>
  </defs>
  <path class="cls-1" d="M0,113.93c0,10.04,0,20.41,.01,30.62,.01,6.15,3.29,10.5,9.01,11.95,1.22,.31,2.61,.35,3.82,.35,17.04,0,34.08,0,51.11,0,5.99,0,12.02,0,18.08,0,28.9,0,58.39,0,87.49,.07h.03c6.55,0,11.76-4.05,12.66-9.85,.04-.24,.1-.46,.18-.66V10.06c-.98-3.45-2.14-5.52-3.97-7.09C176.08,.95,173.33,.01,169.78,.01h-.07c-7.13,.02-14.37,.02-21.37,.02-2.87,0-5.74,0-8.61,0h-29.64c-31.81,0-64.71,0-97.07-.02h-.02C8.29,0,4.94,1.46,2.47,4.6,.78,6.73,0,9.36,0,12.89c.01,22.52,.01,45.04,0,67.56v20.89c0,4.2,0,8.39,0,12.59Zm175.83,29.54c0,5.11-1.7,6.83-6.74,6.83H13.29c-4.98,0-6.74-1.74-6.74-6.65V38.05s169.28,0,169.28,0v105.42ZM6.57,12.02c0-2.05,.85-3.29,1.55-3.98,.7-.69,1.98-1.51,4.05-1.45,.25,0,.5,0,.75,0h.47s155.59,0,155.59,0c.1,0,.2-.01,.3-.02,.7-.06,1.86-.16,3.01,.5,1,.58,3.35,1.94,3.41,4.31,.12,4.32,.11,8.72,.09,12.98,0,1.29,0,2.58,0,3.87v3H6.56v-7.61c0-3.99,0-7.76,0-11.6Z"/>
  <path class="cls-1" d="M108.78,59.72c-1.07,.13-1.99,.87-2.74,2.19-4.74,8.37-9.64,16.82-14.37,25-1.97,3.39-3.93,6.79-5.89,10.18-1.45,2.51-2.9,5.03-4.36,7.54-3.51,6.07-7.14,12.34-10.67,18.54-.77,1.35-.86,2.73-.26,3.78,.56,.98,1.63,1.52,3.01,1.53h.02c1.13,.02,1.95-.38,3.2-2.55,7.73-13.42,15.48-26.84,23.23-40.26,3.85-6.67,7.71-13.34,11.56-20.02,.31-.54,.67-1.16,.87-1.69,.47-1.23,.27-2.11-.7-3.14-.66-.7-1.63-1.12-2.55-1.12-.12,0-.23,0-.35,.02Z"/>
  <path class="cls-1" d="M43.18,90.18l2.44-2.43c5.04-5.02,10.26-10.21,15.34-15.36,1.02-1.03,1.47-2.2,1.26-3.29-.2-1.02-.97-1.88-2.19-2.4-.38-.17-.76-.3-1.17-.3-.71,0-1.54,.38-2.77,1.61-7.59,7.57-15.16,15.16-22.74,22.74-2.41,2.41-2.4,3.82,.05,6.27,7.45,7.45,14.9,14.9,22.35,22.35,.46,.46,.9,.9,1.33,1.22,1.33,1.02,2.94,.86,4.18-.42,1.24-1.28,1.36-2.89,.31-4.18-.36-.44-.8-.88-1.27-1.35l-.16-.16c-4.56-4.56-9.12-9.11-13.86-13.84l-6.82-6.81"/>
  <path class="cls-1" d="M140.53,97.55l-3.46,3.44c-4.84,4.82-9.84,9.79-14.68,14.75-1.35,1.38-1.34,2.97,.01,4.36,.72,.75,1.59,1.16,2.44,1.17,.75,0,1.42-.29,2.02-.88,7.88-7.75,16.09-15.96,24.4-24.39,1.22-1.24,1.22-3.04,0-4.27-8.95-9.08-16.93-17.06-24.4-24.39-.62-.61-1.34-.93-2.08-.93-.07,0-.14,0-.2,0-.92,.07-1.81,.62-2.48,1.54-.75,1.02-1.34,2.45,.72,4.52,4.5,4.52,8.96,8.97,13.69,13.68,1.92,1.91,3.85,3.84,5.83,5.81l1.89,1.88"/>
  <circle class="cls-1" cx="30.12" cy="18.88" r="4.74"/>
  <circle class="cls-1" cx="46.91" cy="18.88" r="4.74"/>
</svg>