<?xml version="1.0" encoding="UTF-8"?>
<svg id="Layer_1" data-name="Layer 1" xmlns="http://www.w3.org/2000/svg" viewBox="0 0 143.36 165.4">
  <defs>
    <style>
      .cls-1 {
        fill: #f2f3f4;
      }
    </style>
  </defs>
  <path class="cls-1" d="M0,74.4c0-15.5-.02-31,0-46.51C.03,14.38,9,3.31,22.21,.58,24.05,.19,25.97,.04,27.85,.03,49.73,0,71.61-.01,93.49,.02c15.59,.02,27.75,12.17,27.81,27.73,.03,9.01,.01,18.03,0,27.04,0,3.66-2.25,6.17-5.49,6.18-3.25,.01-5.53-2.5-5.53-6.14,0-8.78,0-17.57,0-26.35-.01-10.37-7.05-17.44-17.38-17.44-21.48,0-42.96,0-64.43,0-10.35,0-17.42,7.06-17.42,17.4,0,30.66,0,61.32,0,91.98,0,10.34,7.08,17.4,17.42,17.4,14.3,0,28.6-.01,42.9,.01,4.19,0,6.9,3.79,5.45,7.5-.87,2.22-2.88,3.5-5.59,3.51-7.92,.01-15.85,0-23.77,0-6.49,0-12.98,.01-19.47,0C12.17,148.79,.03,136.69,.01,120.91c-.02-15.5,0-31,0-46.51Z"/>
  <path class="cls-1" d="M88.22,143.83c0-4.25-.05-8.49,.03-12.74,.02-1.25-.37-2.09-1.25-2.98-17.54-17.51-10.45-47.18,13.08-54.81,14.58-4.73,30.4,1.13,38.43,14.23,7.96,12.98,5.97,29.73-4.88,40.5-.99,.98-1.34,1.93-1.33,3.29,.06,8.32,0,16.64,.04,24.96,.02,3.51-1.22,6.3-4.33,8.03-3.19,1.77-6.28,1.27-9.22-.76-2.31-1.59-4.7-3.09-6.97-4.74-1.07-.78-1.85-.91-3-.05-2.29,1.71-4.74,3.23-7.11,4.84-2.89,1.96-5.93,2.47-9.08,.76-3.13-1.69-4.46-4.45-4.42-7.97,.04-4.19,.01-8.38,.01-12.57Zm44.11-39.13c-.01-12.11-9.93-22-22.05-22-12.12,0-22.04,9.89-22.05,22-.02,12.19,9.94,22.13,22.14,22.09,12.1-.03,21.98-9.96,21.97-22.09Zm-33.03,47.21c2.48-1.66,4.71-3.14,6.93-4.63,3.24-2.18,4.9-2.18,8.17,.02,2.22,1.49,4.43,2.97,6.79,4.55v-15.91c-7.35,2.53-14.59,2.45-21.88,0v15.97Z"/>
  <path class="cls-1" d="M56.17,71.67c-7.47,0-14.93,0-22.4,0-3.67,0-6.18-2.23-6.2-5.47-.02-3.27,2.47-5.54,6.11-5.55,14.93,0,29.86,0,44.79,0,3.66,0,6.19,2.24,6.22,5.47,.03,3.27-2.54,5.55-6.31,5.55-7.41,0-14.82,0-22.22,0Z"/>
  <path class="cls-1" d="M52.56,33.08c6.14,0,12.29,0,18.43,0,3.67,0,6.18,2.23,6.2,5.47,.02,3.25-2.49,5.55-6.12,5.55-12.46,0-24.92,0-37.38,0-3.63,0-6.14-2.31-6.11-5.56,.03-3.26,2.51-5.45,6.2-5.46,6.26,0,12.52,0,18.78,0Z"/>
  <path class="cls-1" d="M48.43,82.69c4.87,0,9.75-.01,14.62,0,3.5,.01,5.94,2.29,5.94,5.51,0,3.22-2.43,5.5-5.94,5.51-9.86,.01-19.72,.02-29.59,0-3.45,0-5.93-2.4-5.88-5.6,.05-3.13,2.49-5.4,5.88-5.42,4.99-.02,9.98,0,14.96,0Z"/>
  <path class="cls-1" d="M46.97,115.77c-4.48,0-8.95,.01-13.43,0-3.48-.01-5.97-2.35-5.96-5.54,.01-3.2,2.48-5.47,6-5.48,8.95-.01,17.91-.01,26.86,0,3.52,0,6.02,2.27,6.05,5.44,.04,3.25-2.48,5.56-6.1,5.57-4.48,.01-8.95,0-13.43,0Z"/>
</svg>