<?xml version="1.0" encoding="UTF-8"?>
<svg id="Layer_1" data-name="Layer 1" xmlns="http://www.w3.org/2000/svg" viewBox="0 0 166.52 166.51">
  <defs>
    <style>
      .cls-1 {
        fill: #f9f9f9;
      }
    </style>
  </defs>
  <path class="cls-1" d="M0,78.37c.12-.79,.27-1.59,.35-2.38,.39-4.02,3.03-6.78,7.01-7.38,2.46-.37,4.92-.76,7.36-1.26,.48-.1,1.1-.67,1.22-1.13,1.73-6.53,4.26-12.71,7.7-18.53,.26-.43,.14-1.35-.16-1.81-1.4-2.12-2.95-4.15-4.41-6.24-2.27-3.26-2.26-6.92,.43-9.85,3.33-3.62,6.83-7.1,10.45-10.43,2.76-2.55,6.48-2.57,9.6-.43,2.14,1.47,4.26,2.99,6.34,4.55,.71,.53,1.23,.57,2.01,.1,5.63-3.43,11.66-5.94,18.05-7.53,1.01-.25,1.41-.69,1.55-1.69,.32-2.36,.77-4.7,1.14-7.05,.66-4.2,3.38-6.71,7.67-7.02,1.24-.09,2.48-.24,3.73-.27,3.55-.09,5.93,2.16,6,5.79,.07,3.58,.02,7.15,.02,10.73,0,3.36,0,6.72,0,10.08,0,4.54-1.85,6.49-6.41,6.83-12.33,.93-23.04,5.65-31.61,14.5-13.65,14.09-18.09,30.96-12.45,49.71,5.64,18.77,18.76,30.16,37.84,34.59,2.46,.57,5.04,.66,7.56,.99,3,.4,5,2.38,5.03,5.42,.09,7.48,.07,14.96,0,22.43-.02,2.87-1.83,4.48-4.37,5.42h-3.9c-.42-.1-.83-.24-1.25-.28-4.69-.45-7.15-2.75-7.89-7.35-.37-2.3-.82-4.58-1.14-6.89-.12-.89-.47-1.26-1.36-1.48-6.44-1.61-12.53-4.12-18.21-7.58-.78-.47-1.29-.44-2.01,.09-2.12,1.59-4.27,3.15-6.47,4.64-2.97,2.02-6.78,1.96-9.33-.41-3.61-3.35-7.13-6.81-10.47-10.42-2.83-3.06-2.84-6.69-.44-10.11,1.43-2.04,2.94-4.02,4.31-6.1,.3-.46,.41-1.37,.15-1.81-3.44-5.82-5.96-12-7.7-18.53-.12-.47-.74-1.03-1.22-1.13-2.44-.5-4.9-.88-7.36-1.27-4.06-.64-6.67-3.44-7.02-7.54C.27,89.6,.11,88.87,0,88.12c0-3.25,0-6.5,0-9.76ZM80.38,5.51c-1.37,.11-2.54,.25-3.72,.29-1.56,.07-2.32,.86-2.55,2.38-.47,3.1-1.03,6.19-1.54,9.29-.39,2.39-.8,2.88-3.21,3.42-7.31,1.64-14.11,4.48-20.42,8.51-1.95,1.24-2.62,1.19-4.56-.19-2.6-1.86-5.21-3.71-7.79-5.58-1.19-.86-2.32-.87-3.36,.16-3.12,3.08-6.22,6.18-9.31,9.29-1.15,1.15-1.08,2.35-.13,3.63,1.93,2.62,3.78,5.29,5.7,7.91,.99,1.35,1.06,2.63,.14,4.04-4.24,6.51-7.15,13.58-8.78,21.17-.34,1.59-1.26,2.42-2.84,2.67-3.26,.51-6.51,1.1-9.78,1.59-1.47,.22-2.31,.99-2.32,2.44-.05,4.49-.05,8.98,0,13.47,.02,1.35,.8,2.16,2.21,2.38,3.21,.5,6.4,1.1,9.62,1.57,1.78,.26,2.78,1.11,3.17,2.92,1.61,7.48,4.49,14.45,8.67,20.87,.95,1.46,.92,2.78-.12,4.18-1.9,2.57-3.74,5.18-5.59,7.78-1.16,1.64-1.19,2.39,.22,3.86,2.93,3.03,5.97,5.97,8.95,8.96,1.21,1.21,2.4,1.21,3.75,.22,2.62-1.93,5.29-3.78,7.9-5.71,1.36-1,2.63-1.03,4.04-.11,6.46,4.21,13.47,7.12,21.02,8.73,1.73,.37,2.56,1.36,2.81,3.09,.46,3.21,1.06,6.41,1.56,9.62,.18,1.14,.67,2.01,1.82,2.2,1.42,.23,2.87,.27,4.38,.4,.04-.62,.09-1.04,.09-1.46,.02-6.39,0-12.79,.08-19.18,.02-1.39-.5-1.65-1.76-1.8-3.11-.38-6.25-.73-9.27-1.52-29.07-7.57-46.69-36.12-40.51-65.48,4.61-21.9,22.72-39.32,44.69-42.95,2.21-.37,4.45-.62,6.73-.93V5.51Z"/>
  <path class="cls-1" d="M86.1,47.15v5.54c.66,0,1.28,0,1.9,0,9.16,0,18.32,0,27.48,0,.64,0,1.32,0,1.92,.2,1.35,.43,2.05,1.46,1.89,2.86-.15,1.38-.99,2.26-2.42,2.44-.53,.07-1.08,.03-1.62,.03-9.05,0-18.1,0-27.16,0h-1.91v8.38h1.72c13.82,0,27.64,0,41.47,0,2.92,0,3.84-.89,3.85-3.74,.01-4.01-.01-8.02,.02-12.03,0-.89-.18-1.43-1.07-1.9-3.69-1.96-5.32-5.93-4.14-9.77,1.12-3.66,4.69-6.18,8.38-5.91,4.15,.3,7.24,3.22,7.84,7.39,.44,3.11-1.17,6.51-4.08,8.06-1.16,.62-1.43,1.33-1.41,2.53,.07,3.96,.04,7.91,.02,11.87-.03,5.58-3.49,9.04-9.03,9.05-13.93,0-27.86,0-41.79,0-.58,0-1.17,0-1.83,0v8.22c.65,.03,1.22,.08,1.8,.08,20.27,0,40.54,0,60.82,.02,1.07,0,1.71-.23,2.27-1.29,1.8-3.39,5.8-4.98,9.44-3.96,3.54,1,6.04,4.27,6.06,7.96,.02,3.75-2.5,7.07-6.13,8.07-3.67,1.01-7.59-.6-9.41-4.02-.53-.99-1.12-1.22-2.14-1.22-20.33,.02-40.65,.02-60.98,.02-.53,0-1.06,.05-1.7,.08v8.21h1.89c13.77,0,27.54,0,41.3,0,6.09,0,9.44,3.36,9.45,9.46,0,3.96,.02,7.91,0,11.87,0,.87,.13,1.43,1.04,1.92,3.58,1.9,5.19,5.66,4.21,9.47-.91,3.57-4.29,6.19-8.02,6.22-3.75,.03-7.2-2.66-8.11-6.31-.94-3.77,.77-7.44,4.3-9.49,.48-.28,.97-1.01,.98-1.55,.08-4.23,.07-8.46,.03-12.68-.02-2.33-1.07-3.34-3.43-3.35-14.15-.01-28.29,0-42.44,0-.37,0-.73,.06-1.2,.1v8.27h1.85c9.05,0,18.1,0,27.16,0,.54,0,1.09-.02,1.62,.03,1.4,.14,2.43,1.18,2.54,2.52,.11,1.3-.8,2.57-2.14,2.88-.57,.13-1.18,.11-1.78,.11-9.11,0-18.21,0-27.32,0h-1.91v5.54h1.75c4.66,0,9.32,0,13.98,0,5.72,.01,9.05,3.36,9.07,9.11,.01,4.93,.03,9.87-.02,14.8,0,1.02,.22,1.62,1.21,2.15,3.45,1.81,5.09,5.71,4.11,9.37-.98,3.67-4.23,6.2-7.99,6.22-3.76,.02-7.14-2.53-8.09-6.09-1.01-3.81,.59-7.64,4.11-9.51,.84-.45,1.15-.92,1.14-1.85-.04-5.09,0-10.19-.03-15.29,0-2.38-.98-3.35-3.36-3.36-5.2-.01-10.41-.02-15.61,.02-.52,0-1.21,.22-1.51,.58-1.33,1.62-3.01,2.18-5.04,2.02-9.95-.78-18.8-4.33-26.11-11.11-13.2-12.23-17.96-27.39-13.29-44.72,4.63-17.21,16.36-27.73,33.69-31.89,2.04-.49,4.17-.61,6.27-.81,1.74-.17,3.12,.57,4.33,1.83,.41,.43,1.15,.77,1.74,.78,5.2,.06,10.41,.04,15.61,.03,2.29,0,3.28-.98,3.29-3.25,.02-5.15-.01-10.3,.03-15.45,0-.88-.28-1.32-1.06-1.74-3.56-1.91-5.18-5.64-4.2-9.47,.91-3.57,4.28-6.18,8.02-6.19,3.82,0,7.16,2.58,8.1,6.29,.94,3.69-.71,7.5-4.2,9.34-.95,.5-1.15,1.07-1.14,2.03,.04,5.04,.04,10.08,.01,15.12-.03,5.52-3.42,8.86-8.97,8.87-4.72,0-9.43,0-14.15,0-.53,0-1.06,0-1.76,0Zm-5.71-2.71c-13.54,1.5-24.05,7.69-30.69,19.42-7.7,13.61-7.29,27.44,1.14,40.62,6.8,10.63,16.88,16.22,29.55,17.54V44.45Zm30.57-30.54c.02-1.55-1.2-2.82-2.72-2.82-1.5,0-2.8,1.31-2.78,2.8,.02,1.45,1.22,2.66,2.68,2.71,1.58,.05,2.79-1.11,2.82-2.69Zm-2.72,135.99c-1.53,0-2.81,1.27-2.78,2.78,.03,1.5,1.36,2.78,2.85,2.73,1.47-.04,2.63-1.24,2.66-2.73,.02-1.58-1.15-2.78-2.73-2.78Zm49.98-63.9c1.53-.01,2.78-1.3,2.75-2.81-.04-1.53-1.32-2.72-2.87-2.67-1.5,.05-2.63,1.22-2.64,2.71-.01,1.54,1.23,2.78,2.76,2.77Zm-22.18-47.12c-1.57-.02-2.77,1.16-2.76,2.74,0,1.5,1.12,2.68,2.61,2.74,1.53,.06,2.83-1.14,2.89-2.66,.05-1.51-1.19-2.79-2.73-2.81Zm-.12,83.26c-1.56,.04-2.71,1.27-2.65,2.85,.06,1.49,1.24,2.62,2.72,2.62,1.53,0,2.79-1.27,2.77-2.78-.02-1.52-1.31-2.73-2.84-2.69Z"/>
</svg>