<?xml version="1.0" encoding="UTF-8"?>
<svg id="Layer_1" data-name="Layer 1" xmlns="http://www.w3.org/2000/svg" viewBox="0 0 484.37 455.19">
  <defs>
    <style>
      .cls-1 {
        opacity: .1;
      }

      .cls-1, .cls-2, .cls-3 {
        fill: #00f3a1;
      }

      .cls-4 {
        fill: #0ac9b8;
      }

      .cls-3 {
        opacity: .2;
      }
    </style>
  </defs>
  <path class="cls-4" d="M430.93,131.25c-2.73,.33-5.46,.65-8.2,.98-1.05-.03-2.11-.13-3.16-.09-13.17,.41-25.13-3.48-36.29-10.19-9.43-5.67-16.49-13.66-22.31-22.87-1.32-2.58-2.63-5.17-3.95-7.75-.23-.81-.42-1.63-.7-2.42-4.2-11.94-5.19-24.1-2.58-36.52,1.69-8.05,5.06-15.42,9.15-22.5,2.24-2.86,4.49-5.72,6.73-8.58,.43-.46,.87-.92,1.3-1.38,7.67-7.09,16.06-13.09,26.13-16.28,23.85-7.55,45.56-3.43,64.59,12.81,15.84,13.52,23.12,31.15,22.71,51.86-.55,27.99-20.45,53.46-47.47,61.09-1.52,.43-3.01,.96-4.52,1.44-.48,.14-.96,.27-1.44,.41Zm12.35-117.3c-.74-.71-1.63-1.09-2.64-1.25-10.22-4.4-20.81-5.59-31.76-3.65-4.78,.46-9.33,1.92-13.65,3.87-24.49,11.04-37.82,35.39-34.07,61.96,3.37,23.83,22.4,43.78,45.76,47.97,11.58,2.23,22.86,1.41,33.74-3.36,.42-.2,.84-.41,1.27-.61,1.31-.35,2.5-.94,3.55-1.8,3.81-1.67,7.19-4.05,10.28-6.76,20.87-18.31,26.4-45.6,14.17-70.48-5.53-11.25-14.13-19.61-25.33-25.27-.44-.21-.87-.41-1.31-.62Z"/>
  <path class="cls-3" d="M422.61,157.55c-13.45,.99-25.85-2.35-37.3-9.28-15.78-9.56-25.41-23.61-29.7-41.43-.59-2.44-.9-4.95-1.34-7.43,2.24-.11,4.47-.22,6.71-.33,5.82,9.2,12.88,17.19,22.31,22.87,11.16,6.72,23.12,10.6,36.29,10.19,1.05-.03,2.11,.06,3.16,.09-.04,8.44-.08,16.88-.13,25.32Z"/>
  <path class="cls-3" d="M443.28,13.95c-1.42,.72-2.71,1.17-2.64-1.25,1,.16,1.9,.54,2.64,1.25Z"/>
  <path class="cls-3" d="M440.66,119.49c.04-.57-.22-1.34,.47-1.57,.7-.23,.65,.52,.8,.95-.42,.2-.84,.41-1.27,.61Z"/>
  <g>
    <path class="cls-2" d="M431.01,375.87c0-80.06,0-160.12,0-240.18,0-1.48-.05-2.96-.07-4.44-2.73,.33-5.46,.65-8.2,.98-.04,8.44-.08,16.88-.13,25.31,.05,1.16,.13,2.32,.13,3.48,0,75.54,0,151.09,0,226.63,0,9.78-2.99,18.27-10.57,24.82-4.47,3.86-9.73,5.89-15.53,6.54-1.89,.21-3.8,.25-5.7,.25-108.03,.01-216.06,0-324.08,.03-7.74,0-14.97-1.48-20.96-6.68-6.14-5.34-9.95-11.98-10.4-20.28-.08-1.58-.14-3.17-.14-4.76,0-108.77,.02-217.53-.06-326.3,0-6.99,1.31-13.48,5.35-19.19,5.25-7.42,12.58-11.45,21.61-12.21,2.94-.25,5.91-.06,8.87-.08,.74-.04,1.47-.13,2.21-.13,48.68,0,97.37,0,146.05,.02,.74,0,1.47,.07,2.21,.11,1.05-.04,2.11-.13,3.16-.13,44.89,0,89.77,0,134.66,.02,1.15,0,2.31,.13,3.47,.19,2.24-2.86,4.49-5.72,6.73-8.58-1.58-.04-3.17-.1-4.75-.1-97.94,0-195.88,.03-293.82,.03-1.69,0-3.38-.09-5.07-.14-13.38,.21-24.38,5.25-32.28,16.25-4.9,6.82-6.69,14.67-6.92,22.94,.05,1.48,.14,2.96,.14,4.43,0,105.44,0,210.89,0,316.33,0,1.27-.08,2.53-.12,3.8,.02,6.54,.4,12.99,2.85,19.22,3.53,8.98,9.97,15.17,18.1,19.89,6.75,3.24,14,3.85,21.32,3.85,99.33,.01,198.65,0,297.98,0,3.62-.95,7.31-.31,10.96-.42,2.2-.06,1.55,1.31,.74,2.2-3.04,3.31-5.84,6.89-9.86,9.14-9.04,6.05-18.95,8.92-29.84,8.21-1.27,.04-2.53,.11-3.8,.11-91.11,0-182.23,0-273.34,0-1.16,0-2.32-.07-3.48-.11-29.62,1.67-51.76-20.47-50.1-50.1-.04-1.16-.11-2.32-.11-3.48,0-91.22,0-182.44,0-273.65,0-1.37,.07-2.74,.11-4.12-.56-15.31,4.5-28.18,16.48-38.06,.8-3.34,.16-6.77,.58-10.13-1.17-.05-1.96,.72-2.79,1.34C7.78,79.82,.07,94.62,.05,113.07-.03,208.91,.02,304.75,0,400.59c0,6.09,.86,12.05,2.84,17.77,7.82,22.55,27.77,36.7,51.68,36.8,11.43,.05,22.85,.01,34.27,.01,84.31,0,168.62,0,252.93,0,19.46,0,34.63-8.28,45.72-24.05,1.72-2.45,3.29-3.41,6.29-3.46,18.02-.27,32.9-12.65,36.42-29.98,1.04-5.12,.79-10.31,.98-15.48-.04-2.11-.13-4.23-.13-6.34Z"/>
    <path class="cls-2" d="M354.26,99.41c2.24-.11,4.47-.22,6.71-.33-1.32-2.58-2.64-5.17-3.95-7.75-44.62,.01-89.24,.03-133.86,.03-1.16,0-2.32-.11-3.47-.17-1.37,.05-2.74,.15-4.11,.16-40.12,.01-80.24,0-120.37,.02-5.07,0-10.13,.06-15.2,.1-1.6,1.34-2.98,2.78-2.12,5.13,.9,2.46,2.9,2.81,5.15,2.71,.84-.04,1.69,0,2.54,0,88.08,0,176.16,0,264.24,0,1.48,0,2.96,.08,4.43,.12Z"/>
    <path class="cls-2" d="M112.91,61.42c-.15-3.53-3.32-6.6-6.83-6.6s-6.89,3.29-6.84,6.91c.05,3.64,3.38,6.86,6.99,6.76,3.65-.1,6.83-3.46,6.68-7.07Z"/>
    <path class="cls-2" d="M85.46,61.62c-.01-3.65-3.27-6.85-6.93-6.8-3.54,.05-6.63,3.14-6.7,6.71-.08,3.68,3.06,6.91,6.77,6.95,3.63,.04,6.88-3.2,6.86-6.86Z"/>
    <path class="cls-2" d="M140.31,61.63c-.01-3.69-3.25-6.89-6.88-6.8-3.72,.09-6.76,3.29-6.65,7.02,.1,3.62,3.15,6.63,6.71,6.63s6.83-3.14,6.82-6.86Z"/>
  </g>
  <path class="cls-3" d="M406.78,93.91c.91-.56,1.83-1.12,2.74-1.68-.01,2.03-.84,2.73-2.74,1.68Z"/>
  <path class="cls-4" d="M442.92,41.6s-.14,0-.14,0c0,0,.14,0,.14,0Z"/>
  <path class="cls-3" d="M469.92,39.84c-5.53-11.25-14.13-19.61-25.33-25.27h0c-.44-.21-.87-.41-1.31-.62-1.42,.72-2.71,1.17-2.64-1.25-10.22-4.4-20.81-5.59-31.76-3.65-4.78,.46-9.33,1.92-13.65,3.87-24.49,11.04-37.82,35.39-34.07,61.96,3.37,23.83,22.4,43.78,45.76,47.98,0,0,0,0,0,0,11.58,2.23,22.86,1.41,33.74-3.36,.04-.57-.22-1.34,.47-1.57,.7-.23,.65,.52,.8,.95,1.31-.35,2.5-.94,3.55-1.8,3.81-1.67,7.19-4.05,10.28-6.76,20.87-18.31,26.4-45.6,14.17-70.48Zm-50.57,10.44c2.85,0,5.7,.1,8.55-.03-2.84,.13-5.7,.03-8.55,.03-3.06,0-6.12,.06-9.18-.03,3.06,.09,6.12,.03,9.18,.03Zm24.23-9.6c-.15,.33-.39,.64-.77,.9,0,0,0,0,0,0,.38-.26,.62-.57,.77-.9Zm-2.27,1.71c-.02,.08-.04,.17-.05,.27h0c.01-.09,.03-.18,.05-.27Zm-34.53,51.52c.91-.56,1.83-1.12,2.74-1.68-.01,2.03-.84,2.73-2.74,1.68Z"/>
  <g>
    <path class="cls-2" d="M225.51,316.94c-19.44,0-38.87,0-58.31,0-2.34,0-4.72,.18-6.96-.73-5.51-2.25-7.76-8.6-4.89-14.24,2.05-4.04,4.37-7.93,6.58-11.89,3.31-5.93,6.62-11.87,9.96-17.79,.76-1.33,.87-2.73,.89-4.21,.13-10.2-.29-20.4,.25-30.6,.82-15.4,6.52-28.9,15.86-40.98,9.77-12.64,21.68-22.84,35.36-31.05,1.52-.91,2.56-1,4.1,0,15.57,10.19,28.87,22.68,38.93,38.41,6.29,9.83,9.87,20.65,10.81,32.34,.85,10.6,.32,21.21,.44,31.81,.02,1.93,.43,3.6,1.38,5.29,5.33,9.44,10.65,18.88,15.82,28.41,3.03,5.58,.94,11.93-4.49,14.38-2.06,.93-4.27,.85-6.45,.86-19.76,.01-39.52,0-59.28,0Zm4.06-142.17q-3.24-2.66-6.55-.51c-11.37,7.38-21.25,16.39-29.49,27.16-8.22,10.74-13.04,22.82-13.77,36.41-.59,10.84-.15,21.69-.25,32.54-.07,8.34,0,16.68-.05,25.02-.02,3.15-2.51,4.91-4.9,3.56-1.43-.81-1.87-2.14-1.86-3.7,0-3.18,0-6.36,0-9.54-4.27,6.65-8.07,13.39-11.62,20.25-1.13,2.19,.4,4.16,3.07,4.17,9.79,.03,19.59-.04,29.38-.07,.32,.03,.64,.09,.97,.09,30.61,0,61.23,.02,91.84,0,3.69,0,4.98-2.33,3.16-5.67-2.82-5.19-5.71-10.35-8.57-15.51-.64-1.15-1.3-2.28-1.96-3.42-.45,1.17-.45,2.13-.45,3.09,0,2.43,.09,4.87-.06,7.29-.13,1.99-1.22,3.36-3.38,3.42-1.96,.05-3.23-1.39-3.32-3.67-.03-.65,0-1.3,0-1.94,.02-16.2,.13-32.4,.02-48.6-.04-6.14-.4-12.29-1.94-18.3-3.01-11.77-8.81-21.99-16.89-31.01-7.04-7.86-14.47-15.26-23.37-21.05Z"/>
    <path class="cls-2" d="M225.62,333.47c-10.37,0-20.73-.02-31.1,.02-1.71,0-3.02-.47-3.66-2.16-.53-1.38-.1-2.55,.91-3.53,.75-.72,1.72-.84,2.71-.84,20.73,0,41.47-.01,62.2,.02,2.41,0,3.62,1.26,3.55,3.34-.07,2.06-1.28,3.14-3.76,3.15-10.29,.02-20.57,.01-30.86,.01Z"/>
    <path class="cls-2" d="M225.63,347.99c-3.8,0-7.6,.02-11.41,0-2.39-.02-4.05-1.35-4.11-3.2-.07-2.08,1.47-3.51,4.05-3.53,7.6-.05,15.21-.04,22.81,0,2.61,.01,4.14,1.39,4.11,3.47-.03,1.93-1.73,3.24-4.3,3.26-3.72,.02-7.44,0-11.16,0Z"/>
    <path class="cls-1" d="M229.57,174.76c8.89,5.79,16.33,13.19,23.37,21.05,8.08,9.02,13.88,19.25,16.89,31.01,1.54,6.01,1.9,12.16,1.94,18.3,.11,16.2,0,32.4-.02,48.6,0,.65-.02,1.3,0,1.94,.1,2.28,1.36,3.73,3.32,3.67,2.16-.06,3.25-1.43,3.38-3.42,.15-2.42,.05-4.86,.06-7.29,0-.96,0-1.92,.45-3.09,.65,1.14,1.32,2.27,1.96,3.42,2.87,5.17,5.75,10.32,8.57,15.51,1.81,3.34,.53,5.67-3.16,5.67-30.61,.02-61.23,0-91.84,0-.32,0-.64-.06-.97-.09,0-23.58-.02-47.15,.01-70.73,.01-7.42,1.83-14.52,4.3-21.46,2.88-8.08,7.52-15.27,12.66-21.96,5.77-7.51,11.46-15.23,19.07-21.14Zm-4.04,82.35c11.7,.06,21.3-9.45,21.41-21.24,.12-11.61-9.47-21.25-21.27-21.38-11.63-.13-21.41,9.58-21.41,21.23,0,11.76,9.51,21.33,21.26,21.39Zm-.1,22.23c2.42,.11,4.74-2.07,4.8-4.51,.06-2.47-1.84-4.52-4.31-4.66-2.64-.15-4.72,1.68-4.9,4.29-.17,2.41,1.96,4.76,4.42,4.87Zm4.76,12.07c-.04-2.51-2.24-4.66-4.69-4.59-2.36,.06-4.49,2.21-4.52,4.55-.03,2.67,2.12,4.73,4.84,4.62,2.5-.1,4.41-2.1,4.36-4.58Z"/>
    <path class="cls-2" d="M225.53,257.12c-11.75-.06-21.25-9.62-21.26-21.39,0-11.65,9.78-21.36,21.41-21.23,11.8,.13,21.38,9.76,21.27,21.38-.12,11.79-9.71,21.3-21.41,21.24Zm.03-6.8c8.03,.02,14.64-6.53,14.61-14.45-.03-7.89-6.74-14.65-14.55-14.66-7.9-.01-14.52,6.6-14.58,14.58-.06,7.94,6.51,14.52,14.52,14.54Z"/>
    <path class="cls-2" d="M225.42,279.35c-2.46-.11-4.58-2.46-4.42-4.87,.18-2.61,2.26-4.44,4.9-4.29,2.47,.14,4.37,2.19,4.31,4.66-.06,2.44-2.38,4.62-4.8,4.51Z"/>
    <path class="cls-2" d="M230.19,291.42c.04,2.48-1.86,4.48-4.36,4.58-2.72,.11-4.87-1.95-4.84-4.62,.03-2.34,2.16-4.49,4.52-4.55,2.45-.06,4.64,2.09,4.69,4.59Z"/>
  </g>
  <path class="cls-2" d="M411.83,90.71h-.11c-.88-.04-1.7-.43-2.26-1.11l-16.28-19.54c-1.09-1.31-.92-3.26,.39-4.35,1.3-1.09,3.25-.92,4.35,.39l14.08,16.89,26.9-27.91c1.19-1.24,3.15-1.25,4.37-.08,1.23,1.19,1.27,3.14,.08,4.37l-29.3,30.39c-.59,.61-1.39,.95-2.23,.95Z"/>
</svg>