<?xml version="1.0" encoding="UTF-8"?>
<svg id="Layer_1" data-name="Layer 1" xmlns="http://www.w3.org/2000/svg" viewBox="0 0 484.37 455.19">
  <defs>
    <style>
      .cls-1 {
        fill: #0ac9b8;
      }

      .cls-2, .cls-3 {
        fill: #00f3a1;
      }

      .cls-3 {
        opacity: .2;
      }
    </style>
  </defs>
  <g>
    <path class="cls-1" d="M430.93,131.25c-2.73,.33-5.46,.65-8.2,.98-1.05-.03-2.11-.13-3.16-.09-13.17,.41-25.13-3.48-36.29-10.19-9.43-5.67-16.49-13.66-22.31-22.87-1.32-2.58-2.63-5.17-3.95-7.75-.23-.81-.42-1.63-.7-2.42-4.2-11.94-5.19-24.1-2.58-36.52,1.69-8.05,5.06-15.42,9.15-22.5,2.24-2.86,4.49-5.72,6.73-8.58,.43-.46,.87-.92,1.3-1.38,7.67-7.09,16.06-13.09,26.13-16.28,23.85-7.55,45.56-3.43,64.59,12.81,15.84,13.52,23.12,31.15,22.71,51.86-.55,27.99-20.45,53.46-47.47,61.09-1.52,.43-3.01,.96-4.52,1.44-.48,.14-.96,.27-1.44,.41Zm12.35-117.3c-.74-.71-1.63-1.09-2.64-1.25-10.22-4.4-20.81-5.59-31.76-3.65-4.78,.46-9.33,1.92-13.65,3.87-24.49,11.04-37.82,35.39-34.07,61.96,3.37,23.83,22.4,43.78,45.76,47.97,11.58,2.23,22.86,1.41,33.74-3.36,.42-.2,.84-.41,1.27-.61,1.31-.35,2.5-.94,3.55-1.8,3.81-1.67,7.19-4.05,10.28-6.76,20.87-18.31,26.4-45.6,14.17-70.48-5.53-11.25-14.13-19.61-25.33-25.27-.44-.21-.87-.41-1.31-.62Z"/>
    <path class="cls-3" d="M422.61,157.55c-13.45,.99-25.85-2.35-37.3-9.28-15.78-9.56-25.41-23.61-29.7-41.43-.59-2.44-.9-4.95-1.34-7.43,2.24-.11,4.47-.22,6.71-.33,5.82,9.2,12.88,17.19,22.31,22.87,11.16,6.72,23.12,10.6,36.29,10.19,1.05-.03,2.11,.06,3.16,.09-.04,8.44-.08,16.88-.13,25.32Z"/>
    <path class="cls-3" d="M443.28,13.95c-1.42,.72-2.71,1.17-2.64-1.25,1,.16,1.9,.54,2.64,1.25Z"/>
    <path class="cls-3" d="M440.66,119.49c.04-.57-.22-1.34,.47-1.57,.7-.23,.65,.52,.8,.95-.42,.2-.84,.41-1.27,.61Z"/>
    <g>
      <path class="cls-2" d="M431.01,375.87c0-80.06,0-160.12,0-240.18,0-1.48-.05-2.96-.07-4.44-2.73,.33-5.46,.65-8.2,.98-.04,8.44-.08,16.88-.13,25.31,.05,1.16,.13,2.32,.13,3.48,0,75.54,0,151.09,0,226.63,0,9.78-2.99,18.27-10.57,24.82-4.47,3.86-9.73,5.89-15.53,6.54-1.89,.21-3.8,.25-5.7,.25-108.03,.01-216.06,0-324.08,.03-7.74,0-14.97-1.48-20.96-6.68-6.14-5.34-9.95-11.98-10.4-20.28-.08-1.58-.14-3.17-.14-4.76,0-108.77,.02-217.53-.06-326.3,0-6.99,1.31-13.48,5.35-19.19,5.25-7.42,12.58-11.45,21.61-12.21,2.94-.25,5.91-.06,8.87-.08,.74-.04,1.47-.13,2.21-.13,48.68,0,97.37,0,146.05,.02,.74,0,1.47,.07,2.21,.11,1.05-.04,2.11-.13,3.16-.13,44.89,0,89.77,0,134.66,.02,1.15,0,2.31,.13,3.47,.19,2.24-2.86,4.49-5.72,6.73-8.58-1.58-.04-3.17-.1-4.75-.1-97.94,0-195.88,.03-293.82,.03-1.69,0-3.38-.09-5.07-.14-13.38,.21-24.38,5.25-32.28,16.25-4.9,6.82-6.69,14.67-6.92,22.94,.05,1.48,.14,2.96,.14,4.43,0,105.44,0,210.89,0,316.33,0,1.27-.08,2.53-.12,3.8,.02,6.54,.4,12.99,2.85,19.22,3.53,8.98,9.97,15.17,18.1,19.89,6.75,3.24,14,3.85,21.32,3.85,99.33,.01,198.65,0,297.98,0,3.62-.95,7.31-.31,10.96-.42,2.2-.06,1.55,1.31,.74,2.2-3.04,3.31-5.84,6.89-9.86,9.14-9.04,6.05-18.95,8.92-29.84,8.21-1.27,.04-2.53,.11-3.8,.11-91.11,0-182.23,0-273.34,0-1.16,0-2.32-.07-3.48-.11-29.62,1.67-51.76-20.47-50.1-50.1-.04-1.16-.11-2.32-.11-3.48,0-91.22,0-182.44,0-273.65,0-1.37,.07-2.74,.11-4.12-.56-15.31,4.5-28.18,16.48-38.06,.8-3.34,.16-6.77,.58-10.13-1.17-.05-1.96,.72-2.79,1.34C7.78,79.82,.07,94.62,.05,113.07-.03,208.91,.02,304.75,0,400.59c0,6.09,.86,12.05,2.84,17.77,7.82,22.55,27.77,36.7,51.68,36.8,11.43,.05,22.85,.01,34.27,.01,84.31,0,168.62,0,252.93,0,19.46,0,34.63-8.28,45.72-24.05,1.72-2.45,3.29-3.41,6.29-3.46,18.02-.27,32.9-12.65,36.42-29.98,1.04-5.12,.79-10.31,.98-15.48-.04-2.11-.13-4.23-.13-6.34Z"/>
      <path class="cls-2" d="M354.26,99.41c2.24-.11,4.47-.22,6.71-.33-1.32-2.58-2.64-5.17-3.95-7.75-44.62,.01-89.24,.03-133.86,.03-1.16,0-2.32-.11-3.47-.17-1.37,.05-2.74,.15-4.11,.16-40.12,.01-80.24,0-120.37,.02-5.07,0-10.13,.06-15.2,.1-1.6,1.34-2.98,2.78-2.12,5.13,.9,2.46,2.9,2.81,5.15,2.71,.84-.04,1.69,0,2.54,0,88.08,0,176.16,0,264.24,0,1.48,0,2.96,.08,4.43,.12Z"/>
      <path class="cls-2" d="M112.91,61.42c-.15-3.53-3.32-6.6-6.83-6.6s-6.89,3.29-6.84,6.91c.05,3.64,3.38,6.86,6.99,6.76,3.65-.1,6.83-3.46,6.68-7.07Z"/>
      <path class="cls-2" d="M85.46,61.62c-.01-3.65-3.27-6.85-6.93-6.8-3.54,.05-6.63,3.14-6.7,6.71-.08,3.68,3.06,6.91,6.77,6.95,3.63,.04,6.88-3.2,6.86-6.86Z"/>
      <path class="cls-2" d="M140.31,61.63c-.01-3.69-3.25-6.89-6.88-6.8-3.72,.09-6.76,3.29-6.65,7.02,.1,3.62,3.15,6.63,6.71,6.63s6.83-3.14,6.82-6.86Z"/>
    </g>
    <path class="cls-3" d="M406.78,93.91c.91-.56,1.83-1.12,2.74-1.68-.01,2.03-.84,2.73-2.74,1.68Z"/>
    <path class="cls-1" d="M442.92,41.6s-.14,0-.14,0c0,0,.14,0,.14,0Z"/>
    <path class="cls-3" d="M469.92,39.84c-5.53-11.25-14.13-19.61-25.33-25.27h0c-.44-.21-.87-.41-1.31-.62-1.42,.72-2.71,1.17-2.64-1.25-10.22-4.4-20.81-5.59-31.76-3.65-4.78,.46-9.33,1.92-13.65,3.87-24.49,11.04-37.82,35.39-34.07,61.96,3.37,23.83,22.4,43.78,45.76,47.98,0,0,0,0,0,0,11.58,2.23,22.86,1.41,33.74-3.36,.04-.57-.22-1.34,.47-1.57,.7-.23,.65,.52,.8,.95,1.31-.35,2.5-.94,3.55-1.8,3.81-1.67,7.19-4.05,10.28-6.76,20.87-18.31,26.4-45.6,14.17-70.48Zm-50.57,10.44c2.85,0,5.7,.1,8.55-.03-2.84,.13-5.7,.03-8.55,.03-3.06,0-6.12,.06-9.18-.03,3.06,.09,6.12,.03,9.18,.03Zm24.23-9.6c-.15,.33-.39,.64-.77,.9,0,0,0,0,0,0,.38-.26,.62-.57,.77-.9Zm-2.27,1.71c-.02,.08-.04,.17-.05,.27h0c.01-.09,.03-.18,.05-.27Zm-34.53,51.52c.91-.56,1.83-1.12,2.74-1.68-.01,2.03-.84,2.73-2.74,1.68Z"/>
  </g>
  <g>
    <path class="cls-2" d="M138.46,249.19c1.28-3.74,3.61-6.26,7.77-6.58,.78-.06,1.68-.14,2.35,.17,1.61,.76,2.52,.03,3.59-1.06,7.83-7.91,15.71-15.76,23.58-23.63,.4-.4,.78-.81,1.15-1.2-3.27-5.48-3.5-12.49,2.1-18,3.8-3.73,10.48-5.7,17.38-1.59,.34-.3,.73-.6,1.07-.95,8.14-8.16,16.29-16.31,24.39-24.5,.45-.45,.83-1.38,.68-1.94-1.34-5,.75-9.13,5.6-10.82,.21-.07,.4-.2,.6-.3,1.14,0,2.27,0,3.41,0,3.53,1.2,6.05,3.34,6.54,7.25,.75,5.94-4.59,10.66-10.36,9.09-1.25-.34-1.93-.08-2.78,.78-4.18,4.26-8.42,8.45-12.65,12.66-.4,.39-.84,.73-1.18,1.21,28.37-10.8,54.94-7.64,80.33,10.03,1.16-1.3,2.42-2.82,3.79-4.22,1.67-1.7,3.02-1.7,4.68-.06,3.75,3.72,7.49,7.46,11.2,11.22,1.59,1.61,1.58,2.96-.01,4.57-3.72,3.75-7.45,7.49-11.2,11.21-1.59,1.58-2.98,1.59-4.57,.02-3.76-3.71-7.51-7.43-11.24-11.17-1.64-1.64-1.61-3.05,.03-4.7,.96-.96,1.93-1.91,2.9-2.87-23.04-18.06-59.59-20.48-86.52-1.47,2.7,6.55,2.06,12.61-3.54,17.4-4.65,3.97-9.98,4.18-15.46,1.73-16.37,21.69-19.64,58.92,1.42,86.98,.97-1.11,1.84-2.23,2.84-3.23,1.58-1.59,3.03-1.6,4.58-.05,3.78,3.77,7.54,7.57,11.27,11.39,1.51,1.54,1.5,2.92-.02,4.45-3.75,3.8-7.53,7.57-11.32,11.33-1.55,1.53-2.9,1.55-4.44,.03-3.84-3.8-7.65-7.61-11.44-11.46-1.44-1.46-1.42-2.85,.04-4.32,1.44-1.45,2.97-2.79,4.35-4.08-17.54-25.26-20.72-51.86-9.77-80.34-.29,.23-.55,.39-.76,.6-4.51,4.49-9.01,8.99-13.52,13.47-.59,.59-.92,1.05-.63,2.04,1.4,4.65-.84,9.06-5.22,10.56-4.36,1.49-8.77-.67-10.6-5.2-.1-.25-.27-.46-.4-.69,0-1.25,0-2.5,0-3.75Zm58.67-40.05c.04-4.77-3.73-8.63-8.44-8.66-4.65-.03-8.59,3.89-8.6,8.56-.01,4.65,3.75,8.46,8.41,8.53,4.78,.07,8.59-3.65,8.63-8.43Zm-8.55,117.22c2.61-2.62,5.23-5.26,7.69-7.73-2.5-2.5-5.12-5.13-7.66-7.68-2.53,2.55-5.16,5.18-7.69,7.73,2.54,2.55,5.17,5.18,7.66,7.68Zm109.62-109.69c2.53-2.55,5.13-5.18,7.65-7.71-2.49-2.49-5.11-5.11-7.64-7.63-2.51,2.51-5.13,5.13-7.64,7.64,2.51,2.53,5.11,5.16,7.63,7.7Zm-67.68-52.42c-1.6-.04-2.92,1.25-2.94,2.87-.02,1.56,1.17,2.84,2.71,2.92,1.6,.09,2.97-1.17,3.04-2.78,.07-1.6-1.21-2.97-2.81-3.01Zm-80.83,86.68c.02-1.56-1.18-2.82-2.75-2.87-1.61-.06-2.74,.97-2.78,2.55-.05,1.65,1.19,2.98,2.82,3,1.53,.02,2.7-1.12,2.72-2.67Z"/>
    <path class="cls-2" d="M313.42,288.04c-.87,1.23-1.37,2.17-2.09,2.9-7.6,7.66-15.24,15.29-22.87,22.93-5.86,5.87-11.72,11.74-17.58,17.61-2.98,2.99-4.39,2.74-6.3-1.09-2.49-4.98-4.92-9.98-7.5-14.91-.44-.85-1.35-1.69-2.24-2.03-8.97-3.53-17.96-6.97-26.97-10.39-1.49-.56-2.41-1.42-3.02-2.94-9.11-22.94-18.27-45.86-27.46-68.77-.73-1.83-.53-3.19,.92-4.57,2.84-2.7,5.58-5.5,8.32-8.31,1.14-1.17,2.34-1.41,3.85-.81,23.15,9.28,46.31,18.55,69.47,27.79,1.35,.54,2.04,1.48,2.53,2.77,3.41,8.96,6.88,17.9,10.26,26.88,.5,1.33,1.25,2.13,2.51,2.74,5.2,2.53,10.37,5.12,15.5,7.79,.95,.49,1.64,1.47,2.66,2.42Zm-105.07-63.4c11.71,11.73,23.35,23.38,35,35.05,9.5-4.45,17.46-2.96,22.39,4.24,4.36,6.36,3.54,15.05-1.94,20.47-5.61,5.55-14.35,6.17-20.74,1.58-5.31-3.82-9.59-12.67-3.9-22.06-11.69-11.7-23.35-23.38-35.06-35.1-1.01,.55-1.39,1.26-.83,2.65,8.72,21.68,17.37,43.39,26.1,65.07,.31,.77,1.11,1.58,1.87,1.88,8.32,3.29,16.7,6.46,25.03,9.74,1.17,.46,1.81,.17,2.62-.64,9.32-9.39,18.67-18.76,28.05-28.09,.9-.89,1.09-1.59,.62-2.78-3.19-8.13-6.33-16.28-9.4-24.46-.5-1.34-1.23-2.1-2.56-2.63-21.48-8.55-42.94-17.14-64.39-25.79-1.38-.56-2.22-.42-2.89,.86Zm83.76,57.73c-10.15,10.15-20.17,20.18-30.27,30.29,2.18,4.36,4.42,8.83,6.5,12.97,12.3-12.31,24.5-24.53,36.69-36.74,.06,.05-.06-.07-.21-.14-4.25-2.14-8.5-4.27-12.71-6.38Zm-50.16-9.44c-.04,5.88,4.68,10.67,10.52,10.69,5.81,.02,10.64-4.81,10.63-10.63,0-5.78-4.71-10.52-10.48-10.55-5.94-.03-10.63,4.59-10.67,10.49Z"/>
  </g>
  <path class="cls-2" d="M413.85,86.85h-.11c-.88-.04-1.7-.43-2.26-1.11l-16.28-19.54c-1.09-1.31-.92-3.26,.39-4.35,1.3-1.09,3.25-.92,4.35,.39l14.08,16.89,26.9-27.91c1.19-1.24,3.15-1.25,4.37-.08,1.23,1.19,1.27,3.14,.08,4.37l-29.3,30.39c-.59,.61-1.39,.95-2.23,.95Z"/>
</svg>