<?xml version="1.0" encoding="UTF-8"?>
<svg id="Layer_1" data-name="Layer 1" xmlns="http://www.w3.org/2000/svg" viewBox="0 0 484.37 455.19">
  <defs>
    <style>
      .cls-1 {
        fill: #0ac9b8;
      }

      .cls-2, .cls-3 {
        fill: #00f3a1;
      }

      .cls-3 {
        opacity: .2;
      }
    </style>
  </defs>
  <g>
    <path class="cls-1" d="M430.93,131.25c-2.73,.33-5.46,.65-8.2,.98-1.05-.03-2.11-.13-3.16-.09-13.17,.41-25.13-3.48-36.29-10.19-9.43-5.67-16.49-13.66-22.31-22.87-1.32-2.58-2.63-5.17-3.95-7.75-.23-.81-.42-1.63-.7-2.42-4.2-11.94-5.19-24.1-2.58-36.52,1.69-8.05,5.06-15.42,9.15-22.5,2.24-2.86,4.49-5.72,6.73-8.58,.43-.46,.87-.92,1.3-1.38,7.67-7.09,16.06-13.09,26.13-16.28,23.85-7.55,45.56-3.43,64.59,12.81,15.84,13.52,23.12,31.15,22.71,51.86-.55,27.99-20.45,53.46-47.47,61.09-1.52,.43-3.01,.96-4.52,1.44-.48,.14-.96,.27-1.44,.41Zm12.35-117.3c-.74-.71-1.63-1.09-2.64-1.25-10.22-4.4-20.81-5.59-31.76-3.65-4.78,.46-9.33,1.92-13.65,3.87-24.49,11.04-37.82,35.39-34.07,61.96,3.37,23.83,22.4,43.78,45.76,47.97,11.58,2.23,22.86,1.41,33.74-3.36,.42-.2,.84-.41,1.27-.61,1.31-.35,2.5-.94,3.55-1.8,3.81-1.67,7.19-4.05,10.28-6.76,20.87-18.31,26.4-45.6,14.17-70.48-5.53-11.25-14.13-19.61-25.33-25.27-.44-.21-.87-.41-1.31-.62Z"/>
    <path class="cls-3" d="M422.61,157.55c-13.45,.99-25.85-2.35-37.3-9.28-15.78-9.56-25.41-23.61-29.7-41.43-.59-2.44-.9-4.95-1.34-7.43,2.24-.11,4.47-.22,6.71-.33,5.82,9.2,12.88,17.19,22.31,22.87,11.16,6.72,23.12,10.6,36.29,10.19,1.05-.03,2.11,.06,3.16,.09-.04,8.44-.08,16.88-.13,25.32Z"/>
    <path class="cls-3" d="M443.28,13.95c-1.42,.72-2.71,1.17-2.64-1.25,1,.16,1.9,.54,2.64,1.25Z"/>
    <path class="cls-3" d="M440.66,119.49c.04-.57-.22-1.34,.47-1.57,.7-.23,.65,.52,.8,.95-.42,.2-.84,.41-1.27,.61Z"/>
    <g>
      <path class="cls-2" d="M431.01,375.87c0-80.06,0-160.12,0-240.18,0-1.48-.05-2.96-.07-4.44-2.73,.33-5.46,.65-8.2,.98-.04,8.44-.08,16.88-.13,25.31,.05,1.16,.13,2.32,.13,3.48,0,75.54,0,151.09,0,226.63,0,9.78-2.99,18.27-10.57,24.82-4.47,3.86-9.73,5.89-15.53,6.54-1.89,.21-3.8,.25-5.7,.25-108.03,.01-216.06,0-324.08,.03-7.74,0-14.97-1.48-20.96-6.68-6.14-5.34-9.95-11.98-10.4-20.28-.08-1.58-.14-3.17-.14-4.76,0-108.77,.02-217.53-.06-326.3,0-6.99,1.31-13.48,5.35-19.19,5.25-7.42,12.58-11.45,21.61-12.21,2.94-.25,5.91-.06,8.87-.08,.74-.04,1.47-.13,2.21-.13,48.68,0,97.37,0,146.05,.02,.74,0,1.47,.07,2.21,.11,1.05-.04,2.11-.13,3.16-.13,44.89,0,89.77,0,134.66,.02,1.15,0,2.31,.13,3.47,.19,2.24-2.86,4.49-5.72,6.73-8.58-1.58-.04-3.17-.1-4.75-.1-97.94,0-195.88,.03-293.82,.03-1.69,0-3.38-.09-5.07-.14-13.38,.21-24.38,5.25-32.28,16.25-4.9,6.82-6.69,14.67-6.92,22.94,.05,1.48,.14,2.96,.14,4.43,0,105.44,0,210.89,0,316.33,0,1.27-.08,2.53-.12,3.8,.02,6.54,.4,12.99,2.85,19.22,3.53,8.98,9.97,15.17,18.1,19.89,6.75,3.24,14,3.85,21.32,3.85,99.33,.01,198.65,0,297.98,0,3.62-.95,7.31-.31,10.96-.42,2.2-.06,1.55,1.31,.74,2.2-3.04,3.31-5.84,6.89-9.86,9.14-9.04,6.05-18.95,8.92-29.84,8.21-1.27,.04-2.53,.11-3.8,.11-91.11,0-182.23,0-273.34,0-1.16,0-2.32-.07-3.48-.11-29.62,1.67-51.76-20.47-50.1-50.1-.04-1.16-.11-2.32-.11-3.48,0-91.22,0-182.44,0-273.65,0-1.37,.07-2.74,.11-4.12-.56-15.31,4.5-28.18,16.48-38.06,.8-3.34,.16-6.77,.58-10.13-1.17-.05-1.96,.72-2.79,1.34C7.78,79.82,.07,94.62,.05,113.07-.03,208.91,.02,304.75,0,400.59c0,6.09,.86,12.05,2.84,17.77,7.82,22.55,27.77,36.7,51.68,36.8,11.43,.05,22.85,.01,34.27,.01,84.31,0,168.62,0,252.93,0,19.46,0,34.63-8.28,45.72-24.05,1.72-2.45,3.29-3.41,6.29-3.46,18.02-.27,32.9-12.65,36.42-29.98,1.04-5.12,.79-10.31,.98-15.48-.04-2.11-.13-4.23-.13-6.34Z"/>
      <path class="cls-2" d="M354.26,99.41c2.24-.11,4.47-.22,6.71-.33-1.32-2.58-2.64-5.17-3.95-7.75-44.62,.01-89.24,.03-133.86,.03-1.16,0-2.32-.11-3.47-.17-1.37,.05-2.74,.15-4.11,.16-40.12,.01-80.24,0-120.37,.02-5.07,0-10.13,.06-15.2,.1-1.6,1.34-2.98,2.78-2.12,5.13,.9,2.46,2.9,2.81,5.15,2.71,.84-.04,1.69,0,2.54,0,88.08,0,176.16,0,264.24,0,1.48,0,2.96,.08,4.43,.12Z"/>
      <path class="cls-2" d="M248.5,337.51l.12-.15,.08,.18-.2-.03Z"/>
      <path class="cls-2" d="M112.91,61.42c-.15-3.53-3.32-6.6-6.83-6.6s-6.89,3.29-6.84,6.91c.05,3.64,3.38,6.86,6.99,6.76,3.65-.1,6.83-3.46,6.68-7.07Z"/>
      <path class="cls-2" d="M85.46,61.62c-.01-3.65-3.27-6.85-6.93-6.8-3.54,.05-6.63,3.14-6.7,6.71-.08,3.68,3.06,6.91,6.77,6.95,3.63,.04,6.88-3.2,6.86-6.86Z"/>
      <path class="cls-2" d="M140.31,61.63c-.01-3.69-3.25-6.89-6.88-6.8-3.72,.09-6.76,3.29-6.65,7.02,.1,3.62,3.15,6.63,6.71,6.63s6.83-3.14,6.82-6.86Z"/>
    </g>
    <path class="cls-3" d="M406.78,93.91c.91-.56,1.83-1.12,2.74-1.68-.01,2.03-.84,2.73-2.74,1.68Z"/>
    <path class="cls-1" d="M442.92,41.6s-.14,0-.14,0c0,0,.14,0,.14,0Z"/>
    <polygon class="cls-3" points="248.62 337.35 248.7 337.54 248.5 337.51 248.62 337.35"/>
    <path class="cls-3" d="M469.92,39.84c-5.53-11.25-14.13-19.61-25.33-25.27h0c-.44-.21-.87-.41-1.31-.62-1.42,.72-2.71,1.17-2.64-1.25-10.22-4.4-20.81-5.59-31.76-3.65-4.78,.46-9.33,1.92-13.65,3.87-24.49,11.04-37.82,35.39-34.07,61.96,3.37,23.83,22.4,43.78,45.76,47.98,0,0,0,0,0,0,11.58,2.23,22.86,1.41,33.74-3.36,.04-.57-.22-1.34,.47-1.57,.7-.23,.65,.52,.8,.95,1.31-.35,2.5-.94,3.55-1.8,3.81-1.67,7.19-4.05,10.28-6.76,20.87-18.31,26.4-45.6,14.17-70.48Zm-50.57,10.44c2.85,0,5.7,.1,8.55-.03-2.84,.13-5.7,.03-8.55,.03-3.06,0-6.12,.06-9.18-.03,3.06,.09,6.12,.03,9.18,.03Zm24.23-9.6c-.15,.33-.39,.64-.77,.9,0,0,0,0,0,0,.38-.26,.62-.57,.77-.9Zm-2.27,1.71c-.02,.08-.04,.17-.05,.27h0c.01-.09,.03-.18,.05-.27Zm-34.53,51.52c.91-.56,1.83-1.12,2.74-1.68-.01,2.03-.84,2.73-2.74,1.68Z"/>
  </g>
  <g>
    <path class="cls-2" d="M273.38,315.41v-5.98c-.19-.11-.29-.21-.39-.22-4.3-.24-4.44-.36-5.15-4.68-.05-.31-.13-.62-.11-.93,.26-3.5-2.12-4.63-4.86-5.37-.42-.11-1.05,.15-1.44,.43-1.45,1.07-2.83,2.24-4.27,3.33-1.62,1.23-2.9,1.2-4.32-.19-2.54-2.48-5.03-5.01-7.53-7.52-1.29-1.3-1.44-2.68-.35-4.19,.66-.91,1.19-1.92,1.96-2.73,1.6-1.68,1.79-3.25,.73-5.43-.81-1.67-1.69-2.34-3.43-2.35-1.3,0-2.6-.23-3.9-.41-2.02-.28-2.91-1.19-2.93-3.18-.05-3.61-.02-7.22,0-10.84,0-1.78,.95-2.76,2.65-3.08,.79-.15,1.59-.37,2.39-.38,3-.02,5.12-1.15,5.55-4.35,.1-.74,.05-1.68-.33-2.27-.9-1.41-2.06-2.65-3.07-3.99-1.32-1.73-1.28-2.92,.22-4.44,2.44-2.49,4.91-4.95,7.4-7.4,1.5-1.47,2.53-1.54,4.31-.34,1.44,.98,2.8,2.1,4.3,2.96,.61,.35,1.55,.35,2.29,.22,3.2-.55,4.16-2.74,3.98-5.7,0-.06,0-.12,.01-.19,.46-4.61,.84-4.95,5.51-4.95,2.74,0,5.48-.02,8.22,0,2.5,.03,3.31,.75,3.72,3.22,.13,.8,.38,1.6,.37,2.39-.02,2.61,1.03,4.16,3.69,4.89,1.36,.37,2.24,.5,3.29-.52,1.16-1.12,2.49-2.07,3.77-3.05,1.33-1.02,2.69-.95,3.88,.21,2.68,2.61,5.32,5.25,7.94,7.91,1.1,1.12,1.18,2.42,.29,3.74-.63,.93-1.17,1.94-1.94,2.74-1.78,1.83-2.03,3.63-.77,5.95,.67,1.24,1.21,1.95,2.66,2,1.61,.05,3.21,.35,4.82,.55,1.76,.22,2.67,1.24,2.67,3,.02,3.67,.02,7.35,0,11.02,0,1.59-.84,2.57-2.39,2.88-1.77,.36-3.54,.74-5.32,.94-1.15,.13-1.54,.73-2.11,1.66-1.57,2.57-.85,4.38,.98,6.5,3.64,4.22,3.51,4.33-.44,8.32-1.8,1.81-3.57,3.65-5.4,5.43-1.57,1.53-2.68,1.61-4.47,.39-.72-.49-1.51-.92-2.12-1.53-1.95-1.93-3.94-2.34-6.43-.87-1.02,.6-1.66,1.08-1.73,2.29-.08,1.43-.31,2.85-.44,4.27-.26,2.68-1.13,3.51-3.77,3.54-.74,0-1.48,0-2.47,0,0,.86,0,1.59,0,2.32,0,8.1,.01,16.19,0,24.29-.02,7.63-4.6,12.23-12.19,12.23-26.4,0-52.8,0-79.2,0-7.59,0-12.22-4.62-12.23-12.19,0-5.48,0-10.96,0-16.44,0-3.16,.79-3.95,3.98-3.95,30.45,0,60.89,0,91.34,0,.8,0,1.59,0,2.58,0Zm24.11-19.83c1.67-1.52,3.22-2.93,4.84-4.41-1.26-1.62-2.42-3.15-3.63-4.64-.94-1.16-.95-2.31-.35-3.64,.91-2.03,1.82-4.09,2.5-6.21,.53-1.66,1.53-2.44,3.18-2.67,1.83-.25,3.65-.61,5.48-.92v-6.47c-2.01-.25-3.92-.52-5.83-.7-1.58-.15-2.39-1.03-2.91-2.47-.74-2.04-1.54-4.07-2.52-6-.74-1.47-.7-2.7,.25-3.99,1.13-1.55,2.22-3.12,3.3-4.65-1.59-1.59-3.07-3.07-4.61-4.62-1.51,1.21-3.03,2.39-4.51,3.61-1.2,.99-2.4,1.01-3.8,.35-1.96-.93-3.96-1.82-6.02-2.46-1.67-.52-2.48-1.5-2.72-3.14-.23-1.54-.45-3.08-.8-4.59-.09-.4-.63-.96-.99-.98-1.84-.1-3.7-.05-5.63-.05-.26,2.1-.52,4-.71,5.91-.16,1.56-1.01,2.39-2.47,2.91-2.04,.72-4.06,1.56-5.99,2.52-1.46,.73-2.69,.71-3.99-.26-1.54-1.14-3.12-2.22-4.69-3.33-1.57,1.57-3.05,3.05-4.59,4.58,1.13,1.43,2.21,2.88,3.38,4.25,1.22,1.42,1.29,2.78,.42,4.44-.92,1.75-1.72,3.6-2.25,5.5-.51,1.83-1.54,2.72-3.34,2.98-1.82,.27-3.62,.63-5.49,.95,0,1.83,.06,3.45-.02,5.06-.06,1.17,.47,1.51,1.52,1.57,1.36,.08,2.72,.3,4.08,.41,1.67,.14,2.67,.92,3.22,2.59,.66,1.99,1.51,3.94,2.47,5.82,.8,1.58,.77,2.92-.3,4.33-1.12,1.47-2.15,3.01-3.2,4.48,1.59,1.6,3.03,3.04,4.58,4.6,1.51-1.19,3.04-2.36,4.52-3.58,1.2-.98,2.39-1.06,3.8-.41,2.02,.94,4.08,1.82,6.19,2.53,1.48,.5,2.28,1.34,2.51,2.88,.29,1.95,.67,3.88,1.01,5.75h6.52c.2-1.91,.43-3.69,.58-5.48,.15-1.77,1.05-2.76,2.74-3.33,1.99-.67,3.95-1.5,5.82-2.44,1.46-.74,2.68-.72,3.98,.25,1.49,1.12,3.03,2.17,4.45,3.18Zm-116.4,25.56c0,4.85,0,9.63,0,14.41,0,4.76,2.06,6.84,6.79,6.84,26.27,0,52.53,0,78.8,0,.37,0,.75,.01,1.12,0,3.33-.13,5.59-2.36,5.64-5.71,.06-3.86,.02-7.72,.02-11.58,0-1.29,0-2.58,0-3.95h-92.37Z"/>
    <path class="cls-2" d="M273.46,194.76h-92.36v2.45c0,35.31,0,70.62,0,105.93,0,3.03-.87,4.41-2.79,4.44-1.93,.02-2.83-1.37-2.83-4.38,0-40.92,.09-81.83-.08-122.75-.03-7.72,5.67-12.66,12.54-12.62,26.27,.18,52.55,.07,78.82,.07,7.76,0,12.33,4.53,12.34,12.26,.01,9.22,0,18.43-.01,27.65,0,.31,0,.62,0,.93-.08,1.9-1.12,3.13-2.71,3.17-1.64,.05-2.87-1.24-2.9-3.21-.05-3.92-.02-7.85-.02-11.77,0-.67,0-1.35,0-2.19Zm-.07-5.84c0-3.65,.08-7.19-.06-10.73-.04-.9-.64-1.89-1.23-2.64-1.34-1.72-3.28-2.03-5.36-2.03-25.15,.02-50.29,.01-75.44,.01-1.56,0-3.11-.05-4.67,.01-2.8,.11-5.24,2.04-5.42,4.73-.23,3.51-.06,7.05-.06,10.64h92.23Z"/>
    <path class="cls-2" d="M237.43,203.68c-.31,1.05-.42,1.6-.63,2.11-5.36,13.51-10.73,27.01-16.08,40.52-.56,1.43-1.5,2.32-3.08,2.2-1.99-.16-2.99-2.1-2.16-4.21,2.45-6.24,4.95-12.47,7.42-18.7,2.89-7.27,5.76-14.55,8.66-21.82,.8-2.01,2.11-2.9,3.66-2.2,.92,.42,1.56,1.46,2.2,2.1Z"/>
    <path class="cls-2" d="M254.9,224.98c-3.54-3.41-6.74-6.37-9.76-9.5-.71-.74-1.26-2.11-1.13-3.1,.28-2.19,3.06-2.78,4.82-1.06,3.03,2.96,5.97,6,8.95,9.02,.88,.89,1.78,1.74,2.6,2.68,1.11,1.26,1.14,2.69,0,3.87-3.89,4.03-7.84,8.01-11.83,11.94-1.24,1.22-2.91,1.05-3.99-.15-1.04-1.16-1.01-2.73,.29-4,3.19-3.14,6.45-6.22,10.06-9.69Z"/>
    <path class="cls-2" d="M200.06,225.25c2.94,2.83,5.85,5.63,8.76,8.43,.31,.3,.63,.61,.92,.93,1.24,1.4,1.31,3.04,.17,4.17-1.19,1.17-2.77,1.16-4.14-.2-3.27-3.24-6.49-6.54-9.73-9.81-3.64-3.69-3.64-3.99-.04-7.62,3.02-3.05,6.05-6.1,9.07-9.15,1.94-1.96,3.44-2.25,4.8-.93,1.36,1.3,1.05,3-.89,4.97-2.8,2.83-5.61,5.66-8.41,8.49-.09,.09-.14,.2-.51,.73Z"/>
    <path class="cls-2" d="M276.41,255.3c8.17,.04,14.81,6.69,14.83,14.86,.03,8.18-6.8,15.02-14.95,15-8.23-.02-14.91-6.77-14.89-15.02,.02-8.27,6.7-14.88,15-14.84Zm2.7,23.5c4.05-.9,6.95-5.27,6.46-9.42-.6-5.1-4.6-8.6-9.67-8.45-4.6,.13-8.54,3.92-8.86,8.52-.31,4.43,2.56,8.67,6.43,9.34,0-.89,0-1.75,0-2.62,0-2.61-.06-5.23,.05-7.84,.07-1.71,1.4-2.86,2.91-2.79,1.46,.07,2.53,1.2,2.65,2.85,.05,.74,.02,1.49,.02,2.24,0,2.71,0,5.43,0,8.19Z"/>
    <path class="cls-2" d="M227.42,329.95c3.98,0,7.97-.02,11.95,0,2.28,.02,3.42,.99,3.42,2.79,0,1.78-1.21,2.82-3.42,2.83-8.03,.02-16.06,.02-24.09,0-2.29,0-3.6-1.13-3.54-2.92,.06-1.72,1.29-2.69,3.55-2.7,4.05-.02,8.09,0,12.14,0Z"/>
    <path class="cls-2" d="M234.48,184.06c-2.3,0-4.61,.03-6.91-.01-1.87-.03-3.1-1.18-3.1-2.77,0-1.59,1.22-2.8,3.09-2.82,4.54-.06,9.09-.05,13.63,0,2.02,.02,3.2,1.2,3.15,2.91-.05,1.68-1.14,2.65-3.14,2.69-2.24,.04-4.48,0-6.72,0Z"/>
  </g>
  <path class="cls-2" d="M416.23,91.39h-.11c-.88-.04-1.7-.43-2.26-1.11l-16.28-19.54c-1.09-1.31-.92-3.26,.39-4.35,1.3-1.09,3.25-.92,4.35,.39l14.08,16.89,26.9-27.91c1.19-1.24,3.15-1.25,4.37-.08,1.23,1.19,1.27,3.14,.08,4.37l-29.3,30.39c-.59,.61-1.39,.95-2.23,.95Z"/>
</svg>