<?xml version="1.0" encoding="UTF-8"?>
<svg id="Layer_1" data-name="Layer 1" xmlns="http://www.w3.org/2000/svg" viewBox="0 0 484.37 455.19">
  <defs>
    <style>
      .cls-1 {
        fill: #0ac9b8;
      }

      .cls-2, .cls-3 {
        fill: #00f3a1;
      }

      .cls-3 {
        opacity: .2;
      }
    </style>
  </defs>
  <g>
    <path class="cls-1" d="M430.93,131.25c-2.73,.33-5.46,.65-8.2,.98-1.05-.03-2.11-.13-3.16-.09-13.17,.41-25.13-3.48-36.29-10.19-9.43-5.67-16.49-13.66-22.31-22.87-1.32-2.58-2.63-5.17-3.95-7.75-.23-.81-.42-1.63-.7-2.42-4.2-11.94-5.19-24.1-2.58-36.52,1.69-8.05,5.06-15.42,9.15-22.5,2.24-2.86,4.49-5.72,6.73-8.58,.43-.46,.87-.92,1.3-1.38,7.67-7.09,16.06-13.09,26.13-16.28,23.85-7.55,45.56-3.43,64.59,12.81,15.84,13.52,23.12,31.15,22.71,51.86-.55,27.99-20.45,53.46-47.47,61.09-1.52,.43-3.01,.96-4.52,1.44-.48,.14-.96,.27-1.44,.41Zm12.35-117.3c-.74-.71-1.63-1.09-2.64-1.25-10.22-4.4-20.81-5.59-31.76-3.65-4.78,.46-9.33,1.92-13.65,3.87-24.49,11.04-37.82,35.39-34.07,61.96,3.37,23.83,22.4,43.78,45.76,47.97,11.58,2.23,22.86,1.41,33.74-3.36,.42-.2,.84-.41,1.27-.61,1.31-.35,2.5-.94,3.55-1.8,3.81-1.67,7.19-4.05,10.28-6.76,20.87-18.31,26.4-45.6,14.17-70.48-5.53-11.25-14.13-19.61-25.33-25.27-.44-.21-.87-.41-1.31-.62Z"/>
    <path class="cls-3" d="M422.61,157.55c-13.45,.99-25.85-2.35-37.3-9.28-15.78-9.56-25.41-23.61-29.7-41.43-.59-2.44-.9-4.95-1.34-7.43,2.24-.11,4.47-.22,6.71-.33,5.82,9.2,12.88,17.19,22.31,22.87,11.16,6.72,23.12,10.6,36.29,10.19,1.05-.03,2.11,.06,3.16,.09-.04,8.44-.08,16.88-.13,25.32Z"/>
    <path class="cls-3" d="M443.28,13.95c-1.42,.72-2.71,1.17-2.64-1.25,1,.16,1.9,.54,2.64,1.25Z"/>
    <path class="cls-3" d="M440.66,119.49c.04-.57-.22-1.34,.47-1.57,.7-.23,.65,.52,.8,.95-.42,.2-.84,.41-1.27,.61Z"/>
    <g>
      <path class="cls-2" d="M431.01,375.87c0-80.06,0-160.12,0-240.18,0-1.48-.05-2.96-.07-4.44-2.73,.33-5.46,.65-8.2,.98-.04,8.44-.08,16.88-.13,25.31,.05,1.16,.13,2.32,.13,3.48,0,75.54,0,151.09,0,226.63,0,9.78-2.99,18.27-10.57,24.82-4.47,3.86-9.73,5.89-15.53,6.54-1.89,.21-3.8,.25-5.7,.25-108.03,.01-216.06,0-324.08,.03-7.74,0-14.97-1.48-20.96-6.68-6.14-5.34-9.95-11.98-10.4-20.28-.08-1.58-.14-3.17-.14-4.76,0-108.77,.02-217.53-.06-326.3,0-6.99,1.31-13.48,5.35-19.19,5.25-7.42,12.58-11.45,21.61-12.21,2.94-.25,5.91-.06,8.87-.08,.74-.04,1.47-.13,2.21-.13,48.68,0,97.37,0,146.05,.02,.74,0,1.47,.07,2.21,.11,1.05-.04,2.11-.13,3.16-.13,44.89,0,89.77,0,134.66,.02,1.15,0,2.31,.13,3.47,.19,2.24-2.86,4.49-5.72,6.73-8.58-1.58-.04-3.17-.1-4.75-.1-97.94,0-195.88,.03-293.82,.03-1.69,0-3.38-.09-5.07-.14-13.38,.21-24.38,5.25-32.28,16.25-4.9,6.82-6.69,14.67-6.92,22.94,.05,1.48,.14,2.96,.14,4.43,0,105.44,0,210.89,0,316.33,0,1.27-.08,2.53-.12,3.8,.02,6.54,.4,12.99,2.85,19.22,3.53,8.98,9.97,15.17,18.1,19.89,6.75,3.24,14,3.85,21.32,3.85,99.33,.01,198.65,0,297.98,0,3.62-.95,7.31-.31,10.96-.42,2.2-.06,1.55,1.31,.74,2.2-3.04,3.31-5.84,6.89-9.86,9.14-9.04,6.05-18.95,8.92-29.84,8.21-1.27,.04-2.53,.11-3.8,.11-91.11,0-182.23,0-273.34,0-1.16,0-2.32-.07-3.48-.11-29.62,1.67-51.76-20.47-50.1-50.1-.04-1.16-.11-2.32-.11-3.48,0-91.22,0-182.44,0-273.65,0-1.37,.07-2.74,.11-4.12-.56-15.31,4.5-28.18,16.48-38.06,.8-3.34,.16-6.77,.58-10.13-1.17-.05-1.96,.72-2.79,1.34C7.78,79.82,.07,94.62,.05,113.07-.03,208.91,.02,304.75,0,400.59c0,6.09,.86,12.05,2.84,17.77,7.82,22.55,27.77,36.7,51.68,36.8,11.43,.05,22.85,.01,34.27,.01,84.31,0,168.62,0,252.93,0,19.46,0,34.63-8.28,45.72-24.05,1.72-2.45,3.29-3.41,6.29-3.46,18.02-.27,32.9-12.65,36.42-29.98,1.04-5.12,.79-10.31,.98-15.48-.04-2.11-.13-4.23-.13-6.34Z"/>
      <path class="cls-2" d="M354.26,99.41c2.24-.11,4.47-.22,6.71-.33-1.32-2.58-2.64-5.17-3.95-7.75-44.62,.01-89.24,.03-133.86,.03-1.16,0-2.32-.11-3.47-.17-1.37,.05-2.74,.15-4.11,.16-40.12,.01-80.24,0-120.37,.02-5.07,0-10.13,.06-15.2,.1-1.6,1.34-2.98,2.78-2.12,5.13,.9,2.46,2.9,2.81,5.15,2.71,.84-.04,1.69,0,2.54,0,88.08,0,176.16,0,264.24,0,1.48,0,2.96,.08,4.43,.12Z"/>
      <path class="cls-2" d="M140.26,258.73c-.63,47.57,39.23,89.36,88.98,89.27,49.47-.09,89.38-40.81,88.97-89.35-.42-49.36-38.52-88.62-88.91-88.69-51.15-.08-88.98,40.48-89.05,88.77Zm68.84-78.08c-5.96,5.92-11.4,12.2-15.46,19.56-1.68,3.05-3.23,6.17-4.75,9.29-.53,1.09-.92,2-2.43,1.99-7.38-.07-14.76-.03-22.83-.03,11.7-16.06,26.86-25.88,45.48-30.81Zm14.05,72.8c-6.66-.11-13.32-.11-19.98-.15-4.53,.04-9.06,.05-13.59,.15-1.56,.04-2.38-.35-2.21-2.11,1-10.07,2.55-20.03,5.87-29.65,.46-1.34,1.07-2.08,2.67-2.02,3.68,.15,7.37,.1,11.06,.14,5.28-.04,10.57-.03,15.85-.13,1.7-.04,2.47,.41,2.46,2.29-.07,9.73-.05,19.46-.01,29.18,0,1.55-.4,2.33-2.13,2.3Zm2.12,40.01c0,1.54-.46,2.36-2.17,2.33-5.38-.1-10.77-.13-16.15-.19-4,.05-8,0-12,.18-2.55,.12-2.55-1.87-2.95-3.34-1.98-7.11-3.4-14.32-3.96-21.69-.18-2.31-.38-4.62-.63-6.92-.18-1.67,.52-2.22,2.16-2.17,4.52,.12,9.05,.12,13.58,.17,6.65-.05,13.3-.07,19.96-.18,1.72-.03,2.17,.79,2.16,2.32-.03,9.82-.03,19.65,0,29.48Zm-68-72.14c.61-1.2,1.4-1.65,2.73-1.64,7.61,.05,15.23,.05,22.84,0,1.63-.01,1.94,.42,1.46,2.01-2.95,9.74-4.56,19.74-5.23,29.88-.11,1.62-.86,1.88-2.21,1.87-4.44-.04-8.88-.02-13.32-.02s-8.67-.05-13.01,.03c-1.67,.03-2.23-.54-2.06-2.23,1.09-10.51,3.98-20.48,8.79-29.9Zm-1.07,72.67c-4.85-9.56-7.1-19.78-7.98-30.39-.14-1.73,.6-1.94,1.98-1.93,4.54,.04,9.08,.01,13.62,.01s8.66,.06,12.98-.03c1.61-.03,2.26,.53,2.33,2.15,.45,10.24,1.71,20.37,4.71,30.22,.39,1.26-.04,1.73-1.32,1.73-8.02-.02-16.05-.04-24.07,.02-1.38,0-1.77-.84-2.25-1.79Zm41.68,39.74c-13.84-5.82-25.22-14.81-34.01-27.01-.51-.71-1.69-1.42-1.01-2.37,.33-.45,1.55-.35,2.37-.35,6.44-.02,12.88,0,19.32-.03,1.43,0,2.59,.02,3.25,1.71,4.59,11.66,11.36,21.86,20.5,30.48,.2,.19,.27,.53,.54,1.11-4.02-.59-7.52-2.09-10.96-3.54Zm27.03,2.37c-1.03,.92-2.12-.46-3.07-.96-11.27-5.95-18.21-15.77-23.72-26.82-.64-1.28-1.6-2.49-1.57-4.18h13.62c4.32-.05,8.63-.09,12.95-.14,1.14-.01,2.15,.12,2.12,1.63-.15,9.05,.41,18.1-.3,27.14,.32,1.14,.77,2.62-.03,3.33Zm.06-150.74c.64,8.08,.09,16.17,.29,24.25,.04,1.64-.86,1.88-2.19,1.86-4.31-.07-8.62-.08-12.93-.12h-12.64c1.82-4.83,4.54-8.91,7.32-12.94,4.36-6.32,9.84-11.49,16.32-15.57,1.07-.67,2.41-2.04,3.65-1.06,.96,.75,.46,2.35,.17,3.58Zm11.08,150.09c-2.45,1.38-3.01,1.04-2.94-1.67,.12-4.54,.03-9.08,.03-13.62s.07-9.08-.03-13.62c-.04-1.9,.58-2.6,2.53-2.57,7.92,.08,15.84,.04,23.76,.03,1.39,0,2.67-.07,1.64,2.04-5.82,11.95-13.02,22.67-25,29.41Zm-2.93-71.22c-.03-1.89,.6-2.61,2.56-2.6,11,.07,22,.06,33.01,0,1.79,0,2.47,.55,2.33,2.37-.78,10.14-2.18,20.15-5.3,29.87-.48,1.49-1.36,1.91-2.82,1.9-9.1-.04-18.19-.06-27.29,.01-2.03,.02-2.51-.87-2.48-2.68,.07-4.86,.03-9.73,.03-14.6,0-4.76,.06-9.52-.03-14.28Zm15.38,73.26l.12-.15,.08,.18-.2-.03Zm46.04-30.79c-7.66,10.71-17.65,18.66-29.27,24.69-4.14,2.15-8.48,3.76-12.86,5.29-.88,.31-1.75,.61-3.07,.14,1.38-1.45,2.55-2.76,3.79-4,7.18-7.21,12.51-15.68,16.4-25.01,1.19-2.85,2.57-4.05,5.76-3.89,5.91,.28,11.84,.06,17.76,.1,.88,0,2.08-.5,2.56,.55,.38,.83-.6,1.48-1.07,2.14Zm7.65-12.7c-.64,1.32-1.4,1.82-2.89,1.8-7.49-.08-14.99-.09-22.48-.01-2.17,.03-2.79-.52-2.11-2.74,2.84-9.22,4.1-18.72,4.45-28.33,.1-2.59,.99-3.2,3.37-3.11,4.11,.17,8.23,.05,12.35,.05,4.12,0,8.24,.11,12.35-.04,2.29-.08,2.86,.76,2.72,2.94-.66,10.33-3.21,20.14-7.75,29.45Zm-1-72.52c4.53,8.82,7.29,18.17,8.54,27.98,.5,3.89,.4,3.93-3.42,3.94-4.01,0-8.02,0-12.03,0s-8.24-.1-12.35,.04c-2.13,.07-3.08-.59-3.1-2.81-.1-9.78-2.19-19.24-4.82-28.59-.56-1.97-.05-2.4,1.8-2.39,7.49,.05,14.99,.05,22.48,0,1.46,0,2.23,.5,2.91,1.83Zm-44.12-38.64c14.74,5.4,26.88,14.36,36.46,26.8,.3,.39,.52,.86,1.07,1.79-8.07,0-15.71,0-23.35,0-.89,0-1.25-.54-1.57-1.28-4.65-11.14-11.67-20.66-20.14-29.18,2.77-.45,5.1,.98,7.53,1.87Zm-7.59-1.9c-.08-.02-.16-.04-.23-.08-.04-.03-.02-.13-.03-.2,.08,.09,.17,.19,.26,.28Zm-14.1,.87c5.24,2.66,9.74,6.3,13.6,10.69,4.88,5.55,8.97,11.63,12.01,18.93-9.02,0-17.64,0-26.26,0-1.28,0-1.59-.71-1.59-1.82,0-8.98,.02-17.95,0-26.93,0-2.33,1.31-1.36,2.24-.88Zm-2.26,40.25c-.01-1.74,.5-2.43,2.34-2.42,8.98,.07,17.96,.05,26.94,.02,1.27,0,2.15,.19,2.63,1.61,3.3,9.77,4.91,19.84,5.62,30.09,.13,1.84-.88,2.06-2.33,2.05-5.49-.04-10.99-.01-16.48-.01-5.39,0-10.78-.06-16.16,.04-1.92,.04-2.57-.6-2.55-2.53,.08-9.61,.06-19.23,0-28.84Z"/>
      <path class="cls-2" d="M112.91,61.42c-.15-3.53-3.32-6.6-6.83-6.6s-6.89,3.29-6.84,6.91c.05,3.64,3.38,6.86,6.99,6.76,3.65-.1,6.83-3.46,6.68-7.07Z"/>
      <path class="cls-2" d="M85.46,61.62c-.01-3.65-3.27-6.85-6.93-6.8-3.54,.05-6.63,3.14-6.7,6.71-.08,3.68,3.06,6.91,6.77,6.95,3.63,.04,6.88-3.2,6.86-6.86Z"/>
      <path class="cls-2" d="M140.31,61.63c-.01-3.69-3.25-6.89-6.88-6.8-3.72,.09-6.76,3.29-6.65,7.02,.1,3.62,3.15,6.63,6.71,6.63s6.83-3.14,6.82-6.86Z"/>
    </g>
    <path class="cls-3" d="M406.78,93.91c.91-.56,1.83-1.12,2.74-1.68-.01,2.03-.84,2.73-2.74,1.68Z"/>
    <path class="cls-1" d="M442.92,41.6s-.14,0-.14,0c0,0,.14,0,.14,0Z"/>
    <path class="cls-3" d="M233.15,278.53c0-4.76,.06-9.52-.03-14.28-.03-1.89,.6-2.61,2.56-2.6,11,.07,22,.06,33.01,0,1.79,0,2.48,.55,2.34,2.37-.78,10.13-2.18,20.15-5.3,29.87-.48,1.49-1.36,1.91-2.82,1.9-9.1-.04-18.2-.06-27.29,.01-2.03,.02-2.51-.87-2.48-2.68,.07-4.86,.03-9.73,.03-14.6Z"/>
    <path class="cls-3" d="M251.83,253.42c-5.39,0-10.78-.07-16.16,.04-1.92,.04-2.57-.6-2.55-2.53,.08-9.61,.06-19.23,0-28.84-.01-1.74,.5-2.43,2.34-2.41,8.98,.07,17.96,.05,26.94,.02,1.27,0,2.15,.19,2.63,1.61,3.3,9.77,4.91,19.84,5.62,30.09,.13,1.84-.88,2.06-2.34,2.05-5.49-.03-10.99-.01-16.48-.01Z"/>
    <path class="cls-3" d="M294.88,261.68c4.12,0,8.24,.11,12.35-.04,2.29-.09,2.86,.76,2.72,2.94-.66,10.33-3.21,20.14-7.75,29.45-.64,1.32-1.4,1.82-2.89,1.8-7.49-.08-14.99-.09-22.48-.01-2.18,.02-2.8-.52-2.11-2.74,2.84-9.22,4.1-18.72,4.45-28.33,.09-2.59,.99-3.21,3.37-3.11,4.11,.17,8.23,.05,12.35,.05Z"/>
    <path class="cls-3" d="M294.28,253.42c-4.12,0-8.24-.1-12.35,.04-2.13,.07-3.08-.59-3.1-2.81-.1-9.78-2.19-19.24-4.82-28.59-.56-1.97-.05-2.4,1.8-2.39,7.49,.05,14.99,.05,22.48,0,1.46-.01,2.23,.5,2.91,1.83,4.53,8.82,7.29,18.17,8.54,27.98,.5,3.89,.4,3.93-3.42,3.93-4.01,0-8.02,0-12.03,0Z"/>
    <path class="cls-3" d="M203.14,261.84c6.65-.05,13.3-.07,19.96-.18,1.72-.03,2.17,.79,2.16,2.32-.03,9.83-.03,19.65,0,29.48,0,1.54-.46,2.36-2.17,2.33-5.38-.1-10.77-.13-16.15-.18-.05-.84,.03-1.71-.16-2.51-2.36-10.29-3.96-20.66-3.65-31.25Z"/>
    <path class="cls-3" d="M206.97,219.81c5.28-.04,10.57-.03,15.85-.13,1.7-.03,2.47,.41,2.46,2.29-.07,9.73-.05,19.46-.01,29.18,0,1.55-.4,2.33-2.13,2.3-6.66-.11-13.32-.11-19.97-.15-.38-7.73,.79-15.34,1.95-22.94,.54-3.53,1.78-6.94,1.85-10.55Z"/>
    <path class="cls-3" d="M233.15,320.18c0-4.54,.07-9.08-.03-13.62-.04-1.9,.58-2.6,2.53-2.58,7.92,.08,15.84,.04,23.76,.03,1.39,0,2.67-.07,1.65,2.04-5.82,11.95-13.02,22.67-25,29.41-2.45,1.38-3.01,1.04-2.94-1.67,.12-4.54,.03-9.08,.03-13.62Z"/>
    <path class="cls-3" d="M249.34,336.84c1.38-1.45,2.56-2.76,3.79-4,7.18-7.21,12.51-15.68,16.4-25.02,1.19-2.85,2.57-4.05,5.77-3.89,5.91,.29,11.84,.06,17.76,.1,.88,0,2.08-.5,2.56,.55,.38,.83-.6,1.48-1.07,2.14-7.66,10.71-17.65,18.65-29.27,24.69-4.14,2.15-8.48,3.76-12.86,5.29-.88,.31-1.75,.61-3.07,.14Z"/>
    <path class="cls-3" d="M261,211.45c-9.02,0-17.64,0-26.26,0-1.28,0-1.59-.71-1.59-1.82,0-8.98,.02-17.95,0-26.93,0-2.33,1.31-1.35,2.24-.88,5.24,2.66,9.74,6.3,13.6,10.69,4.88,5.55,8.98,11.63,12.01,18.93Z"/>
    <path class="cls-3" d="M249.52,180.99c2.79-.46,5.13,.98,7.56,1.87,14.74,5.4,26.88,14.36,36.46,26.8,.3,.39,.52,.86,1.07,1.79-8.07,0-15.71,0-23.35,0-.89,0-1.25-.54-1.57-1.28-4.66-11.15-11.67-20.68-20.15-29.19l-.02,.02Z"/>
    <path class="cls-3" d="M224.94,332.78c-3.26-1.78-4.6-5.13-6.3-8.08-3.38-5.82-5.92-12.06-8.24-18.37-.24-.66-.16-1.45-.23-2.18,4.32-.05,8.63-.09,12.95-.14,1.15-.01,2.15,.12,2.12,1.63-.15,9.05,.41,18.1-.3,27.14Z"/>
    <path class="cls-3" d="M210.14,211.36c3.05-9.74,7.53-18.67,14.83-25.99,.64,8.08,.09,16.17,.29,24.25,.04,1.64-.86,1.88-2.19,1.86-4.31-.07-8.62-.08-12.93-.12Z"/>
    <path class="cls-3" d="M249.53,180.98c-.09-.03-.2-.05-.27-.1-.04-.03-.02-.13-.03-.2,.09,.1,.19,.21,.28,.31,0,0,.02-.02,.02-.02Z"/>
    <polygon class="cls-3" points="248.62 337.35 248.7 337.54 248.5 337.51 248.62 337.35"/>
    <path class="cls-3" d="M469.92,39.84c-5.53-11.25-14.13-19.61-25.33-25.27h0c-.44-.21-.87-.41-1.31-.62-1.42,.72-2.71,1.17-2.64-1.25-10.22-4.4-20.81-5.59-31.76-3.65-4.78,.46-9.33,1.92-13.65,3.87-24.49,11.04-37.82,35.39-34.07,61.96,3.37,23.83,22.4,43.78,45.76,47.98,0,0,0,0,0,0,11.58,2.23,22.86,1.41,33.74-3.36,.04-.57-.22-1.34,.47-1.57,.7-.23,.65,.52,.8,.95,1.31-.35,2.5-.94,3.55-1.8,3.81-1.67,7.19-4.05,10.28-6.76,20.87-18.31,26.4-45.6,14.17-70.48Zm-50.57,10.44c2.85,0,5.7,.1,8.55-.03-2.84,.13-5.7,.03-8.55,.03-3.06,0-6.12,.06-9.18-.03,3.06,.09,6.12,.03,9.18,.03Zm24.23-9.6c-.15,.33-.39,.64-.77,.9,0,0,0,0,0,0,.38-.26,.62-.57,.77-.9Zm-2.27,1.71c-.02,.08-.04,.17-.05,.27h0c.01-.09,.03-.18,.05-.27Zm-34.53,51.52c.91-.56,1.83-1.12,2.74-1.68-.01,2.03-.84,2.73-2.74,1.68Z"/>
  </g>
  <path class="cls-2" d="M413.01,90.71h-.11c-.88-.04-1.7-.43-2.26-1.11l-16.28-19.54c-1.09-1.31-.92-3.26,.39-4.35,1.3-1.09,3.25-.92,4.35,.39l14.08,16.89,26.9-27.91c1.19-1.24,3.15-1.25,4.37-.08,1.23,1.19,1.27,3.14,.08,4.37l-29.3,30.39c-.59,.61-1.39,.95-2.23,.95Z"/>
</svg>