<?xml version="1.0" encoding="UTF-8"?>
<svg id="Layer_1" data-name="Layer 1" xmlns="http://www.w3.org/2000/svg" viewBox="0 0 672.14 631.65">
  <defs>
    <style>
      .cls-1 {
        fill: #0ac9b8;
      }

      .cls-2, .cls-3 {
        fill: #00f3a1;
      }

      .cls-3 {
        opacity: .2;
      }
    </style>
  </defs>
  <g>
    <path class="cls-1" d="M597.99,182.14c-3.79,.45-7.58,.9-11.37,1.36-1.46-.05-2.92-.17-4.38-.13-18.28,.57-34.87-4.83-50.36-14.15-13.09-7.87-22.89-18.96-30.96-31.73-1.83-3.59-3.66-7.17-5.48-10.76-.32-1.12-.59-2.26-.97-3.36-5.83-16.57-7.21-33.44-3.58-50.68,2.35-11.18,7.02-21.4,12.69-31.22,3.11-3.97,6.22-7.93,9.33-11.9,.6-.64,1.21-1.28,1.81-1.92,10.65-9.84,22.28-18.16,36.26-22.59,33.1-10.48,63.23-4.76,89.63,17.77,21.98,18.76,32.08,43.22,31.52,71.97-.76,38.85-28.38,74.18-65.87,84.77-2.11,.6-4.18,1.33-6.27,2-.66,.19-1.33,.38-1.99,.57Zm17.13-162.78c-1.03-.99-2.27-1.52-3.66-1.74-14.18-6.1-28.88-7.75-44.07-5.07-6.64,.64-12.95,2.66-18.94,5.36-33.99,15.32-52.49,49.1-47.27,85.98,4.68,33.07,31.09,60.76,63.5,66.57,16.07,3.1,31.72,1.96,46.82-4.66,.59-.28,1.17-.57,1.76-.85,1.82-.48,3.47-1.3,4.92-2.49,5.29-2.32,9.97-5.62,14.26-9.38,28.97-25.41,36.64-63.28,19.66-97.81-7.68-15.61-19.61-27.22-35.16-35.07-.6-.29-1.21-.57-1.81-.86Z"/>
    <path class="cls-3" d="M586.44,218.62c-18.66,1.37-35.88-3.26-51.77-12.88-21.9-13.26-35.27-32.76-41.22-57.48-.82-3.39-1.25-6.87-1.86-10.31,3.1-.15,6.21-.31,9.31-.46,8.07,12.77,17.88,23.86,30.96,31.73,15.49,9.32,32.09,14.72,50.36,14.15,1.46-.05,2.92,.08,4.38,.13-.06,11.71-.12,23.42-.17,35.13Z"/>
    <path class="cls-3" d="M615.12,19.36c-1.97,1-3.76,1.62-3.66-1.74,1.39,.22,2.63,.75,3.66,1.74Z"/>
    <path class="cls-3" d="M611.49,165.82c.06-.79-.31-1.86,.65-2.18,.98-.33,.91,.72,1.11,1.32-.59,.28-1.17,.57-1.76,.85Z"/>
    <g>
      <path class="cls-2" d="M598.1,521.59c0-111.1,0-222.19-.01-333.29,0-2.05-.06-4.1-.1-6.16-3.79,.45-7.58,.9-11.37,1.36-.06,11.71-.12,23.42-.17,35.13,.06,1.61,.18,3.22,.18,4.83,0,104.83,0,209.66,.01,314.49,0,13.58-4.15,25.35-14.67,34.44-6.2,5.36-13.5,8.17-21.56,9.07-2.62,.3-5.27,.35-7.91,.35-149.91,.02-299.81,0-449.72,.04-10.75,0-20.78-2.06-29.08-9.28-8.52-7.41-13.81-16.62-14.43-28.14-.12-2.2-.2-4.4-.2-6.6,0-150.93,.02-301.86-.08-452.8,0-9.7,1.82-18.71,7.42-26.64,7.28-10.3,17.45-15.88,29.99-16.94,4.08-.34,8.2-.09,12.31-.11,1.02-.06,2.04-.18,3.06-.18,67.56,0,135.11,0,202.67,.02,1.02,0,2.04,.1,3.07,.16,1.46-.06,2.92-.17,4.38-.17,62.29,0,124.57,0,186.86,.03,1.6,0,3.21,.17,4.81,.27,3.11-3.97,6.22-7.93,9.33-11.9-2.2-.05-4.4-.14-6.6-.14-135.91,.01-271.81,.04-407.72,.05-2.34,0-4.69-.13-7.04-.19-18.57,.29-33.83,7.29-44.8,22.54-6.8,9.46-9.28,20.36-9.61,31.84,.07,2.05,.2,4.1,.2,6.15,0,146.32,0,292.65,0,438.97,0,1.76-.11,3.52-.16,5.27,.02,9.08,.56,18.02,3.95,26.67,4.9,12.46,13.83,21.06,25.12,27.61,9.37,4.5,19.43,5.34,29.59,5.34,137.83,.02,275.67,0,413.5,0,5.02-1.32,10.14-.43,15.21-.58,3.05-.09,2.15,1.82,1.03,3.05-4.21,4.59-8.1,9.57-13.69,12.69-12.54,8.4-26.29,12.38-41.41,11.39-1.76,.05-3.51,.16-5.27,.16-126.44,0-252.87,0-379.31,0-1.61,0-3.22-.1-4.83-.15-41.1,2.31-71.83-28.41-69.53-69.53-.05-1.61-.15-3.22-.15-4.83,0-126.58,0-253.16,0-379.74,0-1.9,.1-3.81,.16-5.71-.78-21.24,6.24-39.11,22.87-52.81,1.11-4.64,.22-9.39,.8-14.06-1.62-.07-2.72,1-3.88,1.86C10.8,110.76,.1,131.3,.07,156.91-.05,289.9,.03,422.9,0,555.89c0,8.45,1.19,16.73,3.94,24.65,10.85,31.29,38.53,50.93,71.72,51.07,15.85,.07,31.71,.02,47.56,.02,117,0,233.99,0,350.99,0,27.01,0,48.06-11.49,63.45-33.37,2.39-3.4,4.56-4.73,8.72-4.8,25.01-.38,45.66-17.55,50.54-41.61,1.44-7.1,1.1-14.31,1.37-21.48-.06-2.93-.18-5.86-.18-8.8Z"/>
      <path class="cls-2" d="M491.6,137.95c3.11-.15,6.21-.31,9.31-.46-1.83-3.59-3.66-7.17-5.49-10.76-61.92,.02-123.84,.04-185.76,.04-1.61,0-3.21-.15-4.82-.23-1.9,.07-3.8,.21-5.7,.22-55.68,.02-111.35,.01-167.03,.03-7.03,0-14.06,.09-21.09,.13-2.22,1.86-4.13,3.85-2.94,7.12,1.25,3.41,4.03,3.9,7.15,3.76,1.17-.05,2.35,0,3.52,0,122.23,0,244.45,0,366.68,0,2.05,0,4.1,.11,6.15,.16Z"/>
      <path class="cls-2" d="M156.69,85.23c-.2-4.9-4.61-9.16-9.48-9.16s-9.56,4.56-9.49,9.58c.07,5.05,4.69,9.52,9.69,9.39,5.07-.14,9.48-4.81,9.27-9.81Z"/>
      <path class="cls-2" d="M118.58,85.51c-.02-5.07-4.54-9.51-9.61-9.44-4.91,.06-9.2,4.36-9.3,9.31-.11,5.11,4.25,9.59,9.39,9.65,5.04,.06,9.55-4.45,9.52-9.52Z"/>
      <path class="cls-2" d="M194.71,85.52c-.02-5.12-4.5-9.56-9.55-9.44-5.16,.12-9.37,4.57-9.23,9.75,.14,5.02,4.37,9.21,9.31,9.21s9.48-4.36,9.46-9.51Z"/>
    </g>
    <path class="cls-3" d="M564.47,130.31c1.27-.78,2.54-1.55,3.81-2.33-.02,2.82-1.17,3.79-3.81,2.33Z"/>
    <path class="cls-1" d="M614.63,57.73s-.2,0-.2,0c0,0,.2,0,.2,0Z"/>
    <path class="cls-3" d="M652.09,55.29c-7.68-15.61-19.61-27.22-35.16-35.07h0c-.6-.29-1.21-.57-1.81-.86-1.97,1-3.76,1.62-3.66-1.74-14.18-6.1-28.88-7.75-44.07-5.07-6.64,.64-12.95,2.66-18.94,5.36-33.99,15.32-52.49,49.1-47.27,85.98,4.68,33.07,31.09,60.76,63.5,66.57,0,0,0,0,0,0,16.07,3.1,31.72,1.96,46.82-4.66,.06-.79-.31-1.86,.65-2.18,.98-.33,.91,.72,1.11,1.32,1.82-.48,3.47-1.3,4.92-2.5,5.29-2.31,9.98-5.62,14.26-9.38,28.97-25.41,36.64-63.28,19.66-97.81Zm-70.18,14.48c3.95,0,7.91,.14,11.86-.04-3.95,.18-7.91,.05-11.86,.04-4.25,0-8.5,.09-12.74-.04,4.24,.13,8.49,.04,12.74,.04Zm33.62-13.32c-.21,.46-.54,.89-1.06,1.25,0,0,0,0,0,0,.52-.37,.86-.79,1.06-1.25Zm-3.14,2.38c-.03,.11-.05,.24-.07,.37h0c.02-.13,.04-.25,.07-.37Zm-47.92,71.49c1.27-.78,2.54-1.55,3.81-2.33-.02,2.82-1.17,3.79-3.81,2.33Z"/>
  </g>
  <path class="cls-2" d="M577.59,126.82h-.15c-1.22-.05-2.36-.6-3.14-1.54l-22.6-27.11c-1.52-1.82-1.27-4.52,.54-6.04,1.81-1.52,4.51-1.27,6.04,.54l19.54,23.44,37.33-38.73c1.66-1.72,4.37-1.74,6.06-.12,1.71,1.65,1.76,4.36,.12,6.06l-40.65,42.17c-.81,.85-1.93,1.31-3.09,1.31Z"/>
  <g>
    <path class="cls-2" d="M355.61,355.98h-6.68v-63.9h-2.36c-37.04,0-74.09,0-111.13,0-7.12,0-11.18,4.09-11.18,11.25,0,4,0,7.99,0,12.16h-6.99c.28-5.89-.07-11.92,1.01-17.68,1.44-7.69,8.51-12.46,16.82-12.47,32.41-.01,64.83,0,97.24,0,5.45,0,10.9,0,16.46,0v-6.74c-2.01,0-4.01-.03-6.01,0-1.7,.03-3.04-.51-3.72-2.16-.66-1.59-.04-2.85,1.09-3.97,6.5-6.49,12.99-13.01,19.51-19.48,1.88-1.86,3.59-1.84,5.49,.05,6.52,6.48,13.01,12.99,19.5,19.49,1.13,1.13,1.69,2.42,.99,3.99-.68,1.55-1.94,2.1-3.56,2.08-2.01-.03-4.03,0-6.14,0v6.61c.6,.04,1.21,.12,1.81,.12,3.58,.01,7.16,0,10.73,0,10.51,.03,17.66,7.2,17.67,17.76,.01,19.92,0,39.85,0,59.77,0,2.16,0,4.31,0,6.57h-6.74v-2.43c0-18.03-.27-36.07,.07-54.09,.37-19.62-1.44-21.54-21.03-20.85-.77,.03-1.53,0-2.62,0v60.49h-6.74v-2.3c0-24.49,0-48.97,0-73.46,0-3.92,.82-4.79,4.24-4.99-3.62-3.62-7.47-7.48-11.18-11.18-3.43,3.44-7.27,7.29-11.09,11.11,.26,.02,.84,.05,1.4,.13,1.83,.25,2.89,1.31,3.12,3.15,.05,.41,.03,.84,.03,1.26,0,25.96,0,51.92,0,77.87v1.8Z"/>
    <path class="cls-2" d="M274.77,379.57h6.74v-2.34c0-15.58,0-31.15,0-46.73,0-3.73,1.01-4.73,4.74-4.73,5.96,0,11.93-.01,17.89,0,3.16,0,4.31,1.15,4.31,4.32,0,15.58,0,31.15,0,46.73,0,.84,0,1.68,0,2.68h6.74c0-.78,0-1.59,0-2.41,0-23.36,0-46.73,0-70.09,0-3.84,.98-4.8,4.87-4.81,6.03,0,12.07-.02,18.1,0,2.65,.01,3.95,1.24,3.96,3.81,.02,18.59,0,37.19,0,55.78,0,.27-.06,.54-.1,.91h-6.53v-53.64h-13.5v77.17h-87.51v-6.5h13.33c0-.89,0-1.63,0-2.36,0-7.86,0-15.72,0-23.58,0-3.32,1.11-4.44,4.39-4.45,6.03-.01,12.07,0,18.1,0,3.32,0,4.45,1.11,4.45,4.39,.01,7.79,0,15.58,0,23.36,0,.76,0,1.52,0,2.47Zm26.8,0v-46.89h-13.21v46.89h13.21Zm-46.83-23.4v23.38h13.16v-23.38h-13.16Z"/>
    <path class="cls-2" d="M224.4,399.8c0,1.97-.22,3.62,.04,5.17,.86,5.05,4.99,8.36,10.32,8.36,18.66,.02,37.32,0,55.99,0,9.54,0,19.08,0,28.62,0h2.42v6.69h-24.28c-2.69,8.97-5.35,17.81-8.06,26.84h44.72c-1.21-4.09-2.4-8.1-3.64-12.29,2.11-.66,4.09-1.28,6.37-1.99,1.46,4.8,2.9,9.51,4.38,14.38h7.45v6.68h-73.78v-6.62c1.94,0,3.95,.07,5.94-.04,.61-.04,1.58-.48,1.73-.94,2.64-8.55,5.19-17.14,7.83-25.96h-2.46c-17.47,0-34.94,0-52.41,0-10.96,0-18.05-7.07-18.06-18,0-25.75,0-51.5,0-77.24v-2.27h6.68v70.55h94.27v6.68h-94.06Z"/>
    <path class="cls-2" d="M386.3,434.8c-21.06,11.65-43.52,3.35-54.03-12.14-10.9-16.07-8.97-37.51,4.74-51.34,13.56-13.68,35.27-15.77,51.16-5.13,15.82,10.6,24.15,33.22,12.44,54.34,4.22,4.21,8.49,8.46,12.75,12.72,1.14,1.14,2.32,2.25,3.41,3.43,3.81,4.14,3.77,10.15-.06,14.05-3.89,3.97-10.05,4.15-14.18,.17-5.21-5.01-10.25-10.18-15.36-15.28-.25-.25-.51-.48-.87-.81Zm-20.45-68.61c-18.8,.02-33.82,15.07-33.81,33.86,.01,18.44,15.17,33.48,33.75,33.5,18.44,.02,33.65-15.21,33.61-33.66-.04-18.57-15.12-33.72-33.55-33.7Zm26.07,64.67c5.03,5.02,10,10.03,15.03,15,1.62,1.6,3.66,1.59,5.02,.16,1.3-1.37,1.26-3.3-.25-4.88-1.88-1.98-3.85-3.87-5.77-5.8-3.09-3.1-6.18-6.2-9.27-9.29-1.64,1.65-3.11,3.14-4.77,4.81Z"/>
    <path class="cls-2" d="M382.67,258.33v-6.49c10.26-.8,20.26,9.13,20,19.9h-6.56c-.26-3.54-1.44-6.76-4.01-9.34-2.58-2.6-5.78-3.8-9.44-4.06Z"/>
    <path class="cls-2" d="M240.99,298.97v6.49h-6.48v-6.49h6.48Z"/>
    <path class="cls-2" d="M247.92,305.41v-6.47h6.48v6.47h-6.48Z"/>
    <path class="cls-2" d="M261.41,298.92h6.47v6.51h-6.47v-6.51Z"/>
    <path class="cls-2" d="M392.66,399.86c-.03,14.86-12.09,26.96-26.88,26.95-14.96,0-27.02-12.08-27-27.03,.02-14.89,12.19-26.91,27.19-26.85,14.64,.06,26.72,12.25,26.7,26.93Zm-26.93,20.22c11.23-.04,20.26-9.18,20.19-20.44-.06-10.98-9.2-20-20.23-19.97-11.15,.03-20.19,9.08-20.18,20.22,0,11.12,9.13,20.23,20.22,20.19Z"/>
    <path class="cls-2" d="M365.6,393.03c-3.88,.55-6.16,2.74-6.71,6.75h-6.43c-.68-6.07,5.33-13.51,13.14-13.26v6.51Z"/>
  </g>
</svg>