<?xml version="1.0" encoding="UTF-8"?>
<svg id="Layer_1" data-name="Layer 1" xmlns="http://www.w3.org/2000/svg" viewBox="0 0 684.28 643.06">
  <defs>
    <style>
      .cls-1 {
        fill: #0ac9b8;
      }

      .cls-2, .cls-3 {
        fill: #00f3a1;
      }

      .cls-3 {
        opacity: .2;
      }
    </style>
  </defs>
  <g>
    <path class="cls-1" d="M608.79,185.43c-3.86,.46-7.72,.92-11.58,1.38-1.49-.05-2.98-.18-4.46-.13-18.61,.58-35.5-4.91-51.27-14.4-13.32-8.01-23.3-19.3-31.52-32.3-1.86-3.65-3.72-7.3-5.58-10.95-.33-1.14-.6-2.3-.99-3.42-5.94-16.87-7.34-34.05-3.64-51.6,2.39-11.38,7.15-21.78,12.92-31.78,3.17-4.04,6.34-8.08,9.5-12.12,.61-.65,1.23-1.3,1.84-1.95,10.84-10.02,22.68-18.49,36.92-23,33.69-10.67,64.37-4.84,91.25,18.09,22.38,19.1,32.66,44,32.09,73.27-.77,39.55-28.89,75.52-67.06,86.3-2.15,.61-4.25,1.35-6.38,2.03-.68,.19-1.35,.39-2.03,.58Zm17.44-165.71c-1.04-1-2.31-1.54-3.72-1.77-14.44-6.21-29.4-7.89-44.87-5.16-6.76,.65-13.18,2.71-19.29,5.46-34.6,15.6-53.43,49.99-48.13,87.53,4.76,33.66,31.65,61.85,64.64,67.78,16.36,3.16,32.29,2,47.67-4.74,.6-.29,1.19-.58,1.79-.87,1.85-.49,3.53-1.32,5.01-2.54,5.38-2.36,10.15-5.72,14.52-9.55,29.49-25.87,37.3-64.42,20.01-99.57-7.82-15.89-19.96-27.71-35.79-35.7-.62-.29-1.23-.58-1.85-.87Z"/>
    <path class="cls-3" d="M597.03,222.57c-19,1.39-36.52-3.31-52.7-13.11-22.3-13.5-35.9-33.35-41.96-58.52-.83-3.45-1.27-7-1.89-10.5,3.16-.16,6.32-.31,9.48-.47,8.22,13,18.2,24.29,31.52,32.3,15.77,9.49,32.67,14.98,51.27,14.4,1.48-.05,2.97,.08,4.46,.13-.06,11.92-.12,23.84-.18,35.76Z"/>
    <path class="cls-3" d="M626.23,19.71c-2.01,1.02-3.82,1.65-3.72-1.77,1.42,.22,2.68,.76,3.72,1.77Z"/>
    <path class="cls-3" d="M622.53,168.81c.06-.8-.32-1.89,.66-2.21,.99-.33,.92,.74,1.13,1.35-.6,.29-1.19,.58-1.79,.87Z"/>
    <g>
      <path class="cls-2" d="M608.9,531c0-113.1,0-226.2-.01-339.31,0-2.09-.07-4.18-.1-6.27-3.86,.46-7.72,.92-11.58,1.38-.06,11.92-.12,23.84-.18,35.76,.06,1.64,.18,3.28,.19,4.92,0,106.72,0,213.45,.01,320.17,0,13.82-4.23,25.81-14.93,35.06-6.31,5.46-13.74,8.31-21.95,9.24-2.67,.3-5.37,.35-8.06,.35-152.61,.02-305.23,0-457.84,.04-10.94,0-21.15-2.1-29.61-9.44-8.67-7.54-14.06-16.92-14.69-28.65-.12-2.24-.2-4.48-.2-6.72,0-153.66,.02-307.31-.08-460.97,0-9.88,1.85-19.04,7.56-27.12,7.41-10.49,17.77-16.17,30.53-17.25,4.15-.35,8.35-.09,12.53-.11,1.04-.06,2.08-.18,3.12-.18,68.78,0,137.55,0,206.33,.02,1.04,0,2.08,.11,3.12,.16,1.49-.06,2.98-.18,4.46-.18,63.41,0,126.82,0,190.24,.03,1.63,0,3.26,.18,4.9,.27,3.17-4.04,6.34-8.08,9.5-12.11-2.24-.05-4.48-.15-6.72-.15-138.36,.01-276.72,.04-415.08,.05-2.39,0-4.77-.13-7.16-.2-18.91,.29-34.44,7.42-45.61,22.95-6.92,9.63-9.45,20.72-9.78,32.41,.07,2.09,.2,4.18,.2,6.26,0,148.96,0,297.93,0,446.89,0,1.79-.11,3.58-.16,5.37,.02,9.24,.57,18.35,4.02,27.15,4.98,12.69,14.08,21.44,25.57,28.11,9.54,4.58,19.78,5.44,30.12,5.44,140.32,.02,280.64,0,420.96,0,5.12-1.34,10.32-.44,15.48-.59,3.11-.09,2.19,1.86,1.05,3.1-4.29,4.68-8.25,9.74-13.94,12.92-12.76,8.55-26.77,12.6-42.16,11.6-1.79,.05-3.58,.16-5.37,.16-128.72,0-257.44,0-386.16,0-1.64,0-3.28-.1-4.92-.15-41.85,2.35-73.12-28.92-70.78-70.78-.05-1.64-.15-3.28-.15-4.92,0-128.87,0-257.73,0-386.6,0-1.94,.11-3.88,.16-5.81-.79-21.63,6.35-39.81,23.28-53.76,1.13-4.72,.22-9.56,.81-14.31-1.65-.07-2.77,1.02-3.95,1.89C10.99,112.76,.1,133.67,.07,159.74-.05,295.14,.03,430.53,0,565.93c0,8.6,1.21,17.03,4.01,25.1,11.05,31.86,39.23,51.85,73.01,52,16.14,.07,32.28,.02,48.42,.02,119.11,0,238.21,0,357.32,0,27.49,0,48.92-11.69,64.59-33.97,2.44-3.47,4.64-4.82,8.88-4.88,25.46-.38,46.48-17.87,51.45-42.36,1.47-7.23,1.12-14.57,1.39-21.87-.06-2.99-.18-5.97-.18-8.96Z"/>
      <path class="cls-2" d="M500.48,140.44c3.16-.16,6.32-.31,9.48-.47-1.86-3.65-3.72-7.3-5.59-10.95-63.04,.02-126.08,.04-189.11,.04-1.64,0-3.27-.16-4.91-.24-1.93,.08-3.87,.22-5.8,.22-56.68,.02-113.36,.01-170.04,.03-7.16,0-14.32,.09-21.47,.14-2.26,1.9-4.2,3.92-2.99,7.25,1.27,3.48,4.1,3.97,7.28,3.82,1.19-.06,2.39,0,3.59,0,124.43,0,248.87,0,373.3,0,2.09,0,4.18,.11,6.26,.17Z"/>
      <path class="cls-2" d="M159.52,86.77c-.21-4.99-4.69-9.33-9.65-9.33s-9.73,4.64-9.66,9.76c.07,5.15,4.77,9.7,9.87,9.56,5.16-.14,9.65-4.89,9.44-9.99Z"/>
      <path class="cls-2" d="M120.72,87.06c-.02-5.16-4.63-9.68-9.79-9.61-5,.06-9.36,4.44-9.47,9.48-.11,5.2,4.33,9.76,9.56,9.82,5.13,.06,9.72-4.53,9.7-9.69Z"/>
      <path class="cls-2" d="M198.22,87.06c-.02-5.22-4.59-9.73-9.72-9.61-5.26,.12-9.54,4.65-9.39,9.92,.15,5.11,4.45,9.37,9.48,9.37s9.65-4.44,9.63-9.68Z"/>
    </g>
    <path class="cls-3" d="M574.66,132.67c1.29-.79,2.58-1.58,3.88-2.37-.02,2.87-1.19,3.86-3.88,2.37Z"/>
    <path class="cls-1" d="M625.72,58.77s-.2,0-.2,0c0,0,.2,0,.2,0Z"/>
    <path class="cls-3" d="M663.86,56.28c-7.82-15.89-19.96-27.71-35.79-35.7h0c-.62-.29-1.23-.58-1.85-.87-2.01,1.02-3.82,1.65-3.72-1.77-14.44-6.21-29.4-7.89-44.87-5.16-6.76,.65-13.18,2.71-19.29,5.46-34.6,15.6-53.43,49.99-48.13,87.53,4.76,33.66,31.65,61.85,64.64,67.78,0,0,0,0,0,0,16.36,3.15,32.29,2,47.67-4.74,.06-.8-.32-1.89,.66-2.21,.99-.33,.92,.74,1.13,1.35,1.85-.49,3.53-1.32,5.01-2.54,5.38-2.36,10.16-5.72,14.52-9.55,29.49-25.87,37.3-64.42,20.01-99.57Zm-71.44,14.74c4.03,0,8.06,.14,12.07-.04-4.02,.18-8.05,.05-12.07,.04-4.32,0-8.65,.09-12.97-.04,4.32,.13,8.65,.04,12.97,.04Zm34.23-13.57c-.21,.47-.55,.9-1.08,1.28,0,0,0,0,0,0,.53-.37,.87-.81,1.08-1.28Zm-3.2,2.42c-.03,.12-.05,.24-.07,.38h0c.02-.13,.04-.26,.07-.38Zm-48.79,72.78c1.29-.79,2.58-1.58,3.88-2.37-.02,2.87-1.19,3.86-3.88,2.37Z"/>
  </g>
  <path class="cls-2" d="M588.01,126.29h-.15c-1.24-.05-2.4-.61-3.2-1.57l-23-27.6c-1.54-1.85-1.3-4.6,.55-6.15,1.84-1.54,4.59-1.3,6.15,.55l19.89,23.86,38-39.43c1.69-1.75,4.45-1.77,6.17-.12,1.74,1.68,1.79,4.44,.12,6.17l-41.39,42.93c-.83,.86-1.96,1.34-3.15,1.34Z"/>
  <path class="cls-2" d="M296.81,454.85l.98,2.8c2.14,6.15,6.55,11.1,12.43,13.94,5.86,2.84,12.48,3.22,18.65,1.07,7.07-2.46,12.54-7.94,15.01-15.01l.97-2.8h81.36c2.98,0,5.42-2.43,5.42-5.42s-2.43-5.42-5.42-5.42h-81.34l-.98-2.76c-2.49-6.97-7.91-12.38-14.87-14.87l-2.76-.98v-46.97h4.16c12.84,0,24.08-.11,29.57-.22,3.14-.06,6.29-.45,9.37-1.15,15.92-3.71,28.61-16.4,32.31-32.33,5.54-23.19-8.14-46.25-31.13-52.52l-1.46-.32c-3.2-.72-6.44-1.44-8.57-6.58-11.25-27.16-42.51-40.07-69.67-28.83-15.57,6.45-27.28,20.08-31.33,36.45-1.91,7.92-2.09,16.35-.5,24.36l.66,3.31-3.1,1.33c-14.87,6.4-21.77,23.71-15.37,38.59,3.54,8.21,10.51,14.3,19.14,16.69,2.24,.59,4.61,.94,6.99,1.01,5.5,.15,21.55,.25,42.93,.25h5.18v46.94l-2.76,.98c-6.97,2.49-12.38,7.9-14.87,14.87l-.98,2.76h-81.34c-2.98,0-5.42,2.43-5.42,5.42s2.43,5.42,5.42,5.42h81.36Zm2.69-87.36c-15.67,0-28.98-.03-31.9-.11h-.02c-1.52-.05-3.06-.28-4.57-.68-6.15-1.72-10.99-6.56-12.71-12.65-2.62-8.95,1.9-18.52,10.51-22.21,6.78-2.86,10.51-10.12,8.89-17.28-2.36-11.17-.24-22.51,5.96-32.02,6.2-9.51,15.73-16.04,26.83-18.38,.77-.16,1.55-.31,2.32-.42,2.07-.31,4.16-.46,6.24-.48h.13c17.29,0,32.71,10.28,39.37,26.22,2.83,7.05,9.22,12.05,16.69,13.1,17.84,4.91,28.1,22.34,23.89,39.8-2.9,11.99-12.17,21.21-24.16,24.07-2.34,.55-4.76,.85-7.19,.9-3.46,.07-34.93,.14-60.27,.14Zm21.32,68.2c7.58,0,13.74,6.16,13.74,13.74s-6.16,13.74-13.74,13.74-13.74-6.16-13.74-13.74,6.16-13.74,13.74-13.74Z"/>
</svg>