<?xml version="1.0" encoding="UTF-8"?>
<svg id="Layer_1" data-name="Layer 1" xmlns="http://www.w3.org/2000/svg" viewBox="0 0 203.35 203.6">
  <defs>
    <style>
      .cls-1 {
        fill: #00f3a1;
      }
    </style>
  </defs>
  <path class="cls-1" d="M121.07,202.1c-4.21,.5-8.41,1-12.62,1.5-1.62-.05-3.24-.19-4.86-.14-20.28,.63-38.69-5.36-55.88-15.7-14.52-8.74-25.4-21.04-34.35-35.21-2.03-3.98-4.06-7.96-6.08-11.94-.36-1.24-.65-2.51-1.08-3.73C-.28,118.5-1.81,99.78,2.22,80.65c2.61-12.4,7.79-23.74,14.08-34.64,3.45-4.4,6.91-8.8,10.36-13.21,.67-.71,1.34-1.42,2.01-2.13,11.81-10.92,24.72-20.15,40.23-25.06C105.63-6.01,139.06,.34,168.35,25.34c24.39,20.81,35.6,47.96,34.97,79.86-.84,43.1-31.49,82.31-73.09,94.06-2.34,.66-4.64,1.47-6.95,2.21-.74,.21-1.47,.42-2.21,.63ZM140.08,21.48c-1.14-1.1-2.52-1.68-4.06-1.93-15.74-6.77-32.04-8.6-48.9-5.62-7.37,.71-14.37,2.95-21.02,5.95C28.38,36.88,7.86,74.37,13.65,115.29c5.19,36.69,34.49,67.41,70.45,73.87,17.83,3.44,35.19,2.18,51.95-5.17,.65-.32,1.3-.63,1.95-.95,2.02-.54,3.85-1.44,5.46-2.77,5.87-2.57,11.07-6.23,15.83-10.41,32.14-28.2,40.66-70.21,21.81-108.52-8.52-17.32-21.76-30.2-39.01-38.91-.67-.32-1.34-.63-2.01-.95Z"/>
  <path class="cls-1" d="M93.48,139.67h-.17c-1.36-.06-2.62-.67-3.48-1.71l-25.07-30.08c-1.68-2.02-1.41-5.02,.6-6.7,2.01-1.68,5.01-1.41,6.7,.6l21.68,26.01,41.42-42.97c1.84-1.9,4.85-1.93,6.73-.13,1.9,1.83,1.95,4.84,.13,6.73l-45.11,46.79c-.9,.94-2.14,1.46-3.43,1.46Z"/>
</svg>