<?xml version="1.0" encoding="UTF-8"?>
<svg id="Layer_1" data-name="Layer 1" xmlns="http://www.w3.org/2000/svg" viewBox="0 0 284.3 284.37">
  <defs>
    <style>
      .cls-1, .cls-2 {
        opacity: .1;
      }

      .cls-1, .cls-3 {
        fill: #00f3a1;
      }

      .cls-2 {
        fill: #e9e6f8;
      }
    </style>
  </defs>
  <path class="cls-3" d="M142.09,0c78.12-.14,142.19,63.63,142.21,142.07,.02,78.35-63.23,142.23-141.94,142.29C64.54,284.43,.29,222.58,0,142.16-.28,63.74,63.69,.14,142.09,0Zm-2.58,271.57c1.38,.05,2.76,.17,4.13,.14,15.05-.4,29.67-3.01,43.78-8.35,26.47-10.01,47.63-26.77,63.01-50.48,15.71-24.23,22.66-50.85,20.7-79.82-1.26-18.63-6.35-36.19-15.25-52.37-15.59-28.33-38.67-48.44-69.15-59.79-15.24-5.68-30.99-8.17-47.22-7.9-5.52,.2-11.02,.52-16.5,1.34-23.68,3.55-44.9,12.85-63.27,28.05C34.85,62.99,19.96,89.57,14.53,121.42c-3.39,19.92-2.13,39.66,3.94,58.84,9.05,28.57,25.76,51.76,50.69,68.75,21.22,14.47,44.7,21.9,70.35,22.56Z"/>
  <path class="cls-1" d="M139.51,13c16.23-.27,31.98,2.22,47.22,7.9,30.47,11.35,53.56,31.47,69.15,59.79,8.9,16.18,13.99,33.73,15.25,52.37,1.96,28.97-4.99,55.59-20.7,79.82-15.37,23.71-36.54,40.46-63.01,50.48-14.11,5.34-28.73,7.95-43.78,8.35-1.37,.04-2.75-.09-4.13-.14-1.14-2.47-3.68-2.76-5.8-3.62-13-5.26-24.68-12.74-35.2-21.88-13.87-12.05-24.51-26.73-32.25-43.35-7.94-17.04-12.52-35-12.8-53.91,1.25-.06,2.51-.04,3.75-.21,3.95-.52,6.46-3.31,6.16-6.76-.31-3.55-2.97-5.82-6.91-5.94-1-.03-2-.1-3-.16-.05-8.28,1.17-16.39,2.95-24.48,5.97-27.14,18.61-50.49,38.84-69.67,11.95-11.33,25.45-20.13,40.86-26.01,1.3-.5,3.05-.7,3.39-2.58Zm-57.33,196.97c1.34,.1,2.73-.46,4.12-1.08,21.59-9.53,43.18-19.07,64.8-28.56,13.11-5.75,22.76-14.98,28.59-28.11,5.41-12.16,10.81-24.32,16.19-36.5,4.41-9.99,8.82-19.99,13.18-30,2.18-5,.52-9.2-4.13-11.12-2.24-.93-4.15-.22-6.14,.65-22.4,9.87-44.86,19.64-67.21,29.63-13.09,5.85-22.17,15.73-27.81,28.89-4.26,9.92-8.7,19.76-13.05,29.65-5.26,11.95-10.6,23.87-15.69,35.89-2.4,5.65,1.08,10.72,7.16,10.65ZM148.55,46.63c0-3.13,.05-6.27-.01-9.4-.09-4.67-2.31-7.09-6.38-7.11-4.15-.02-6.29,2.31-6.33,7.06-.05,6.39-.04,12.79,0,19.18,.03,4.23,2.44,6.98,6.09,7.12,3.79,.14,6.46-2.64,6.6-7.07,.1-3.26,.02-6.52,.02-9.78Zm-12.72,191.03c0,3.38-.07,6.77,.02,10.15,.1,4.15,2.34,6.47,6.13,6.56,3.72,.09,6.43-2.28,6.52-6.23,.16-6.89,.15-13.79,0-20.68-.08-3.93-2.76-6.4-6.41-6.4-3.75,0-6.11,2.36-6.24,6.44-.1,3.38-.02,6.77-.02,10.15Zm102.03-101.75c-3.39,0-6.79-.04-10.18,.01-4.02,.07-6.55,2.4-6.71,6.08-.14,3.25,2.32,6.38,5.96,6.52,7.15,.27,14.33,.29,21.48,0,3.83-.16,6.08-3.08,5.94-6.51-.16-3.77-2.57-6-6.69-6.09-3.27-.07-6.54-.01-9.8-.01Z"/>
  <path class="cls-3" d="M82.18,209.97c-6.08,.07-9.55-5-7.16-10.65,5.1-12.02,10.44-23.94,15.69-35.89,4.35-9.88,8.79-19.72,13.05-29.65,5.64-13.16,14.72-23.04,27.81-28.89,22.35-9.99,44.8-19.76,67.21-29.63,1.99-.88,3.89-1.58,6.14-.65,4.65,1.92,6.31,6.12,4.13,11.12-4.36,10.01-8.76,20.01-13.18,30-5.38,12.17-10.78,24.34-16.19,36.5-5.83,13.13-15.48,22.35-28.59,28.11-21.61,9.49-43.2,19.03-64.8,28.56-1.39,.61-2.78,1.18-4.12,1.08Zm43.04-85.39c-4.67,4.05-7.58,9.28-10.02,14.84-6.52,14.83-13.1,29.64-19.56,44.49-1.06,2.43-2.63,4.74-2.91,7.9,1.09-.33,1.8-.46,2.45-.75,17.93-7.89,35.88-15.74,53.75-23.76,4.01-1.8,7.63-4.37,10.48-7.85,4.02-3.4,6.67-7.79,8.77-12.52,7.37-16.61,14.68-33.24,21.98-49.88,.57-1.29,1.56-2.52,1.29-4.02-1.03-.4-1.67,.08-2.33,.37-17.32,7.63-34.64,15.23-51.94,22.9-4.49,1.99-8.62,4.58-11.96,8.27Z"/>
  <path class="cls-3" d="M148.55,46.63c0,3.26,.08,6.52-.02,9.78-.14,4.43-2.81,7.21-6.6,7.07-3.65-.14-6.06-2.88-6.09-7.12-.05-6.39-.05-12.79,0-19.18,.04-4.75,2.18-7.09,6.33-7.06,4.07,.02,6.28,2.45,6.38,7.11,.06,3.13,.01,6.27,.01,9.4Z"/>
  <path class="cls-3" d="M53.47,148.82c-5.52-.05-11.04,0-16.55-.18-2.89-.09-5.41-1.19-6.7-4.03-1.05-2.31-.33-4.42,1.08-6.33,1.29-1.74,3.06-2.39,5.24-2.38,5.64,.02,11.28-.09,16.92-.15,1,.05,2,.13,3,.16,3.95,.11,6.6,2.39,6.91,5.94,.3,3.45-2.21,6.24-6.16,6.76-1.24,.16-2.5,.14-3.75,.21Z"/>
  <path class="cls-3" d="M135.83,237.67c0-3.38-.08-6.77,.02-10.15,.12-4.09,2.48-6.45,6.24-6.44,3.65,0,6.32,2.48,6.41,6.4,.14,6.89,.16,13.79,0,20.68-.09,3.94-2.8,6.32-6.52,6.23-3.79-.09-6.02-2.41-6.13-6.56-.09-3.38-.02-6.77-.02-10.15Z"/>
  <path class="cls-3" d="M237.86,135.91c3.27,0,6.54-.05,9.8,.01,4.12,.08,6.53,2.32,6.69,6.09,.15,3.43-2.11,6.35-5.94,6.51-7.15,.3-14.33,.28-21.48,0-3.64-.14-6.11-3.26-5.96-6.52,.16-3.68,2.69-6.02,6.71-6.08,3.39-.06,6.79-.01,10.18-.01Z"/>
  <path class="cls-2" d="M125.22,124.58c2.36,4.16,5.61,7.43,9.78,9.77-4.21,5.95-4.2,11.8,.04,15.62,4.23,3.81,9.59,3.55,14.96-.7,2.09,4.36,5.98,7.07,9.42,10.19-2.85,3.47-6.47,6.05-10.48,7.85-17.87,8.03-35.82,15.87-53.75,23.76-.65,.29-1.37,.42-2.45,.75,.28-3.16,1.85-5.47,2.91-7.9,6.46-14.86,13.04-29.66,19.56-44.49,2.44-5.56,5.35-10.79,10.02-14.84Z"/>
  <path class="cls-3" d="M149.99,149.27c-5.37,4.26-10.73,4.51-14.96,.7-4.24-3.82-4.25-9.66-.04-15.62,6.62-5.06,15.61-2.25,17.31,6.1,.69,3.4-.58,6.13-2.31,8.81Z"/>
</svg>