<?xml version="1.0" encoding="UTF-8"?>
<svg id="Layer_1" data-name="Layer 1" xmlns="http://www.w3.org/2000/svg" viewBox="0 0 318.07 278.86">
  <defs>
    <style>
      .cls-1, .cls-2 {
        fill: #00f3a1;
      }

      .cls-2 {
        opacity: .2;
      }
    </style>
  </defs>
  <path class="cls-1" d="M0,88.94C.46,45.19,29.56,9.4,69.9,1.76c31-5.88,57.84,3.1,80.32,25.19,2.1,2.06,4.3,4.05,6.21,6.28,1.89,2.2,3.22,2.25,5.31,.07,7.28-7.58,14.82-14.85,23.88-20.43,32.54-20.04,74.88-16.22,103.37,9.48,29.82,26.9,37.6,69.62,19.19,105.11-6.5,12.54-16.27,22.36-26.3,31.99-1.01,.97-2.08,1.88-3.07,2.87-37.44,37.32-74.87,74.64-112.3,111.97-6.1,6.08-9.06,6.11-15.05,.12-41.84-41.84-83.7-83.66-125.52-125.53C8.76,131.67,.43,110.73,0,88.94ZM37.03,34.25c-.55,.42-1.16,.79-1.64,1.28-28.24,28.47-28.27,74.33,.1,102.83,33.11,33.25,66.34,66.37,99.52,99.55,7.23,7.23,14.47,14.45,21.68,21.7,1.26,1.26,2.18,2.4,4.01,.5,5.82-6.05,11.81-11.94,17.73-17.89,.63-.55,1.29-1.07,1.88-1.65,33.75-33.64,67.5-67.27,101.24-100.92,14.73-14.69,22.3-32.58,21.92-53.24-.39-21.42-8.85-39.53-25.07-53.93-24.88-22.08-64.35-23.76-90.88-3.68-8.09,6.12-14.65,13.84-21.96,20.78-4.77,4.53-8.35,4.57-13.09-.01-4.13-3.99-8.19-8.06-12.2-12.18-17.25-17.71-38.11-25.54-62.72-22.51-15.58,1.92-29.21,8.31-40.52,19.36Z"/>
  <path class="cls-2" d="M37.03,34.25c11.31-11.05,24.94-17.44,40.52-19.36,24.61-3.03,45.47,4.79,62.72,22.51,4.01,4.12,8.06,8.19,12.2,12.18,4.75,4.58,8.33,4.54,13.09,.01,7.3-6.94,13.87-14.66,21.96-20.78,26.53-20.08,66-18.4,90.88,3.68,16.23,14.4,24.68,32.51,25.07,53.93,.38,20.65-7.19,38.55-21.92,53.24-33.74,33.64-67.49,67.28-101.24,100.92-.59,.59-1.25,1.1-1.88,1.65-2.59-5.6-7.56-9.26-11.62-13.53-12.71-13.39-25.46-26.74-38.25-40.06-13.27-13.82-26.62-27.57-39.77-41.51-11.24-11.91-22.88-23.44-34.25-35.23-5.29-5.49-9.46-11.73-11.66-19.14-5.34-17.99-7.41-36.27-5.13-54.97,.15-1.2,.45-2.55-.74-3.52Zm249.97,64.09s-.08,0-.12,0c0-1.68,.1-3.36-.03-5.03-.14-1.8-.46-3.6-.78-5.38-3.97-21.59-15.45-38.02-34.12-49.44-3.57-2.18-7.71-1.14-10,2.15-2.33,3.34-1.8,7.37,1.42,10.12,1.16,1,2.47,1.83,3.75,2.69,11.21,7.57,18.69,17.82,22.5,30.82,1.76,5.98,2.16,12.04,2.18,18.21,.02,5.2,3.26,8.45,7.91,8.4,4.61-.06,7.19-3,7.3-8.34,.03-1.4,0-2.8,0-4.2Z"/>
  <path class="cls-1" d="M287,98.34c0,1.4,.02,2.8,0,4.2-.11,5.34-2.69,8.28-7.3,8.34-4.64,.06-7.89-3.2-7.91-8.4-.02-6.17-.42-12.24-2.18-18.21-3.82-13-11.29-23.25-22.5-30.82-1.27-.86-2.58-1.69-3.75-2.69-3.21-2.75-3.74-6.78-1.42-10.12,2.29-3.29,6.43-4.34,10-2.15,18.67,11.42,30.16,27.85,34.12,49.44,.33,1.78,.64,3.58,.78,5.38,.13,1.67,.03,3.35,.03,5.03,.04,0,.08,0,.12,0Z"/>
</svg>