<?xml version="1.0" encoding="UTF-8"?>
<svg id="Layer_1" data-name="Layer 1" xmlns="http://www.w3.org/2000/svg" viewBox="0 0 214.05 274.32">
  <defs>
    <style>
      .cls-1 {
        opacity: .1;
      }

      .cls-1, .cls-2 {
        fill: #00f3a1;
      }
    </style>
  </defs>
  <path class="cls-2" d="M106.87,227.83c-29.09,0-58.18,.01-87.27-.01-3.5,0-7.07,.28-10.42-1.09-8.25-3.37-11.61-12.87-7.32-21.32,3.07-6.04,6.54-11.87,9.84-17.79,4.96-8.88,9.9-17.77,14.91-26.62,1.13-2,1.3-4.09,1.33-6.3,.19-15.27-.44-30.54,.38-45.8,1.23-23.04,9.76-43.25,23.73-61.33C66.69,28.64,84.51,13.36,104.98,1.08c2.28-1.37,3.83-1.5,6.13,0,23.3,15.25,43.22,33.95,58.26,57.49,9.41,14.72,14.77,30.91,16.17,48.41,1.28,15.86,.48,31.74,.65,47.61,.03,2.89,.64,5.39,2.07,7.91,7.98,14.13,15.94,28.26,23.68,42.52,4.54,8.36,1.41,17.86-6.71,21.52-3.09,1.39-6.39,1.28-9.65,1.28-29.57,.02-59.15,0-88.72,0ZM112.95,15.03q-4.85-3.98-9.81-.76c-17.02,11.04-31.81,24.54-44.14,40.65-12.31,16.08-19.52,34.15-20.61,54.5-.88,16.23-.23,32.47-.37,48.7-.11,12.48,0,24.97-.08,37.45-.03,4.72-3.76,7.36-7.33,5.33-2.14-1.22-2.79-3.21-2.79-5.54,.01-4.76,0-9.52,0-14.28-6.4,9.95-12.07,20.04-17.39,30.31-1.7,3.28,.59,6.22,4.6,6.24,14.66,.05,29.32-.06,43.98-.11,.48,.05,.96,.13,1.45,.13,45.82,.01,91.64,.03,137.46,0,5.52,0,7.45-3.48,4.73-8.48-4.22-7.77-8.54-15.48-12.83-23.22-.95-1.72-1.95-3.41-2.93-5.11-.67,1.74-.67,3.18-.67,4.62-.01,3.64,.14,7.28-.09,10.91-.19,2.98-1.82,5.03-5.06,5.12-2.94,.08-4.83-2.08-4.97-5.49-.04-.97-.01-1.94-.01-2.91,.03-24.25,.2-48.49,.03-72.74-.07-9.18-.6-18.39-2.9-27.38-4.51-17.61-13.19-32.91-25.28-46.42-10.54-11.77-21.66-22.84-34.97-31.51Z"/>
  <path class="cls-2" d="M107.04,252.56c-15.52,0-31.03-.03-46.55,.03-2.57,0-4.52-.71-5.48-3.24-.79-2.07-.15-3.82,1.36-5.28,1.12-1.08,2.58-1.26,4.06-1.26,31.03,0,62.06-.02,93.09,.03,3.6,0,5.42,1.88,5.32,5-.1,3.09-1.91,4.71-5.62,4.72-15.39,.04-30.79,.02-46.18,.02Z"/>
  <path class="cls-2" d="M107.06,274.31c-5.69,0-11.38,.03-17.07-.01-3.58-.03-6.06-2.02-6.16-4.79-.11-3.11,2.2-5.26,6.07-5.28,11.38-.07,22.76-.07,34.14,0,3.91,.02,6.2,2.08,6.16,5.2-.04,2.89-2.58,4.85-6.43,4.88-5.57,.03-11.14,0-16.71,0Z"/>
  <path class="cls-1" d="M112.95,15.03c13.31,8.67,24.44,19.74,34.97,31.51,12.09,13.51,20.77,28.81,25.28,46.42,2.3,8.99,2.84,18.2,2.9,27.38,.17,24.24,0,48.49-.03,72.74,0,.97-.03,1.94,.01,2.91,.14,3.41,2.03,5.58,4.97,5.49,3.24-.09,4.87-2.14,5.06-5.12,.23-3.62,.08-7.27,.09-10.91,0-1.44,0-2.87,.67-4.62,.98,1.7,1.97,3.4,2.93,5.11,4.29,7.73,8.61,15.45,12.83,23.22,2.72,5,.79,8.48-4.73,8.48-45.82,.03-91.64,0-137.46,0-.48,0-.96-.09-1.45-.13,0-35.29-.04-70.57,.02-105.86,.02-11.11,2.74-21.74,6.44-32.12,4.31-12.09,11.25-22.85,18.94-32.86,8.64-11.24,17.15-22.79,28.54-31.64Zm-6.05,123.26c17.52,.09,31.88-14.15,32.05-31.79,.17-17.38-14.17-31.8-31.83-31.99-17.4-.19-32.05,14.33-32.04,31.77,0,17.61,14.24,31.92,31.82,32.01Zm-.16,33.27c3.63,.17,7.1-3.09,7.18-6.75,.09-3.7-2.75-6.76-6.46-6.97-3.95-.22-7.07,2.51-7.34,6.42-.25,3.61,2.93,7.12,6.61,7.29Zm7.13,18.07c-.07-3.75-3.35-6.97-7.01-6.87-3.52,.09-6.72,3.31-6.76,6.81-.05,4,3.18,7.07,7.24,6.91,3.74-.15,6.6-3.14,6.53-6.85Z"/>
  <path class="cls-2" d="M106.91,138.29c-17.58-.09-31.81-14.41-31.82-32.01,0-17.44,14.64-31.97,32.04-31.77,17.66,.19,32,14.61,31.83,31.99-.18,17.64-14.54,31.88-32.05,31.79Zm.05-10.17c12.01,.02,21.91-9.77,21.86-21.63-.04-11.8-10.08-21.92-21.77-21.94-11.83-.02-21.73,9.88-21.82,21.82-.09,11.89,9.74,21.73,21.73,21.75Z"/>
  <path class="cls-2" d="M106.75,171.57c-3.68-.17-6.86-3.68-6.61-7.29,.27-3.91,3.39-6.64,7.34-6.42,3.7,.2,6.54,3.27,6.46,6.97-.09,3.65-3.56,6.91-7.18,6.75Z"/>
  <path class="cls-2" d="M113.88,189.64c.07,3.71-2.79,6.7-6.53,6.85-4.07,.16-7.29-2.92-7.24-6.91,.04-3.5,3.23-6.72,6.76-6.81,3.67-.1,6.95,3.12,7.01,6.87Z"/>
</svg>