<?xml version="1.0" encoding="UTF-8"?>
<svg id="Layer_1" data-name="Layer 1" xmlns="http://www.w3.org/2000/svg" xmlns:xlink="http://www.w3.org/1999/xlink" viewBox="0 0 206.13 275.41">
  <defs>
    <style>
      .cls-1 {
        fill: url(#linear-gradient);
      }

      .cls-1, .cls-2, .cls-3 {
        opacity: .1;
      }

      .cls-4 {
        fill: #e1e6ef;
      }

      .cls-5 {
        fill: #00f3a1;
      }

      .cls-2 {
        fill: url(#linear-gradient-3);
      }

      .cls-3 {
        fill: url(#linear-gradient-2);
      }
    </style>
    <linearGradient id="linear-gradient" x1="36.13" y1="113.26" x2="196.36" y2="113.26" gradientUnits="userSpaceOnUse">
      <stop offset="0" stop-color="#fff"/>
      <stop offset="1" stop-color="#000"/>
    </linearGradient>
    <linearGradient id="linear-gradient-2" x1="122.4" y1="225.9" x2="180.26" y2="225.9" xlink:href="#linear-gradient"/>
    <linearGradient id="linear-gradient-3" x1="25.93" y1="225.94" x2="83.89" y2="225.94" xlink:href="#linear-gradient"/>
  </defs>
  <path class="cls-5" d="M40.71,17.98c10.24,.17,23.08,.15,35.52-4.09,8.37-2.85,16.06-6.9,23.01-12.29,2.79-2.17,4.99-2.12,7.76,.03,14.99,11.62,32.16,16.56,50.99,16.36,8.75-.09,17.5,.09,26.25-.08,2.72-.05,3.79,.74,4.19,3.5,4.25,29.78,8.79,59.52,12.89,89.32,1.95,14.17,3.97,28.35,4.78,42.67,.35,6.26-1.9,11.07-5.89,15.45-7.59,8.35-16.79,14.7-26.05,20.98-4.36,2.96-4.43,3.22-1.51,7.73,8.13,12.53,16.27,25.06,24.42,37.58,1.15,1.77,2.37,3.55,1.07,5.7-1.44,2.36-3.77,1.76-5.92,1.5-9.51-1.16-19.03-2.28-28.52-3.57-2.85-.39-4.16,.7-5.11,3.28-3.49,9.58-7.17,19.08-10.76,28.62-.77,2.04-1.24,4.42-3.97,4.64-2.91,.23-3.79-2.2-4.88-4.21-7.85-14.39-15.75-28.75-23.47-43.21-1.78-3.34-3.67-4.85-7.72-3.85-3.36,.84-7.04,.71-10.49-.16-2.87-.72-4.48,.28-5.84,2.81-8.01,14.86-16.13,29.65-24.22,44.46-.7,1.28-1.28,2.66-2.51,3.53-2.32,1.63-4.63,.48-5.97-3.05-3.52-9.31-7-18.63-10.48-27.95-1.94-5.2-1.95-5.35-7.6-4.72-8.8,.99-17.57,2.21-26.35,3.31-2.14,.27-4.47,1.02-6.05-1.19-1.71-2.39-.15-4.34,1.12-6.29,8.21-12.62,16.42-25.25,24.61-37.89,2.34-3.61,2.23-4.3-1.37-6.71-8.08-5.4-16.08-10.93-23.1-17.7-1.66-1.6-3.16-3.36-4.75-5.03-6.17-6.47-4.91-14.41-4.11-22.08,2.98-28.48,7.3-56.78,11.37-85.12,1.88-13.09,3.95-26.14,5.82-39.23,.35-2.45,1.39-3.18,3.79-3.11,5.46,.16,10.94,.05,19.06,.05Zm41.2,189.04c.76,.73,1.65,1.23,2.71,1.38,1.57,1.37,3.36,2.31,5.38,2.79,10.15,4.78,20.02,3.7,29.68-1.43,15.55-8.26,31-16.71,45.77-26.33,9.66-6.3,19.35-12.59,27.48-20.92,2.19-2.24,3.75-4.74,3.38-8.1-.99-9.17-1.66-18.38-2.94-27.5-4.46-31.83-9.13-63.62-13.66-95.44-.37-2.62-1.65-3.46-4.14-3.41-5.34,.1-10.7-.11-16.04,.05-19.49,.58-37.56-3.87-53.82-14.88-1.72-1.16-3.17-1.38-4.97-.14-14.22,9.74-30.09,14.39-47.2,15.13-7.78-.04-15.55-.06-23.32-.15-2.21-.02-3.33,.9-3.64,3.12-.89,6.24-1.94,12.46-2.84,18.7-4.55,31.81-9.39,63.59-13.1,95.52-1.51,13.02-1.11,14.57,8.9,22.81,8.55,7.04,17.76,13.15,27.19,18.94,11.48,7.05,23.05,13.95,35.19,19.84Zm95.56,23.78c.46,.02,1.57-.62,2.36-1.82,1.03-1.56,0-2.83-.76-4-4.99-7.76-10.03-15.49-15.08-23.21-2.59-3.97-3.08-4.08-7.26-1.65-10.59,6.17-21.21,12.29-32.21,17.71-2.61,1.29-2.55,2.42-1.28,4.69,5.1,9.1,9.99,18.32,15.02,27.47,.84,1.52,1.44,3.59,3.83,3.27,2.14-.28,2.83-2.01,3.49-3.77,2.21-5.91,4.49-11.78,6.67-17.71,1.03-2.8,2.61-3.96,5.8-3.43,6.1,1,12.26,1.57,19.4,2.44Zm-127.19-2.65c1.95,.02,2.91,1.64,3.63,3.55,2.29,6.13,4.62,12.25,6.9,18.39,.59,1.58,1.43,2.86,3.19,3.14,1.96,.32,2.79-1.14,3.56-2.54,5.24-9.58,10.43-19.18,15.71-28.73,.94-1.7,1-2.63-.97-3.65-11.53-5.97-22.88-12.26-34.03-18.9-2.39-1.42-4.02-.88-5.47,1.38-5.18,8.06-10.44,16.08-15.62,24.14-.82,1.28-1.94,2.62-.63,4.28,1.22,1.54,2.74,1.59,4.57,1.33,6.24-.88,12.5-1.57,19.17-2.39Z"/>
  <path class="cls-1" d="M53.53,28.24c17.11-.74,32.98-5.39,47.2-15.13,1.8-1.23,3.25-1.02,4.97,.14,16.26,11.01,34.34,15.46,53.82,14.88,5.34-.16,10.69,.05,16.04-.05,2.49-.05,3.76,.79,4.14,3.41,4.53,31.82,9.21,63.61,13.66,95.44,1.28,9.12,1.95,18.33,2.94,27.5,.36,3.36-1.19,5.85-3.38,8.1-8.13,8.33-17.82,14.62-27.48,20.92-14.76,9.62-30.21,18.07-45.77,26.33-9.66,5.13-19.54,6.21-29.68,1.43-.74-2.96-3.04-2.92-5.38-2.79-1.06-.16-1.94-.65-2.71-1.38,.07-1.6-1.31-1.84-2.3-2.47-12.91-8.16-25.74-16.39-35.45-28.56-5.41-6.78-8.59-14.3-7.94-23.06,.43-5.89,1.29-11.74,2.01-17.61,1.14-9.21,2.23-18.43,3.52-27.63,1.39-9.92,3.01-19.8,4.48-29.7,1.45-9.78,2.82-19.57,4.25-29.36,1-6.8,2.04-13.6,3.06-20.4Zm53.29,35.05c-4.16,0-6.88,1.78-8.55,5.1-2.95,5.85-5.89,11.7-8.72,17.61-.88,1.84-2.01,2.66-4.1,2.91-6.13,.74-12.22,1.86-18.35,2.69-4.1,.55-7.11,2.33-8.33,6.47-1.17,3.95,.24,7.04,3.11,9.78,4.48,4.27,8.79,8.72,13.29,12.98,1.5,1.42,1.94,2.81,1.56,4.82-1.16,6.07-2.12,12.18-3.23,18.25-.69,3.76-.03,7.05,3.08,9.48,3.32,2.6,6.83,2.63,10.53,.63,5.54-3.01,11.2-5.81,16.72-8.85,1.82-1,3.23-.95,5.03,.05,5.51,3.07,11.13,5.93,16.7,8.89,3.54,1.88,7.01,1.89,10.25-.56,3.11-2.35,4.06-5.53,3.33-9.36-1.09-5.71-1.99-11.47-3.05-17.19-.49-2.63-.39-4.73,1.94-6.78,4.37-3.84,8.27-8.21,12.53-12.19,3.02-2.82,4.48-5.98,3.26-10.07-1.24-4.16-4.35-5.82-8.41-6.38-6.12-.83-12.21-1.97-18.35-2.66-2.2-.24-3.16-1.26-4-3.02-2.8-5.79-5.7-11.53-8.55-17.29-1.65-3.34-4.31-5.15-7.67-5.32Z"/>
  <path class="cls-3" d="M177.47,230.79c-7.14-.87-13.3-1.45-19.4-2.44-3.19-.52-4.77,.63-5.8,3.43-2.17,5.92-4.46,11.8-6.67,17.71-.66,1.76-1.36,3.49-3.49,3.77-2.4,.32-3-1.75-3.83-3.27-5.03-9.14-9.92-18.36-15.02-27.47-1.27-2.27-1.33-3.4,1.28-4.69,11-5.42,21.62-11.54,32.21-17.71,4.18-2.43,4.66-2.32,7.26,1.65,5.05,7.72,10.09,15.45,15.08,23.21,.75,1.17,1.78,2.44,.76,4-.79,1.2-1.9,1.84-2.36,1.82Z"/>
  <path class="cls-2" d="M50.28,228.15c-6.67,.81-12.93,1.51-19.17,2.39-1.84,.26-3.35,.21-4.57-1.33-1.32-1.66-.2-3,.63-4.28,5.18-8.06,10.44-16.07,15.62-24.14,1.45-2.25,3.09-2.8,5.47-1.38,11.15,6.65,22.51,12.93,34.03,18.9,1.97,1.02,1.91,1.96,.97,3.65-5.28,9.55-10.47,19.16-15.71,28.73-.77,1.4-1.6,2.86-3.56,2.54-1.76-.28-2.61-1.56-3.19-3.14-2.27-6.14-4.6-12.26-6.9-18.39-.72-1.92-1.67-3.54-3.63-3.55Z"/>
  <path class="cls-4" d="M84.61,208.4c2.34-.13,4.64-.16,5.38,2.79-2.03-.49-3.82-1.42-5.38-2.79Z"/>
  <path class="cls-5" d="M106.82,63.28c3.36,.17,6.02,1.98,7.67,5.32,2.85,5.76,5.75,11.5,8.55,17.29,.85,1.75,1.81,2.77,4,3.02,6.14,.69,12.22,1.83,18.35,2.66,4.06,.55,7.17,2.22,8.41,6.38,1.22,4.09-.24,7.24-3.26,10.07-4.26,3.98-8.16,8.34-12.53,12.19-2.33,2.05-2.43,4.15-1.94,6.78,1.07,5.72,1.96,11.47,3.05,17.19,.73,3.83-.22,7-3.33,9.36-3.24,2.45-6.71,2.45-10.25,.56-5.57-2.96-11.2-5.82-16.7-8.89-1.81-1.01-3.22-1.05-5.03-.05-5.53,3.04-11.18,5.84-16.72,8.85-3.7,2-7.21,1.97-10.53-.63-3.11-2.44-3.77-5.73-3.08-9.48,1.12-6.08,2.07-12.19,3.23-18.25,.38-2.01-.06-3.4-1.56-4.82-4.5-4.25-8.81-8.7-13.29-12.98-2.87-2.74-4.28-5.83-3.11-9.78,1.22-4.14,4.23-5.91,8.33-6.47,6.13-.83,12.21-1.95,18.35-2.69,2.09-.25,3.22-1.07,4.1-2.91,2.83-5.91,5.76-11.76,8.72-17.61,1.68-3.32,4.39-5.09,8.55-5.1Zm-.49,9.26c-2.81,5.64-5.75,10.69-7.88,16.06-2.57,6.5-7.07,9.25-13.85,9.68-5.46,.35-10.86,1.53-16.02,2.3,4.81,5.08,9.41,10.06,14.16,14.88,2.77,2.81,4.04,5.86,3.2,9.85-.97,4.62-1.77,9.29-2.4,13.97-.27,2.02-1.36,4.06-.46,6.57,5.1-2.68,10.13-4.88,14.67-7.81,5.93-3.83,11.31-3.72,17.21,.07,4.63,2.97,9.74,5.2,15.23,8.07-1.17-6.96-1.99-13.2-3.32-19.33-1.09-5.04,.06-8.88,3.96-12.34,4.75-4.23,9.13-8.88,14.13-13.8-7.48-1.13-14.13-2.29-20.82-3.09-4.21-.5-6.81-2.64-8.58-6.34-2.87-6.02-5.89-11.96-9.25-18.75Z"/>
</svg>