<?xml version="1.0" encoding="UTF-8"?>
<svg id="Layer_1" data-name="Layer 1" xmlns="http://www.w3.org/2000/svg" viewBox="0 0 225.7 286.21">
  <defs>
    <style>
      .cls-1 {
        opacity: .1;
      }

      .cls-1, .cls-2 {
        fill: #00f3a1;
      }
    </style>
  </defs>
  <path class="cls-2" d="M113.17,0c32.48,.74,60.13,12.49,82.39,36.37,22.11,23.73,32.03,52.19,29.84,84.2-2.52,36.96-19.88,66.13-50.4,87.27-5.42,3.75-11.06,7.14-12.99,14.08-1.2,4.31-1.47,8.69-1.27,13.1,.54,11.94-2.8,22.64-9.96,32.2-11.7,15.62-32.78,22.59-52.1,17.15-19.19-5.41-33.34-22.16-35.08-41.68-.34-3.76-.61-7.57-.41-11.34,.56-10.53-4.02-17.99-12.67-23.7-18.83-12.43-32.66-29.16-41.37-49.97C-.49,134.66-2.75,110.84,3.51,86.61,13.83,46.7,38.99,20.02,77.49,5.95,88.91,1.77,100.92-.05,113.17,0Zm92.36,75.9c-.84-2.1-1.56-4.26-2.55-6.29-6.47-13.21-15.24-24.6-26.64-33.95-21.45-17.59-46.16-25.35-73.57-22.51-29.26,3.04-53.2,16.62-70.59,40.59-18.84,25.96-24.1,54.8-15.96,85.79,6.63,25.27,21.7,44.62,43.34,58.98,7.73,5.12,12.63,12.17,14.95,21.06,.47,1.79,1.1,2.76,3.24,2.74,13.5-.13,26.99-.11,40.49-.15,9.08,.02,18.16,.03,27.24,.06,1.55,0,3.05,.11,3.56-1.9,2.81-10.98,10.19-18.12,19.45-24.03,10.73-6.85,19.63-15.77,26.71-26.38,13.97-20.93,19.85-43.9,16.9-68.96-1.02-8.63-2.82-17.12-6.56-25.07ZM111.93,235.46c-10.98,0-21.96,.08-32.93-.05-2.71-.03-3.48,.82-3.28,3.48,.71,9.42,3.93,17.85,10.76,24.35,11.46,10.9,25.01,13.37,39.52,7.31,13.66-5.72,20.76-16.54,21.89-31.37,.25-3.23-.93-3.8-3.78-3.76-10.72,.13-21.45,.05-32.18,.05Z"/>
  <path class="cls-1" d="M205.53,75.9c3.74,7.95,5.54,16.44,6.56,25.06,2.95,25.06-2.93,48.03-16.9,68.96-7.08,10.61-15.98,19.54-26.71,26.38-9.26,5.91-16.64,13.04-19.45,24.03-.51,2-2.01,1.9-3.56,1.9-9.08-.03-18.16-.04-27.24-.06,.14-1.52-.65-2.55-1.6-3.66-2.94-3.42-6.9-5.02-11.03-6.07-5.04-1.28-9.75-3.34-14.34-5.65-16.24-8.18-28.81-20.34-37.98-35.97-4.35-7.4-7.23-15.46-9.28-23.79-2.01-8.16-1.51-16.49-1.57-24.78-.08-12.06,3.2-23.29,8.42-34.01,8.34-17.13,21.02-30.23,37.58-39.52,5.57-3.13,11.41-5.84,17.82-6.95,.3,5.4,2.22,7.5,7.49,8.06,2.13,.23,4.29,.15,6.41,.44,4.68,.64,7.78-.41,9.02-3.55,1.42-3.59-.13-6.34-2.94-8.57,13-1.17,25.54,1.2,37.61,5.67,15.98,5.92,28.53,16.53,38.66,30.11,.79,1.06,1.65,1.9,3.04,1.97Zm-18.58,35.41c-.35-16.05-5.05-30.68-14.52-43.71-5.84-8.04-12.94-14.75-21.43-19.95-3.82-2.34-7.41-1.88-9.36,1.05-2.35,3.53-1.53,6.77,2.48,9.64,1.54,1.1,3.17,2.06,4.68,3.19,12.81,9.62,20.89,22.25,24.06,37.99,1.08,5.34,1.34,10.71,1.38,16.14,.02,3.76,2.61,6.49,5.87,6.71,3.43,.23,6.33-2.31,6.81-6.16,.2-1.61,.03-3.27,.03-4.91Z"/>
  <path class="cls-1" d="M111.93,235.46c10.73,0,21.45,.08,32.18-.05,2.86-.04,4.03,.53,3.78,3.76-1.13,14.83-8.23,25.66-21.89,31.37-14.5,6.07-28.06,3.59-39.52-7.31-6.83-6.5-10.05-14.93-10.76-24.35-.2-2.66,.57-3.51,3.28-3.48,10.98,.13,21.96,.05,32.93,.05Z"/>
  <path class="cls-2" d="M186.95,111.31c0,1.64,.17,3.3-.03,4.91-.47,3.85-3.37,6.4-6.81,6.16-3.26-.22-5.84-2.95-5.87-6.71-.04-5.43-.3-10.8-1.38-16.14-3.18-15.74-11.25-28.37-24.06-37.99-1.51-1.13-3.15-2.09-4.68-3.19-4.01-2.87-4.83-6.11-2.48-9.64,1.95-2.93,5.54-3.39,9.36-1.05,8.49,5.19,15.59,11.91,21.43,19.95,9.46,13.03,14.16,27.66,14.52,43.71Z"/>
  <path class="cls-2" d="M106.24,41.77c1.67-3.87,4.5-5.29,8.74-4.8,3.73,.43,7.55,.16,11.23,1.19,2.81,2.23,4.35,4.98,2.94,8.57-1.23,3.13-4.34,4.19-9.02,3.55-2.12-.29-4.28-.22-6.41-.44-5.27-.56-7.19-2.66-7.49-8.06Z"/>
</svg>