<?xml version="1.0" encoding="UTF-8"?>
<svg id="Layer_1" data-name="Layer 1" xmlns="http://www.w3.org/2000/svg" viewBox="0 0 271.63 280.81">
  <defs>
    <style>
      .cls-1 {
        opacity: .1;
      }

      .cls-1, .cls-2 {
        fill: #00f3a1;
      }
    </style>
  </defs>
  <path class="cls-2" d="M.01,164.92c0-29.71,0-59.41,0-89.12,0-16.11,10.35-26.5,26.39-26.5,28.96-.01,57.92,0,86.88,0,6.15,0,7.66,1.07,7.86,7.16,.31,9.89,.24,19.8,.1,29.69-.03,2.37,.39,3.47,2.87,4.16,12.51,3.48,16.82,12.17,16.78,21.25-.05,9.68-5.11,17.88-16.55,21.04-2.48,.68-3.05,1.78-3.02,4.11,.09,6.68,.05,13.37-.14,20.04-.07,2.6,1.1,3.14,3.35,3.12,10.02-.06,20.05-.04,30.07-.02,6.53,.01,8.19,1.94,7.25,8.33-1.26,8.52,1.61,13.54,8.84,15.48,6.08,1.63,13.15-3.42,13.52-9.75,.14-2.46,0-4.91-.44-7.38-.7-3.8,1.26-6.52,5.12-6.57,12.5-.17,25-.16,37.49,0,3.79,.05,5.2,2.1,5.2,6.61,.02,21.17,0,42.33,0,63.5,0,8.42,.05,16.83-.01,25.25-.1,13.93-9.56,24.1-23.45,25.27-1.6,.13-3.21,.21-4.82,.21-58.41,.01-116.83-.01-175.24,.03-8.8,0-16.67-1.97-22.46-9.19C1.75,266.8,0,261.3,0,255.15c.03-30.08,.01-60.15,.01-90.23Zm45.97,105.39c2.72,.04,5.43,.11,8.15,.11,17.56,.01,35.11,.02,52.67,0,1.59,0,3.55,.71,3.54-2.29-.03-7.65,0-15.31,.38-22.95,.19-3.78-.96-5.36-4.77-6.23-9.73-2.22-16.96-14.07-15.1-23.71,1.84-9.52,7.12-15.81,16.67-18.12,2.35-.57,3.22-1.69,3.17-4.11-.14-6.43-.15-12.86,0-19.29,.07-2.72-.79-3.72-3.58-3.65-6.55,.16-13.1,.05-19.66,.05q-8.68,0-11.47-8.11c-1.34-3.92-3.95-6.65-8.01-7.4-4.97-.92-9.28,.37-12.29,4.85-1.15,1.72-1.54,3.6-1.87,5.55-.61,3.59-2.58,5.39-6.39,5.15-2.7-.17-5.43,.05-8.15,.09-8.64-.04-17.28-.05-25.92-.16-2.19-.03-3.11,.73-3.11,2.99,.05,27.54-.12,55.08,.14,82.62,.09,9.1,6.44,14.64,15.61,14.7,6.67,.05,13.33-.06,20-.09Zm-6.69-110.61c3.22,.67,5.02-.4,6.56-3.6,3.89-8.06,10.71-12.06,19.69-11.97,9.01,.09,15.48,4.42,19.3,12.53,1.11,2.36,2.57,3.29,5.15,3.23,5.56-.14,11.14-.19,16.7,.01,3.02,.11,4.12-.78,4.04-3.95-.21-8.04-.08-16.08-.07-24.12,0-7.79,.75-8.56,8.64-8.98,6.73-.36,11.49-5.33,11.23-11.72-.27-6.52-5.2-11.45-11.89-10.94-5.7,.44-8.07-2.25-8-7.86,.1-8.53,.03-17.07,.03-25.61q0-6.74-6.71-6.73c-18.3,.03-36.61,.06-54.91,.09-7.67-.04-15.36,.22-23.01-.19-9.22-.5-15.61,5.85-15.67,14.92-.19,27.35-.06,54.71-.11,82.06,0,2.26,.87,3.03,3.07,3,8.66-.12,17.32-.12,25.98-.17Zm126.17,110.72c13.36,0,26.72,.04,40.08-.02,9.26-.04,15.64-5.96,15.69-15.11,.15-27.34,.03-54.69,.09-82.03,0-2.47-.98-3.22-3.32-3.19-6.55,.09-13.11,.14-19.67-.02-2.89-.07-3.83,.89-3.87,3.83-.18,11.26-9.99,20.52-21.53,20.62-11.31,.09-21.25-9.34-21.49-20.7-.06-3.05-1.18-3.79-3.97-3.74-7.42,.14-14.85,.21-22.26-.03-3.4-.11-4.51,.89-4.41,4.36,.24,8.53,.14,17.07,.05,25.61-.05,5.29-2.24,7.2-7.28,6.65-4.95-.54-9.45,1.97-11.5,6.41-3.89,8.44,1.7,16.72,11.27,16.69,6.2-.02,7.52,1.29,7.52,7.59,.01,9.77,.1,19.55-.06,29.32-.05,2.94,.86,3.85,3.82,3.82,13.61-.14,27.21-.06,40.82-.06Z"/>
  <path class="cls-2" d="M271.61,69.05c0,14.85,0,29.71,0,44.56,0,5.7-1.76,7.43-7.58,7.44-8.66,.02-17.33,.06-25.99-.03-2.15-.02-2.94,.52-3.09,2.86-.78,12.22-9.69,20.94-21.47,21.3-11.24,.34-20.75-8.18-22.07-20.24-.35-3.2-1.29-4.03-4.42-3.96-9.65,.21-19.3,.1-28.96,.07-5.45-.02-7.34-1.92-7.36-7.41-.03-11.02-.04-22.03,0-33.05,.02-5.24,2.07-7.12,7.26-6.88,7.38,.34,13.06-4.77,12.92-11.62-.15-6.97-5.99-11.95-13.27-11.3-4.36,.39-6.8-1.39-6.84-5.69-.14-13.12-.13-26.24,0-39.36,.03-3.71,2.24-5.68,5.93-5.68,30.32-.03,60.64-.16,90.96,.06,13.42,.1,23.82,10.93,23.93,24.37,.12,14.85,.03,29.71,.03,44.56h.01ZM206.1,10.44c-13.86,0-27.71,.08-41.57-.07-2.83-.03-3.55,.82-3.49,3.57,.18,7.79,.16,15.59,0,23.38-.05,2.36,.76,3.3,3.01,3.66,3.75,.6,7.01,2.4,9.78,4.95,6.12,5.64,8.58,12.7,6.84,20.8-1.9,8.88-7.61,14.56-16.41,16.76-2.55,.64-3.32,1.55-3.23,4.16,.21,6.55,.21,13.12,0,19.67-.09,2.84,.86,3.57,3.59,3.53,10.51-.14,21.03-.08,31.55-.05,4.84,.01,6.96,2.66,6.08,7.34-.31,1.69-.51,3.43-.51,5.15,.01,5.92,4.11,10.68,9.62,11.3,6.41,.73,11.25-2.54,13.01-8.48,.75-2.54,.13-4.88-.23-7.3-.92-6.09,.69-8,6.74-8.01,8.91-.02,17.82-.09,26.72,.05,2.81,.04,3.88-.63,3.87-3.7-.12-27.1-.04-54.2-.09-81.3-.02-9.61-5.95-15.4-15.59-15.41-13.24-.02-26.48,0-39.71,0Z"/>
  <path class="cls-1" d="M165.46,270.42c-13.61,0-27.22-.08-40.82,.06-2.96,.03-3.86-.88-3.82-3.82,.16-9.77,.07-19.55,.06-29.32,0-6.29-1.33-7.61-7.52-7.59-9.57,.03-15.16-8.25-11.27-16.69,2.05-4.44,6.55-6.95,11.5-6.41,5.04,.55,7.23-1.36,7.28-6.65,.08-8.54,.18-17.08-.05-25.61-.1-3.47,1.01-4.47,4.41-4.36,7.41,.23,14.84,.16,22.26,.03,2.79-.05,3.9,.69,3.97,3.74,.24,11.37,10.17,20.8,21.49,20.7,11.55-.09,21.35-9.36,21.53-20.62,.05-2.93,.98-3.9,3.87-3.83,6.55,.16,13.11,.11,19.67,.02,2.34-.03,3.32,.72,3.32,3.19-.06,27.34,.06,54.69-.09,82.03-.05,9.15-6.44,15.07-15.69,15.11-13.36,.06-26.72,.02-40.08,.01Z"/>
  <path class="cls-1" d="M49.03,60.08c18.3-.03,36.61-.06,54.91-.09q6.71-.01,6.71,6.73c0,8.54,.08,17.07-.03,25.61-.07,5.61,2.31,8.3,8,7.86,6.69-.52,11.62,4.42,11.89,10.94,.27,6.39-4.49,11.35-11.23,11.72-7.89,.43-8.63,1.19-8.64,8.98,0,8.04-.14,16.09,.07,24.12,.08,3.17-1.02,4.05-4.04,3.95-5.56-.2-11.13-.16-16.7-.01-2.58,.07-4.04-.87-5.15-3.23-3.82-8.11-10.29-12.43-19.3-12.53-8.97-.09-15.79,3.91-19.69,11.97-1.55,3.2-3.34,4.27-6.56,3.6,0-28.34,.04-56.68-.04-85.01-.01-4,1.61-7.08,4.05-10.01,1.62-1.94,3.91-2.96,5.73-4.6Z"/>
  <path class="cls-1" d="M39.27,170.25c2.72-.04,5.45-.26,8.15-.09,3.82,.23,5.79-1.56,6.39-5.15,.33-1.95,.72-3.83,1.87-5.55,3.01-4.48,7.32-5.77,12.29-4.85,4.06,.75,6.66,3.48,8.01,7.4q2.78,8.11,11.47,8.11c6.55,0,13.11,.11,19.66-.05,2.8-.07,3.65,.93,3.58,3.65-.15,6.43-.14,12.86,0,19.29,.05,2.43-.82,3.54-3.17,4.11-9.55,2.31-14.82,8.61-16.67,18.12-1.87,9.64,5.37,21.49,15.1,23.71,3.81,.87,4.96,2.45,4.77,6.23-.39,7.64-.41,15.3-.38,22.95,.01,3-1.96,2.28-3.54,2.29-17.56,.03-35.11,.02-52.67,0-2.72,0-5.43-.07-8.15-.11,1.79-1.16,.29-1.74-.49-2.21-4.79-2.87-6.22-7.33-6.21-12.58,.02-28.42,0-56.85,0-85.27Z"/>
  <path class="cls-1" d="M206.1,10.44c13.24,0,26.48-.02,39.71,0,9.63,.01,15.57,5.8,15.59,15.41,.05,27.1-.03,54.2,.09,81.3,.01,3.08-1.06,3.75-3.87,3.7-8.91-.14-17.82-.06-26.72-.05-6.05,.01-7.66,1.93-6.74,8.01,.36,2.43,.98,4.76,.23,7.3-1.76,5.94-6.6,9.21-13.01,8.48-5.51-.62-9.61-5.38-9.62-11.3,0-1.72,.19-3.46,.51-5.15,.87-4.68-1.24-7.33-6.08-7.34-10.52-.03-21.03-.09-31.55,.05-2.73,.04-3.67-.69-3.59-3.53,.2-6.55,.21-13.12,0-19.67-.08-2.6,.68-3.52,3.23-4.16,8.8-2.2,14.51-7.88,16.41-16.76,1.74-8.1-.72-15.16-6.84-20.8-2.77-2.55-6.03-4.35-9.78-4.95-2.25-.36-3.05-1.3-3.01-3.66,.15-7.79,.18-15.59,0-23.38-.06-2.74,.65-3.6,3.49-3.57,13.86,.15,27.71,.07,41.57,.06Z"/>
</svg>